<?xml version="1.0" encoding="UTF-8" standalone="no"?>
<svg
   xmlns:dc="http://purl.org/dc/elements/1.1/"
   xmlns:cc="http://creativecommons.org/ns#"
   xmlns:rdf="http://www.w3.org/1999/02/22-rdf-syntax-ns#"
   xmlns:svg="http://www.w3.org/2000/svg"
   xmlns="http://www.w3.org/2000/svg"
   width="159.01459mm"
   height="160.60208mm"
   viewBox="0 0 159.01459 160.60208"
   version="1.1"
   id="svg8">
  <defs
     id="defs2" />
  <metadata
     id="metadata5">
    <rdf:RDF>
      <cc:Work
         rdf:about="">
        <dc:format>image/svg+xml</dc:format>
        <dc:type
           rdf:resource="http://purl.org/dc/dcmitype/StillImage" />
        <dc:title></dc:title>
      </cc:Work>
    </rdf:RDF>
  </metadata>
  <g
     id="layer1"
     transform="translate(-36.90937,-51.234673)">
    <path
       style="fill:#9a3737;fill-opacity:0.770968;stroke:none;stroke-width:0.268683px;stroke-linecap:butt;stroke-linejoin:miter;stroke-opacity:1"
       d="m 110.34178,144.87036 c 0.37646,-0.28684 0.60667,-0.55361 0.7212,-0.88792 0.0349,-0.10167 0.28281,-0.71925 0.47384,-0.42792 0.0367,0.0583 0.28214,-0.11423 0.33911,-0.1913 0.33822,-0.45874 0.90073,-0.74428 1.15934,-1.27688 0.0993,-0.20448 0.32972,-0.37278 0.53415,-0.47767 0.38192,-0.1958 0.72791,-0.55242 1.18321,-1.02906 0.8178,-0.85617 1.29875,-1.61732 1.89267,-2.41904 0.11327,-0.15293 0.25462,-0.38342 0.41963,-0.44577 0.16013,-0.0606 -0.0462,0.18257 -0.10221,0.29851 -0.26658,0.55104 -0.61389,1.15062 -0.73758,1.61499 -0.0437,0.16379 -0.21672,0.4521 -0.42472,0.66102 -0.6723,0.67532 -1.21048,1.44802 -1.94459,2.08582 -0.26664,0.23162 -0.54953,0.56611 -0.8042,0.86004 -0.40977,0.47375 -0.79532,1.04185 -1.19039,1.02851 -0.0889,-0.003 -0.30342,0.24271 -0.4642,0.39579 -0.56974,0.54266 -1.0827,1.22543 -1.73533,1.61867 -0.20398,0.12318 -0.63952,0.7356 -0.60738,0.93754 0.0416,0.25791 -0.24856,0.58595 -0.64461,0.9715 -0.51945,0.50584 -1.01387,1.02442 -1.43699,1.5895 -0.13253,0.17704 -0.26565,0.40876 -0.44573,0.41399 -0.0286,3.4e-4 -0.19246,0.134 -0.21824,0.17515 -0.58863,0.93373 -1.69947,1.49132 -2.24433,2.44649 -0.71162,0.60078 -1.19533,1.41661 -1.80543,1.97504 -0.75237,0.68862 -1.3154,1.46484 -2.0457,2.15004 -0.500275,0.46924 -0.995137,1.07242 -1.447303,1.64326 -0.210464,0.26565 -0.470005,0.6605 -0.762831,0.76827 -0.260508,0.096 -0.238303,-0.12554 -0.112933,-0.39405 0.244931,-0.52488 0.01708,-0.3124 -0.378428,0.11137 -0.191924,0.2053 -0.474381,0.44262 -0.571843,0.60243 -0.556051,0.90981 -1.330465,1.76914 -2.164704,2.65731 -0.690164,0.73455 -1.344532,1.51079 -2.098082,2.04355 -0.501504,0.3545 -0.77692,0.84183 -1.128066,1.26154 -0.368834,0.4407 -0.628825,0.75194 -1.101899,1.06516 -0.437306,0.28957 -0.977549,0.87785 -1.433501,1.42454 -0.390654,0.46846 -0.751007,0.90375 -0.962384,1.34652 -0.100256,0.21008 -0.497822,0.62634 -0.71428,0.73248 -0.380993,0.18687 -0.602952,0.4891 -0.846553,0.83903 -0.431021,0.61929 -1.022196,1.09617 -1.533326,1.64296 -0.09229,0.0988 -0.264417,0.23636 -0.280783,0.27646 -0.240859,0.59134 -0.742286,0.96559 -1.252836,1.36969 -0.860622,0.68092 -1.589224,1.63874 -2.411173,2.41501 -0.143962,0.13601 -0.27245,0.25574 -0.413332,0.36486 -0.586412,0.4545 -1.13592,0.95893 -1.554562,1.61855 -0.09739,0.15355 -0.236972,0.33737 -0.36941,0.41327 -0.163781,0.0939 0.09467,-0.1687 0.06055,-0.21199 -0.141189,-0.17963 -0.497974,0.26834 -0.712935,0.5396 -0.302792,0.38196 -0.525202,0.7133 -0.84251,0.76049 -0.05429,0.008 -0.294899,0.22386 -0.403895,0.35317 -0.504444,0.59863 -0.987091,1.17034 -1.603104,1.69547 -0.295056,0.25144 -0.191556,0.44712 -0.411758,0.75284 -0.22425,0.096 -0.08962,-0.14786 -0.114785,-0.23208 -0.02081,-0.0699 0.07641,-0.26652 -0.128015,-0.1339 -0.175599,0.11411 -0.296325,0.31745 -0.444501,0.47515 -0.792727,0.84577 -1.441764,1.75762 -2.281872,2.57585 -0.148461,0.1447 -0.229076,0.23659 -0.188121,0.29651 0.140772,0.20442 -0.192156,0.37499 -0.424869,0.51415 -0.243268,0.14535 -0.383728,-0.21487 -0.227797,-0.487 0.287473,-0.50193 0.411385,-0.92405 0.927052,-1.53716 0.170613,-0.20293 0.08373,-0.2525 0.0077,-0.26474 -0.107602,-0.0177 -0.303045,0.19568 -0.430034,0.35635 -0.33822,0.42739 -0.659258,0.85483 -0.979508,1.28121 -0.08746,0.11659 -0.214421,0.26646 -0.153455,0.30492 0.241503,0.15271 -0.184693,0.70854 -0.622682,1.25512 -0.20649,0.25771 -0.05277,0.20908 -0.08278,0.31407 -0.0843,0.2956 -0.154466,0.46231 -0.68024,0.87266 -0.47473,0.37075 -0.823053,0.52654 -1.240841,0.81121 -0.125273,0.0855 -0.255252,0.14395 -0.329871,0.14719 -0.744586,0.0313 -1.05223,0.26557 -2.094384,1.61232 0.0026,0.14813 0.506849,-0.44346 0.379788,-0.15758 -0.290041,0.65248 0.398052,0.62553 -0.692367,1.80957 -0.05509,-0.11438 -0.05509,-0.11438 0.284841,-0.59653 -0.775444,0.31984 -0.816323,0.3557 -1.367747,1.31185 -0.215879,0.37418 -0.385729,0.72543 -0.588276,1.09334 -0.06231,0.11334 -0.154203,0.25671 -0.292611,0.36917 -0.16912,0.13721 -0.136431,0.0175 -0.157376,-0.0288 -0.03625,-0.0837 -0.06138,-0.17849 -0.09643,-0.26351 -0.03545,-0.0874 0.07463,-0.39685 -0.370638,0.20106 -0.137683,0.18479 -0.619381,0.53265 -0.803109,0.59538 -0.422773,0.14384 -0.745254,0.46356 -1.10284,0.99536 -0.0926,0.13763 -0.199851,0.35145 -0.334529,0.39955 -0.146967,0.0522 -0.269085,0.0307 -0.28615,-0.0667 -0.0142,-0.0767 0.21569,-0.26523 0.356103,-0.39004 0.837608,-0.74365 1.326275,-1.58345 2.023779,-2.36743 0.202402,-0.22759 0.0287,-0.16704 0.02729,-0.23916 -0.0032,-0.1255 -0.109159,-0.0597 -0.315534,0.13561 -0.467873,0.44332 -0.846496,0.93207 -1.267642,1.397 -0.831762,0.91814 -1.439799,1.83992 -2.252525,2.759 -0.455407,0.515 -0.853258,1.06444 -1.249402,1.59394 -0.208182,0.27848 -0.419385,0.50409 -0.68038,0.73836 -0.07586,-0.1019 0.304153,-0.40753 0.306689,-0.55719 -0.683119,0.68746 -1.345944,1.4093 -1.993986,2.1485 -0.263102,0.30013 -0.172359,0.39158 -0.359112,0.66454 -0.377962,0.55291 -0.7821,1.07848 -1.336686,1.6622 0.253237,-0.60649 -0.16231,-0.22228 -0.574861,0.18538 -0.345701,0.34164 -0.769106,0.72392 -1.018179,1.0088 -0.42334,0.48428 -0.351105,0.18453 -0.591639,0.37625 -0.06773,0.2403 -0.185453,0.52444 -0.69573,0.8948 0.208387,-0.7131 0.680179,-1.60007 1.452876,-2.57197 0.402948,-0.507 0.585702,-0.91587 1.021263,-1.42362 1.056538,-1.2312 2.083809,-2.4721 3.11028,-3.71098 0.534726,-0.64531 0.554291,-0.78618 0.170939,-0.65795 -0.141444,0.0471 -0.259499,0.11052 -0.400462,0.3395 -0.289095,0.46995 -0.72498,0.74387 -1.085981,1.11674 -0.497529,0.51386 -0.654233,0.44003 -0.807208,0.34998 -0.103164,-0.0598 -0.373241,0.13701 -0.496214,0.42023 -0.294048,0.6774 -0.849858,0.99967 -1.229207,1.23185 -0.489963,0.30004 -1.052646,0.73749 -1.471417,0.87992 -0.101447,0.0343 -0.323592,0.20479 -0.462697,0.34886 -0.362051,0.37461 -0.609253,0.53148 -0.923819,0.69128 -0.680586,0.34546 -0.842323,0.33665 -0.651226,-0.29943 0.257369,-0.85669 1.008709,-1.95508 1.799491,-3.06036 0.586395,-0.81948 1.256707,-1.64787 1.729236,-2.45181 0.269267,-0.45818 0.823752,-0.9982 1.300299,-1.45753 0.29568,-0.285 0.553898,-0.51817 0.550465,-0.74416 -0.0014,-0.0939 0.07657,-0.2565 0.2328,-0.44061 0.923589,-1.08862 1.654772,-2.13356 2.270899,-3.15149 0.259121,-0.4284 0.615005,-0.82218 1.014224,-1.13862 0.324376,-0.25698 0.544609,-0.56087 0.80663,-0.84427 0.121262,-0.13113 0.287171,-0.34296 0.178121,-0.34165 -0.07878,8.6e-4 -0.260836,0.14225 -0.391973,0.29994 -0.814124,0.97861 -1.536016,1.5456 -2.197614,1.76041 -0.234256,0.076 -0.452875,0.22488 -0.806496,0.6539 -0.370617,0.44971 -0.827855,0.78676 -1.232222,1.04557 -0.01498,0.01 -0.02321,0.002 -0.03575,0.004 -0.189961,0.004 -0.780178,0.59276 -0.738664,0.29004 0.04565,-0.33007 0.223845,-0.76834 0.626986,-1.33249 0.192096,-0.26878 0.375621,-0.5354 0.568066,-0.81073 -0.17954,0.0546 -0.40455,0.2666 -0.477148,0.38181 -0.393415,0.626 -1.072095,1.12887 -1.516382,1.7501 -0.259266,0.36264 -1.231996,0.96263 -1.400809,0.90415 -0.212495,-0.0737 -0.980192,0.45224 -1.42995,0.9833 -0.216861,0.25607 -0.441812,0.51611 -0.634488,0.77076 -0.341314,0.45131 -0.660588,0.87241 -1.002109,0.88872 -0.03154,9.9e-4 -0.09054,0.031 -0.145024,0.0679 -0.0667,0.0452 -1.037524,1.35825 -1.012245,1.37213 0.117361,0.0606 -0.125002,0.31569 -0.273203,0.44737 -0.154522,0.13765 -0.447242,0.38847 -0.327164,0.0922 0.0044,-0.0129 0.0048,-0.0326 -0.0053,-0.0289 -0.948737,0.38874 0.04495,-0.68413 0.381935,-1.2362 0.41993,-0.68791 0.92731,-1.41255 1.104628,-1.97591 0.08953,-0.28388 0.0369,-0.31396 -0.373363,0.0972 -0.609279,0.61021 -1.227063,1.07461 -1.839191,1.59896 -0.408436,0.34975 -0.564094,0.20704 -0.443299,-0.24293 0.181921,-0.67898 0.724554,-1.55129 1.316932,-2.45021 0.853038,-1.29443 1.883297,-2.59511 3.06872,-3.90122 0.129894,-0.14309 0.332618,-0.37269 0.343908,-0.43454 0.05512,-0.30078 0.384075,-0.62852 0.705779,-0.96949 0.05466,-0.0579 0.127971,-0.14899 0.142047,-0.18886 0.320741,-0.90092 1.35744,-1.81172 2.143975,-2.72331 0.435583,-0.50494 0.818329,-0.96837 1.358775,-1.36855 0.364111,-0.26972 0.596246,-0.7119 0.761292,-1.02914 0.267663,-0.51425 0.726049,-0.90838 1.154899,-1.29174 0.117717,-0.10518 0.268757,-0.19485 0.393598,-0.33962 0.521375,-0.60418 1.01442,-1.12411 1.517127,-1.29499 0.190881,-0.0647 0.428374,-0.3418 0.57323,-0.59394 0.139982,-0.24328 0.296349,-0.48645 0.554879,-0.74716 0.07582,-0.0765 0.165274,-0.17725 0.227632,-0.21821 0.143362,-0.0937 -0.238445,0.46389 0.166389,0.041 0.303006,-0.31652 0.515146,-0.6539 0.75254,-0.99265 0.603283,-0.86097 1.172255,-1.78453 2.162678,-2.55009 0.222508,-0.17197 0.321912,-0.30494 0.479849,-0.50184 0.27245,-0.33981 0.542235,-0.75635 0.920279,-0.91376 0.0303,-0.0127 0.138905,-0.11727 0.16123,-0.15518 0.458834,-0.78199 1.593684,-1.6551 1.81031,-2.4016 0.494298,-0.44538 1.020819,-1.0018 1.462131,-1.2223 0.247396,-0.1237 0.348824,-0.21975 0.558073,-0.5107 0.266125,-0.36989 0.55593,-0.79897 0.97468,-0.9861 0.179386,-0.0799 0.29997,-0.2952 0.414321,-0.44983 0.139052,-0.18793 0.19231,-0.32474 0.04727,-0.28676 -0.115341,0.0302 -0.249924,0.078 -0.0815,-0.16642 0.165677,-0.24061 0.297034,-0.31222 0.471917,-0.39126 0.266668,-0.12071 0.563308,-0.40018 0.8247,-0.76559 0.26741,-0.37408 0.591702,-0.75463 0.87317,-1.12442 0.294958,-0.38755 0.450919,-0.71694 0.8599,-0.82911 0.132453,-0.0362 0.45846,-0.45312 0.599062,-0.69677 0.109973,-0.1904 0.299495,-0.38417 0.408304,-0.54132 0.625049,-0.90311 1.499988,-1.42824 2.168267,-2.23975 0.07142,-0.0867 0.20715,-0.19272 0.293362,-0.24681 0.502344,-0.31433 0.938285,-0.69647 1.392489,-1.32799 0.172031,-0.23917 0.54866,-0.51145 0.811266,-0.78896 0.326682,-0.34522 0.631096,-0.71132 0.850135,-1.0682 0.05996,-0.0975 0.151558,-0.25929 0.196998,-0.29263 1.020521,-0.74888 1.397811,-1.64769 2.090482,-2.46759 0.25914,-0.30667 0.53784,-0.6755 0.788083,-0.84918 0.475566,-0.33057 0.786856,-0.75107 1.110751,-1.1615 0.263916,-0.33442 0.480772,-0.60032 0.820709,-0.82308 0.328706,-0.21534 0.45845,-0.50408 0.580441,-0.74547 0.171852,-0.34036 0.31951,-0.61587 0.775378,-0.8683 0.276181,-0.15291 0.648912,-0.53716 0.893415,-0.87637 0.291334,-0.40437 0.645845,-0.68766 0.9597,-1.02791 0.793995,-0.86068 1.743063,-1.72234 2.151624,-2.63291 0.172269,-0.38384 0.376814,-0.63892 0.728517,-0.69494 0.17247,-0.0275 0.586428,-0.3874 0.820597,-0.69072 0.209028,-0.27061 0.428586,-0.41764 0.557018,-0.52062 0.696947,-0.55911 1.185047,-1.08455 1.36732,-1.58692 0.06143,-0.1693 0.08212,-0.27543 0.294662,-0.46652 0.221815,-0.19954 0.325056,-0.25195 0.199757,0.0148 -0.03536,0.075 0.290849,-0.19006 0.386589,-0.33274 0.341994,-0.51067 0.86306,-1.01313 1.20765,-1.51864 0.113324,-0.16649 0.254172,-0.26846 0.401168,-0.39242 0.280467,-0.2365 0.612221,-0.5117 0.777199,-0.81471 0.274075,-0.5038 0.682399,-0.79198 1.058226,-1.09993 0.156794,-0.12837 0.297402,-0.19023 0.445493,-0.39995 0.725812,-1.02763 1.699782,-1.75048 2.536465,-2.63898 0.619044,-0.6574 1.211794,-1.34212 1.560094,-1.99088 0.14882,-0.27704 0.2652,-0.4298 0.5787,-0.64336 0.35314,-0.24078 0.74462,-0.57334 1.10103,-1.02034 0.11498,-0.14417 0.28646,-0.33916 0.40313,-0.42369 0.54183,-0.39261 0.78721,-0.8214 1.03193,-1.23733 0.22326,-0.37977 0.44085,-0.66288 0.79348,-0.80118 0.16592,-0.065 0.40795,-0.25011 0.57132,-0.4625 0.56887,-0.74024 1.21394,-1.28459 1.86293,-1.90401 0.53088,-0.50669 1.12561,-1.10456 1.55807,-1.71716 0.16629,-0.23561 0.30871,-0.37105 0.49184,-0.48526 0.6375,-0.39759 1.19037,-0.90332 1.78505,-1.69538 0.26781,-0.35669 0.78244,-0.79369 1.13869,-1.18446 0.63445,-0.69565 1.32809,-1.32316 1.92876,-2.06668 0.39887,-0.49389 0.79582,-0.82406 0.62062,-0.2757 0.55887,-0.51438 0.93245,-0.97655 1.30639,-1.5198 0.40955,-0.59475 0.95578,-1.23104 1.44642,-1.84895 0.21763,-0.2741 0.37498,-0.30338 0.55019,-0.40801 0.0898,-0.44702 0.47618,-0.95082 1.10537,-1.48596 0.32333,-0.27504 0.67985,-0.55282 0.84337,-0.96812 0.14013,-0.35586 0.49602,-0.75417 0.89939,-0.98526 0.36122,-0.20718 0.64606,-0.51033 0.83942,-0.85911 0.21082,-0.37984 0.42048,-0.55768 0.75768,-0.77583 0.44095,-0.28524 0.87893,-0.71372 1.21646,-1.23662 0.0518,-0.0803 0.15501,-0.23097 0.1735,-0.24045 0.53325,-0.27276 0.89372,-1.04068 1.41062,-1.36908 0.0591,-0.0374 0.21398,-0.21847 0.25419,-0.29434 0.32859,-0.61986 0.81304,-0.99757 1.33635,-1.39057 0.56201,-0.42202 0.95995,-0.98741 1.35247,-1.51052 0.19018,-0.25339 0.34609,-0.39583 0.57965,-0.61477 0.90007,-0.84326 1.80205,-1.52998 2.70575,-2.44053 0.39094,-0.39399 0.40243,-0.65514 0.8511,-1.08254 0.54985,-0.52377 1.16394,-1.03546 1.67287,-1.688971 0.0811,-0.104172 0.26313,-0.242949 0.26475,-0.332748 0.006,-0.371356 0.54634,-0.775736 0.90118,-1.190205 1.07393,-1.254275 2.35433,-2.304673 3.3766,-3.593159 0.23053,-0.290668 0.41188,-0.313492 0.64467,-0.552757 0.52864,-0.542816 1.03552,-1.021979 1.45312,-1.664644 0.29521,-0.454363 0.8814,-0.96639 1.32711,-1.465416 0.37586,-0.420694 0.84749,-0.795228 1.15968,-1.279279 0.0123,-0.01907 0.0415,-0.05492 0.0534,-0.06249 0.66595,-0.417384 1.28939,-1.297809 1.92923,-1.763884 0.44131,-0.321588 0.73877,-0.682619 0.99089,-1.065659 0.31948,-0.485297 0.67242,-0.876503 1.13975,-1.230887 0.61009,-0.462714 1.16321,-1.046017 1.67843,-1.690931 0.44325,-0.555006 0.97667,-1.058452 1.41336,-1.341425 0.40183,-0.260314 0.54907,-0.464602 0.68468,-0.745992 0.25537,-0.530327 0.7579,-0.874879 1.1638,-1.265542 0.18665,-0.179686 0.24616,-0.206206 0.29337,-0.388124 0.0629,-0.240783 0.37522,-0.616271 0.69758,-0.830499 0.38461,-0.255867 0.64426,-0.408181 1.02314,-0.979912 0.27449,-0.41392 0.76608,-1.01838 1.28976,-1.357391 0.22148,-0.143421 0.22886,-0.271611 0.31026,-0.391953 0.49052,-0.726224 1.06869,-1.399629 1.7883,-2.018831 0.30669,-0.263836 0.52606,-0.538096 0.72062,-0.854466 0.15981,-0.259567 0.31508,-0.590484 0.71547,-0.768902 0.14869,-0.06621 0.28617,-0.332323 0.3999,-0.517087 0.21477,-0.348362 0.45896,-0.697739 0.7895,-0.764658 0.0477,-0.01 0.17495,-0.0817 0.20074,-0.115667 0.66548,-0.88214 1.52474,-1.309311 2.19487,-2.164686 0.24542,-0.3133 0.47058,-0.34057 0.81929,-0.763525 0.60848,-0.737946 1.25052,-1.498006 2.0603,-2.233837 0.74053,-0.672896 1.62408,-1.469129 2.25153,-2.241129 0.64343,-0.79186 1.10939,-1.406989 1.92709,-1.973411 0.2427,-0.168269 0.71791,-0.647688 1.08418,-0.927931 0.2182,-0.1671 0.49945,-0.414606 0.18985,0.0613 -0.13432,0.206669 0.0814,0.09008 0.24695,-0.04196 0.62623,-0.499425 0.68904,-0.352765 0.74981,-0.0595 0.0839,0.404243 -0.24287,1.085075 -0.45937,1.686738 -0.15918,0.442669 -0.65675,1.105047 -0.98395,1.660861 -0.28046,0.476326 -0.42968,0.921156 -1.00985,1.537213 -0.23019,0.244426 -0.33697,0.541288 -0.35396,0.706057 -0.0407,0.393858 -0.4857,1.034006 -0.69163,1.52757 -0.1965,0.471071 -0.64915,0.923378 -1.1408,1.350656 -0.24338,0.211404 -0.47663,0.410989 -0.25625,0.424801 0.19345,0.01158 0.10865,0.265798 -0.0999,0.61202 -0.17179,0.285005 -0.27467,0.516609 -0.0651,0.475607 0.18821,-0.03691 0.46892,-0.264328 0.72964,-0.530204 0.58171,-0.593131 1.16782,-1.073852 1.74873,-1.572905 0.37504,-0.322142 0.70473,-0.601943 0.85338,-0.973931 0.0262,-0.06587 0.0891,-0.138166 0.0891,-0.114346 0.004,0.28139 0.51818,-0.540159 0.59407,-0.357891 0.0714,0.171226 0.0614,0.419986 -0.0269,0.707389 -0.0901,0.293791 0.0738,0.115669 0.27403,-0.05293 0.0389,-0.03319 0.0849,-0.07785 0.11928,-0.118696 0.92285,-1.097452 1.97171,-1.963714 2.94956,-2.960272 0.13133,-0.133582 0.31218,-0.294415 0.41665,-0.347449 0.55934,-0.284945 1.0166,-0.927917 1.49529,-1.430882 0.27741,-0.292158 1.21525,-1.043644 1.38153,-1.043058 0.0328,1.67e-4 0.0387,0.04996 0.079,0.02278 0.35511,-0.239777 0.68651,-0.457968 0.80575,-0.316425 0.0236,0.02895 0.21563,-0.208885 0.30186,-0.334571 0.23532,-0.343346 0.46659,-0.685188 0.74021,-1.087408 0.0746,0.169495 -0.24775,0.498991 -0.4026,0.739971 -0.22691,0.353087 -0.17378,0.426224 0.15416,0.16867 0.40193,-0.31566 0.77617,-0.577736 1.22833,-1.006309 0.9119,-0.864384 1.77977,-1.467766 2.45359,-1.66302 0.48307,-0.140073 0.99097,-0.916232 1.48628,-1.288203 0.15758,-0.118437 0.33718,-0.460527 0.48139,-0.458323 0.11547,0.002 -0.14181,0.30242 -0.2107,0.455016 -0.11819,0.262012 -0.69802,0.898092 -0.12395,0.614457 0.11212,-0.0553 -0.0128,0.114198 -0.0823,0.215348 -0.37458,0.545337 -0.75727,1.108107 -1.26922,1.64421 -0.36067,0.377677 -0.48743,0.662043 -0.7245,0.988563 -0.0908,0.12501 -0.16384,0.262933 -0.0572,0.23589 0.10896,-0.0273 0.27658,-0.151657 0.3735,-0.31824 0.1764,-0.302999 0.31041,-0.370272 0.55059,-0.524856 0.3769,-0.242556 0.6832,-0.659708 0.98046,-1.059388 0.29326,-0.394491 0.58442,-0.944824 1.01417,-0.980307 0.37512,-0.47945 0.94083,-0.7173 1.24086,-1.286118 0.0232,-0.0436 -0.0236,-0.04936 0.084,-0.104216 0.14644,-0.07513 0.37843,-0.02105 0.41843,-0.420073 0.007,-0.07196 0.2581,-0.19934 0.31212,-0.184393 0.18918,0.05182 0.34971,0.136958 0.52173,0.208733 0.054,0.02353 0.0567,0.119692 -0.027,0.224427 -0.5087,0.635752 -0.4656,0.973277 -0.82128,1.510399 -0.42374,0.639584 -0.87697,1.283651 -1.3994,1.967396 -0.68433,0.895679 -1.31135,1.583124 -2.1256,2.370173 -0.99224,0.958833 -1.92016,2.035394 -2.80618,3.108405 -0.1951,0.236209 -0.11385,0.302685 -0.33837,0.534566 -0.17101,-0.13685 -0.4856,0.118125 -0.90768,0.63756 -0.52225,0.642756 -0.92698,1.286757 -1.40002,1.879134 -0.4174,0.523009 -0.81163,1.073094 -1.27377,1.602327 -0.089,0.101904 -0.23361,0.180387 -0.32979,0.329765 0.41516,-0.08761 1.04887,-0.540629 1.53673,-1.123573 0.6652,-0.794688 1.39853,-1.536094 2.09612,-2.30484 0.11039,-0.121604 0.25164,-0.237717 0.24517,-0.16773 -0.0498,0.545456 0.55534,-0.236803 0.97889,-0.593008 -0.3589,0.852611 -0.81264,1.668825 -1.6555,2.779694 -0.98279,1.295179 -2.25845,2.429654 -3.17857,3.721083 -0.19203,0.269531 -0.78848,0.702115 -1.22565,1.217235 -1.16823,1.37587 -2.33525,2.755565 -3.53652,4.12725 -0.85195,0.972618 -1.99726,2.052399 -2.53744,3.120272 -0.0837,0.165434 -0.49116,0.510886 -0.73922,0.780562 -1.01743,1.106984 -2.03479,2.214922 -3.04374,3.328036 -0.22934,0.252338 -0.61158,0.632145 -0.20282,0.502712 0.38872,-0.123182 -8.2e-4,0.480563 -0.23365,0.73234 -0.64641,0.698701 -0.93679,1.291813 -1.43258,1.936155 -0.2022,0.262729 -0.43213,0.577167 -0.65312,0.684398 -0.20157,0.09787 -0.002,-0.21442 0.0606,-0.37514 0.0545,-0.140399 0.12155,-0.291058 -0.005,-0.262182 -0.12797,0.02917 -0.26193,0.241455 -0.39201,0.356292 -0.61935,0.547043 -1.14162,1.286377 -1.81645,1.778637 -0.29261,0.213483 -0.70403,0.760857 -0.82549,0.966102 -0.58755,0.992897 -1.50719,1.736364 -2.29191,2.572674 -0.42739,0.455447 -0.85591,0.908891 -1.1862,1.383117 -0.1122,0.161073 -0.22573,0.300557 -0.36957,0.430139 -1.19823,1.07934 -1.34674,1.270807 -1.71961,2.239962 -0.0603,0.157079 -0.12751,0.343557 -0.33032,0.519769 -0.6159,0.535141 -0.99611,1.14223 -1.49036,1.71022 -0.21377,0.24556 -0.39151,0.4408 -0.62758,0.62515 -0.29395,0.22924 -0.65609,0.59039 -0.79451,0.83064 -0.5004,0.86901 -1.26953,1.6672 -2.04142,2.49582 -0.55457,0.59538 -1.00589,1.23764 -1.64992,1.81158 -0.39285,0.35017 -0.72726,0.75341 -0.97726,1.21539 -0.16397,0.30307 -0.59861,0.83759 -1.04623,1.10134 -0.0345,0.0203 -0.0868,0.0539 -0.11393,0.0856 -1.10451,1.28994 -2.41705,2.39067 -3.4827,3.70459 -1.13046,1.39346 -2.43436,2.59091 -3.66566,3.86994 -0.20257,0.21045 -0.51374,0.45213 -0.51901,0.34878 -0.007,-0.142 0.10546,-0.41891 0.33106,-0.72217 0.22322,-0.30015 0.4676,-0.60105 0.62293,-0.88273 0.0721,-0.13072 0.22078,-0.32931 0.0742,-0.27748 -0.11765,0.0416 -0.29499,0.22282 -0.39978,0.36775 -0.58948,0.81485 -1.13198,1.62103 -1.38285,2.27456 -0.0994,0.25923 -0.2132,0.43306 -0.49863,0.73827 -0.52657,0.56352 -1.11556,1.11316 -1.48975,1.73847 -0.13088,0.21889 -0.38195,0.38362 -0.58297,0.56777 -0.99225,0.9088 -2.07316,1.73781 -2.75589,2.93827 -0.071,0.12488 -0.20668,0.26925 -0.32868,0.34157 -0.15136,0.0892 -0.005,-0.0904 0.006,-0.14974 0.0284,-0.15571 -0.48613,0.20789 -0.77724,0.54718 -0.0243,0.0279 -1.05668,1.49501 -1.08039,1.52817 -0.33244,0.46595 -0.55266,0.98097 -1.171,1.3196 -0.16402,0.0899 -0.25,0.26608 -0.36689,0.40853 -0.40823,0.4985 -0.78029,1.06408 -1.32588,1.33866 -0.0374,0.0189 -0.13705,0.11391 -0.16902,0.16113 -0.42115,0.62238 -0.95789,1.15398 -1.53222,1.70663 -0.62375,0.60015 -1.20208,1.25907 -1.74868,1.93083 -0.37922,0.46587 -0.93349,0.85305 -1.22115,1.20451 -0.66092,0.80766 -1.41907,1.44971 -2.07571,2.21847 -0.47814,0.55982 -1.02122,1.08998 -1.35978,1.67631 -0.20101,0.34788 -0.65132,0.66547 -0.76125,0.67399 -0.12788,0.01 -0.60616,0.33224 -0.26679,-0.19009 0.0489,-0.0749 0.0973,-0.19648 0.0706,-0.18926 -0.59215,0.16018 0.2556,-0.68575 0.42739,-0.89918 0.3548,-0.4404 0.29477,-0.56036 0.34162,-0.74982 0.0363,-0.14659 -0.11359,-0.14587 -0.42952,0.18954 -0.83003,0.88134 -1.64888,1.8081 -2.50006,2.62577 -1.00896,0.96906 -1.92729,1.9643 -2.86438,2.99558 -0.36477,0.40153 -0.83368,0.79831 -1.23591,1.23353 -0.49947,0.53983 -0.92415,1.064 -1.01037,1.47858 -0.15675,-0.0795 -0.43457,0.2626 -0.72566,0.49906 -0.88573,0.71897 -1.64965,1.57478 -2.36851,2.41657 -0.64931,0.76044 -1.26995,1.48696 -2.00314,2.15154 -0.10184,0.0922 -0.20462,0.18973 -0.30476,0.28889 -0.18808,0.18563 -0.41701,0.42763 -0.35975,0.50379 0.0578,0.0781 0.28978,-0.14813 0.44004,-0.35139 0.1983,-0.26817 0.40338,-0.38766 0.49682,-0.40813 0.36141,-0.0791 0.67932,-0.48174 0.97113,-0.88208 0.14024,-0.19226 0.26955,-0.32824 0.43472,-0.48165 0.54049,-0.50215 1.0028,-1.03749 1.46721,-1.61022 0.35037,-0.43208 0.69766,-1.01467 1.18166,-1.27827 0.45915,-0.25476 0.63228,-0.50358 0.76531,-0.85185 z m 25.50886,-27.09881 c -0.32216,0.37628 -0.51805,0.50713 -0.71722,0.5705 -0.21626,0.0687 -0.47872,0.25692 -0.81056,0.52571 -0.76656,0.62074 -1.32344,1.41163 -1.97168,2.09434 -0.46463,0.48935 -0.99942,1.09791 -1.47034,1.56798 -1.12302,1.12132 -2.2007,2.23963 -3.22876,3.43948 -0.4509,0.52639 -0.9454,1.10755 -1.42872,1.54442 -0.95665,0.86441 -1.57533,1.93715 -2.54368,2.74941 -0.0245,0.0209 -0.0495,0.0808 -0.0823,0.12213 -0.60354,0.76583 -1.3088,1.49514 -1.98082,2.21723 -0.34176,0.36683 -0.70974,0.87092 -0.99553,1.07831 -0.5401,0.39163 -0.88686,0.89864 -1.32199,1.33875 -0.36126,0.36552 -0.43302,0.5486 -0.24107,0.57684 0.26136,0.039 0.5174,-0.15168 0.97819,-0.72337 0.57332,-0.71102 1.09552,-1.44773 1.79264,-2.12029 0.41662,-0.40207 0.78707,-0.80367 1.14152,-1.24267 0.41526,-0.51423 0.81952,-1.01466 1.36887,-1.38864 0.21359,-0.14546 0.51592,-0.44651 0.74556,-0.76031 0.16654,-0.22734 0.37087,-0.50318 0.60739,-0.67726 0.71756,-0.52812 1.34929,-1.21293 1.97355,-1.94586 0.4673,-0.54859 1.0055,-1.04665 1.47736,-1.57209 0.51498,-0.57356 1.02814,-1.11745 1.56953,-1.62685 0.42156,-0.3965 0.78922,-0.78728 1.11719,-1.23687 0.5761,-0.78985 1.24842,-1.46066 1.97876,-2.00805 0.11587,-0.0868 0.23656,-0.13283 0.34545,-0.26941 0.57343,-0.71905 1.30365,-1.45265 1.69668,-2.25348 z m -52.784309,52.22552 c 1.474321,-1.56604 2.86485,-3.217 4.46499,-4.64953 0.357942,-0.32034 0.749376,-0.79345 1.053299,-1.18867 0.39533,-0.51509 0.776498,-1.01305 1.265135,-1.49772 0.241338,-0.23933 0.432335,-0.47766 0.462627,-0.64868 0.02489,-0.14203 -0.08878,-0.17906 -0.239291,-0.0945 -0.20822,0.11715 -0.400125,0.39163 -0.58674,0.63942 -0.276469,0.36735 -0.438718,0.77758 -0.708907,1.03541 -1.146195,1.09332 -2.040486,2.38578 -3.219516,3.4348 -0.752026,0.66927 -1.489111,1.46623 -2.186893,2.19359 -0.742454,0.77401 -1.795321,1.68933 -2.085304,2.56374 -0.01838,0.0552 -0.118065,0.17463 -0.07329,0.18504 0.05883,0.0141 0.164715,-0.10901 0.264346,-0.19443 0.782739,-0.66996 1.037638,-1.33939 1.600433,-2.00661 0.04736,-0.0556 0.102671,-0.11013 0.157702,-0.1687 0.05468,0.0684 -0.255153,0.35878 -0.168558,0.3963 z m 9.140486,-9.84918 c 0.705554,-0.77556 1.455491,-1.40296 2.151475,-2.13919 0.174151,-0.18432 0.350786,-0.41293 0.497771,-0.55215 0.533302,-0.50533 0.778017,-1.03222 1.262454,-1.51637 0.69658,-0.69632 1.404037,-1.45577 2.097682,-2.05107 0.626063,-0.53719 0.843807,-0.96951 1.191208,-1.44733 0.09226,-0.12706 0.184368,-0.38595 -0.06171,-0.14784 -0.719336,0.69641 -1.591669,1.30636 -2.048236,2.22016 -0.06919,0.13818 -0.18801,0.35924 -0.366029,0.47369 -0.571012,0.36704 -1.082736,0.91592 -1.608564,1.50161 -0.679166,0.75655 -1.399132,1.48189 -2.091671,2.2303 -0.528462,0.5707 -0.817517,0.96917 -1.024115,1.4281 z m 14.469213,-15.6919 c -0.53937,0.60344 -0.9924,1.00972 -1.48162,1.34894 -0.42851,0.29692 -0.91633,0.73767 -1.30276,1.22173 -0.62395,0.78158 -1.25181,1.55857 -1.90924,2.33728 -0.25812,0.30586 -0.30073,0.52167 -0.19766,0.57736 0.0676,0.0363 0.25871,-0.14962 0.4266,-0.34612 0.65065,-0.76095 1.29428,-1.52761 1.96705,-2.27762 0.38055,-0.42431 0.75489,-0.90633 1.20068,-1.25325 0.82455,-0.6414 0.92437,-0.75784 1.29696,-1.60831 z m -25.871619,30.46957 c -0.331529,0.37378 -0.562209,0.52918 -0.796348,0.72068 -0.686281,0.56108 -1.165242,1.31245 -1.835694,1.94302 -0.314899,0.29639 -0.64365,0.84449 -1.091444,1.26195 -0.270027,0.25172 -0.266295,0.393 -0.31022,0.54226 -0.06387,0.21636 0.17701,-0.0117 0.32944,-0.0975 0.42723,-0.24091 0.790627,-0.74662 1.166843,-1.11418 1.045669,-1.02229 1.934319,-2.09191 2.537331,-3.25636 z M 174.83201,68.709113 c 0.4967,-0.494105 0.92908,-0.924283 1.3758,-1.332023 0.32848,-0.299696 0.83931,-0.737537 0.95063,-0.878954 0.57354,-0.729631 1.16247,-1.319605 1.825,-1.901225 0.20627,-0.180968 0.33043,-0.406941 0.23681,-0.440352 -0.0737,-0.02635 -0.10876,-0.200553 -0.3658,0.104451 -0.51255,0.608082 -1.14033,1.096137 -1.60375,1.710999 -0.33131,0.440148 -0.66596,0.771578 -1.07832,1.105185 -0.57751,0.467394 -1.22204,1.251964 -1.34068,1.631629 z M 75.174642,180.63842 c -0.692473,0.69484 -0.59325,0.96696 -0.762438,1.37697 -0.06079,0.14676 -0.09492,0.28027 0.107619,0.1423 0.210355,-0.14316 0.373199,-0.34627 0.371799,-0.47726 -9.07e-4,-0.0996 0.03579,-0.14881 0.209651,-0.34065 0.338124,-0.37296 0.651058,-0.77221 0.946967,-1.15794 0.158425,-0.20624 0.327946,-0.49345 0.01193,-0.27605 -0.274069,0.1889 -0.589254,0.48498 -0.885511,0.73262 z"
       id="path1688" />
  </g>
</svg>
