<?xml version="1.0" encoding="UTF-8" standalone="no"?>
<svg
   xmlns:dc="http://purl.org/dc/elements/1.1/"
   xmlns:cc="http://creativecommons.org/ns#"
   xmlns:rdf="http://www.w3.org/1999/02/22-rdf-syntax-ns#"
   xmlns:svg="http://www.w3.org/2000/svg"
   xmlns="http://www.w3.org/2000/svg"
   width="159.01459mm"
   height="160.60208mm"
   viewBox="0 0 159.01459 160.60208"
   version="1.1"
   id="svg8">
  <defs
     id="defs2">
	
	
	
	
	
	
</defs>
  <metadata
     id="metadata5">
    <rdf:RDF>
      <cc:Work
         rdf:about="">
        <dc:format>image/svg+xml</dc:format>
        <dc:type
           rdf:resource="http://purl.org/dc/dcmitype/StillImage" />
        <dc:title></dc:title>
      </cc:Work>
    </rdf:RDF>
  </metadata>
  <g
     id="layer1"
     transform="translate(-36.90937,-51.234673)">
    <path
       style="fill:#9a3737;fill-opacity:0.770968;stroke:none;stroke-width:0.264583px;stroke-linecap:butt;stroke-linejoin:miter;stroke-opacity:1"
       d="m 124.70894,148.44981 c -0.67354,-0.38132 -1.52347,-1.03575 -1.67615,-0.6271 -0.0296,0.0793 -0.36918,-0.2228 -0.59916,-0.44917 -0.98655,-0.97044 -1.28066,-1.50677 -0.95745,-1.77777 0.0639,-0.0533 0.14294,-0.0894 -0.1037,-0.35192 -0.1536,-0.16366 -0.45825,-0.36227 -0.33384,-0.44174 0.0689,-0.0432 0.26791,0.12853 0.43428,0.26916 0.39111,0.33062 0.75516,0.61672 0.72355,0.3028 -0.0216,-0.21931 -0.47436,-0.7601 -1.00539,-1.2127 -0.008,0.021 -0.0423,0.0329 -0.0201,0.0657 0.16029,0.23645 0.60211,0.58887 0.48733,0.70528 -0.0754,0.0765 -0.41085,-0.23231 -0.47798,-0.35237 -0.1702,-0.30341 -0.9171,-0.77193 -0.67697,-0.9372 0.10332,-0.0709 0.13881,-0.20015 0.0628,-0.43369 -0.0748,-0.23093 -0.25027,-0.476 -0.54092,-0.75068 -0.27132,-0.25641 -0.40614,-0.24214 -0.59959,-0.33887 -0.22016,-0.11006 -0.46305,0.27393 -0.9276,-0.68048 -0.0605,-0.12427 -0.2479,-0.26374 -0.36953,-0.31715 -0.22154,-0.0973 -0.30095,-0.0344 -0.30193,0.10545 -0.001,0.12231 0.12479,0.23079 0.33238,0.39273 0.7334,0.57186 1.11638,1.04458 1.14643,1.50781 0.0181,0.26827 0.28114,0.73384 0.44173,1.13033 -0.3236,-0.41045 -0.68427,-0.87677 -1.1286,-1.03471 -0.43353,-0.66262 -0.58421,-0.66257 -0.72447,-0.48243 -0.052,0.0665 -0.27601,-0.16957 -0.34342,-0.33228 -0.15621,-0.37694 -0.0471,-0.47116 0.41085,-0.22099 0.19587,0.10691 0.51347,0.29743 0.34517,-0.0168 -0.11798,-0.21998 -0.35353,-0.45965 -0.63286,-0.6953 -0.49506,-0.41713 -0.93198,-0.64951 -1.33734,-0.88865 -0.40454,-0.23872 -0.0356,0.16742 0.20816,0.40884 0.31108,0.30826 0.54598,0.56878 0.25059,0.51608 -0.0507,-0.009 -0.18102,-0.0715 -0.18469,-0.0766 -0.29972,-0.43595 -0.59442,-0.87067 -0.88121,-1.30205 -0.18196,-0.27378 -0.0918,-0.27814 0.12756,-0.18746 0.39022,0.16106 0.4918,0.0479 0.0888,-0.49283 -0.15602,-0.20919 -0.15972,-0.30647 -0.16597,-0.42261 -0.0252,-0.43656 -0.0917,-0.49541 -0.76742,-0.90228 -0.28993,-0.1744 -0.6539,-0.47825 -0.9793,-0.81617 -0.17352,-0.18007 -0.42998,-0.38716 -0.40978,-0.51624 0.0163,-0.10619 0.24867,0.11773 0.3908,0.20213 0.3618,0.21515 0.3595,0.20991 0.33359,-0.20577 -0.36696,0.24086 -1.17701,-0.66109 -2.04191,-1.18166 0.60651,0.14877 0.59293,-0.0723 -0.0399,-0.69697 -0.89333,-0.88189 -1.0836,-0.66114 -1.28955,-0.50527 -0.2812,-0.28174 -0.25302,-0.35833 -0.25121,-0.4435 0.004,-0.17258 -0.12668,-0.39427 -0.46156,-0.69732 -0.30265,-0.27388 -0.46503,-0.31879 -0.55768,-0.25259 -0.063,0.0448 -0.0766,0.17601 -0.31103,-0.0191 -0.25171,-0.20953 -0.048,-0.26435 -0.12414,-0.30074 -0.43582,-0.20825 -0.80454,-0.71817 -1.18664,-1.01502 -0.56371,-0.43837 -0.44927,-0.0595 -0.47407,0.24746 -0.58095,-1.03462 -1.19312,-1.50592 -1.85511,-1.70827 -0.19162,-0.47614 0.23106,-0.28345 0.42253,-0.32355 0.49389,-0.10197 0.4081,-0.34186 -0.63096,-1.2831 -0.97459,-0.88286 -1.84992,-1.90676 -2.88288,-2.70636 -0.42292,-0.32743 -0.56535,-0.76882 -1.11302,-1.24117 -1.10701,-0.95434 -1.2254,-1.05397 -1.43078,-0.64489 -0.0213,0.0407 -0.0523,0.0721 -0.0825,0.11228 -0.412963,-0.68472 -0.426193,-0.70036 -0.04299,-0.70265 0.195875,-0.002 0.212495,-0.13344 -0.162589,-0.4765 -0.711028,-0.65013 -1.29471,-1.41176 -2.050058,-2.01942 -0.205397,-0.16535 -0.504632,-0.46297 -0.527129,-0.61187 -0.07781,-0.50698 -0.6551,-0.76999 -0.857577,-0.85254 -0.605506,-0.24699 -0.592128,-0.48533 -0.570266,-0.65774 0.02178,-0.17099 0.06431,-0.30146 -0.284273,-0.69531 -0.210261,-0.13894 -0.220072,-0.0431 -0.304577,-0.0395 -0.338609,0.0165 -0.656713,0.0852 -1.26023,-0.92521 -0.14674,-0.24536 -0.394159,-0.41462 -0.605513,-0.53867 -1.012312,-0.59457 -1.830759,-1.47916 -2.653521,-2.4806 -0.517365,-0.62936 -1.032557,-1.31901 -1.812382,-1.82109 -0.288652,-0.18576 -0.592882,-0.53253 -0.667361,-0.79917 -0.04647,-0.1662 -0.06169,-0.32017 -0.365926,-0.6428 -0.03369,0.0151 -0.08923,0.006 -0.08986,0.0429 -0.0018,0.13831 0.20933,0.52258 -0.165551,0.24475 -0.259143,-0.19197 -0.553397,-0.61177 -0.590671,-0.80122 -0.05437,-0.2732 -0.149389,-0.34347 -0.518682,-0.57753 -0.304738,-0.19345 -0.904216,-0.60318 -0.978251,-0.89428 -0.08201,-0.32199 0.08828,-0.49853 0.787277,0.0197 0.319309,0.23679 0.820719,0.76236 0.880365,0.52132 0.05199,-0.21069 -0.346827,-0.67858 -0.684701,-1.08973 -0.488497,-0.59422 -0.991714,-1.12305 -1.596659,-1.4464 -0.60022,-0.32054 -1.134464,-1.02117 -1.629278,-1.51682 -0.977181,-0.97868 -1.971546,-1.92228 -2.963283,-2.86849 -0.332424,-0.31694 -0.665162,-0.66887 -0.94321,-0.92729 -0.90898,-0.84455 -1.822785,-1.772639 -2.778963,-2.487237 -0.165474,-0.123758 -0.259319,-0.159816 -0.23789,-0.05174 0.02728,0.136502 0.156289,0.340242 0.351977,0.520548 0.922721,0.84956 1.739091,1.84617 2.760294,2.58067 0.753242,0.54165 1.408984,1.37284 2.123787,2.05827 0.314241,0.30126 0.369017,0.58788 0.458514,0.83551 0.05229,0.14407 0.01362,0.19475 -0.199663,0.0383 -0.194403,-0.14261 -0.342729,-0.31784 -0.350298,-0.43009 -0.02194,-0.30848 -0.195664,-0.52509 -0.639998,-0.68934 -0.05943,-0.0218 -0.259276,-0.19136 -0.303822,-0.25756 -0.537972,-0.80165 -0.92588,-0.90697 -1.470483,-1.17784 -0.903917,-0.44943 -0.500873,-0.67515 -0.796496,-1.08997 -0.331317,-0.0844 -0.625016,-0.1098 -1.07465,-0.37477 -0.174127,-0.10257 -0.377228,-0.24114 -0.559007,-0.45454 -0.107889,-0.12681 -0.113893,-0.20519 -0.04841,-0.20193 0.382568,0.0172 0.178189,-0.21891 -0.394373,-0.636659 -0.165763,-0.121079 -0.242258,-0.255578 -0.270986,-0.361546 l -0.02169,-0.01141 c 0.594842,0.170708 0.333833,-0.700815 -0.487123,-1.453011 -0.880359,-0.806673 -1.78778,-1.787914 -2.651705,-1.995047 -0.305409,-0.07298 -0.963071,-0.577606 -1.207781,-0.460696 -0.09182,0.04398 -0.418447,-0.09711 -0.702088,-0.449592 -0.41124,-0.51098 0.09535,-0.106257 0.199007,-0.107351 0.186994,-0.004 -0.0024,-0.205625 -0.252227,-0.453781 -0.244028,-0.242424 -0.334187,-0.437608 -0.313107,-0.546132 0.02111,-0.105883 0.189176,-0.02007 0.41815,0.184508 0.239533,0.214245 0.520432,0.513861 0.609924,0.390307 0.04597,-0.06094 -0.06216,-0.240003 -0.232024,-0.404881 -0.306023,-0.296946 -0.68184,-0.749169 -0.919472,-0.778361 -0.161941,-0.01996 -0.141218,0.11937 -0.496522,-0.285558 -0.220312,-0.251397 -0.338922,-0.209316 -0.388999,-0.150937 -0.07922,0.09467 -0.155531,0.20595 0.182732,0.593705 0.22738,0.260598 0.510667,0.581892 0.290181,0.54285 -0.261871,-0.04603 -0.724091,-0.508071 -1.089876,-0.755762 -0.249553,-0.168766 -0.456348,-0.446282 -0.434704,-0.564207 0.03301,-0.179989 -0.152446,-0.551213 0.04578,-0.580561 0.146739,-0.02141 0.088,-0.148432 -0.147423,-0.413614 -0.143917,-0.162327 -0.290087,-0.357349 -0.454011,-0.420877 -0.186664,-0.0722 -0.05933,0.148462 -0.05177,0.254377 0.0078,0.11095 0.05785,0.255822 0.07986,0.378583 0.02217,0.124031 -0.129573,0.117103 -0.249314,-0.06783 -0.297955,-0.46171 -0.961231,-0.950668 -1.100255,-1.36903 -0.0675,-0.204037 -0.212614,-0.334848 -0.423547,-0.43283 -0.141708,-0.06578 -0.437286,-0.295146 -0.167772,0.07424 0.102228,0.140182 0.212518,0.29834 0.02817,0.202409 -0.07899,-0.0411 -0.278778,-0.21095 -0.306576,-0.261022 -0.449466,-0.810618 -1.303862,-1.317862 -1.946512,-1.93884 -0.529149,-0.511319 -0.967164,-1.223691 -1.694186,-1.607572 -0.134863,-0.07129 -0.707714,-0.898406 -1.023659,-1.357046 -0.08351,-0.120986 0.01344,-0.199279 0.295081,0.0405 0.02578,0.02205 0.05827,0.05591 0.07531,0.08015 0.991528,1.402281 1.677254,1.434088 2.550934,1.835872 -0.190383,0.309065 0.443846,0.993085 0.800996,1.523562 0.323666,0.481114 0.707783,0.591569 1.050334,0.795916 0.162989,0.09717 0.307108,0.06983 0.253926,0.02259 -0.538205,-0.475648 -0.463115,-0.779116 -0.972519,-1.271329 -0.94123,-0.909056 -1.817078,-1.991805 -2.839209,-2.46527 -0.216088,-0.100102 -0.409293,-0.381618 -0.546788,-0.59446 -0.317649,-0.492274 -0.864501,-1.050017 -1.244911,-1.28798 -0.770865,-0.482106 -1.365106,-1.090287 -2.021739,-1.812001 -0.822457,-0.904535 -1.758439,-1.681326 -2.640657,-2.521429 -0.340983,-0.324674 -0.886355,-0.734925 -0.482383,-0.755755 0.109808,-0.0054 -0.03208,-0.233759 -0.18297,-0.429342 -0.206508,-0.26788 -0.271525,-0.443084 -0.29345,-0.601433 -0.05524,-0.39592 0.536115,-0.355727 -0.509521,-1.422705 0.399242,-0.176338 -0.594653,-1.064859 -0.95021,-1.604541 -0.490157,-0.7441 -0.656016,-1.111241 -0.154536,-1.037784 0.228696,0.03339 0.437431,0.05638 0.54365,-0.04882 0.10046,-0.09936 0.03834,-0.244579 -0.293237,-0.639493 -0.558472,-0.664694 -0.98675,-1.2809 -0.655419,-1.450255 0.1946,-0.09906 -0.24018,-0.558202 -0.651844,-0.946244 -0.274912,-0.259111 -0.660998,-0.623845 -0.577716,-0.72602 0.101727,-0.122267 0.493974,0.273014 0.77576,0.566815 0.22464,0.234122 0.50027,0.59616 0.593311,0.460129 0.09407,-0.138361 -0.327884,-0.491963 -0.567864,-0.704418 -0.693165,-0.613936 -1.39123,-1.030957 -2.096219,-1.761706 -0.255038,-0.264091 -0.614923,-0.657929 -0.418604,-0.581777 0.699419,0.270472 -0.192842,-0.809517 0.159718,-0.824925 0.108033,-0.0046 -0.07164,-0.275727 -0.332632,-0.536399 -0.326011,-0.325923 -0.174371,-0.323143 -0.02099,-0.248828 0.769105,0.371503 0.427673,-0.277237 0.208519,-0.751915 -0.15872,-0.344125 -0.150712,-0.402738 0.206693,-0.200095 0.556922,0.316499 1.035844,0.573187 0.883294,-0.0082 -0.07368,-0.280339 0.642294,0.203375 0.967877,0.293644 0.128301,0.03547 0.247884,0.163779 0.163091,-0.04802 -0.189203,-0.47227 -0.488926,-1.057223 0.127751,-0.840464 0.03893,0.01349 0.04194,-0.0664 0.0052,-0.114113 -0.829994,-1.076188 -0.05763,-0.975677 -0.432159,-1.71836 -0.123766,-0.24576 0.03624,-0.226218 0.314102,0.03362 1.214692,1.135562 2.358283,1.723212 3.599261,2.868719 1.069552,0.987266 2.084681,1.953945 3.019702,3.025929 0.293311,0.336373 0.595315,0.666459 0.940014,0.861038 0.280728,0.158623 0.686473,0.509623 0.791155,0.677477 0.720798,1.152819 1.905025,1.815461 2.76024,2.744851 1.365718,1.483624 2.857235,2.887667 4.277724,4.20087 1.946718,1.799707 3.819965,3.672645 5.732185,5.492214 1.372196,1.305344 2.776518,2.603351 4.145375,3.886837 2.045701,1.917745 4.141003,3.804128 6.162537,5.755261 2.979099,2.875167 5.995089,5.680083 8.992944,8.513555 1.61612,1.52764 3.268765,3.02329 4.851809,4.58706 1.913608,1.89008 3.894906,3.66106 5.804336,5.56297 1.46093,1.45526 3.0128,2.82332 4.51427,4.24758 1.42756,1.35399 2.83935,2.73405 4.26306,4.09577 1.23341,1.17966 2.4631,2.38203 3.71548,3.51091 0.69598,0.6275 1.31446,1.29823 1.97185,1.93332 1.2042,1.16387 2.53292,2.19004 3.62055,3.39131 1.75131,1.93477 3.79424,3.50052 5.50956,5.43138 0.27379,0.3082 0.64843,0.65679 0.95904,0.89354 1.43833,1.0956 2.59403,2.50183 3.86513,3.76955 0.33464,0.3336 0.56223,0.62678 0.97716,0.89916 0.36717,0.24125 0.91158,0.69292 1.20838,1.04723 0.63199,0.75427 1.42081,1.32169 2.02306,2.03921 0.98627,1.17528 2.29992,2.07029 3.25992,3.27094 0.0853,0.10672 0.27428,0.24962 0.40029,0.33522 0.76249,0.51583 1.40954,1.22958 2.05573,1.93283 0.71589,0.77902 1.2991,1.59666 2.27395,2.22416 0.36172,0.2329 0.91224,0.91575 1.37214,1.39632 1.32247,1.38229 2.63362,2.77607 4.09658,3.99441 0.42453,0.35354 0.68574,0.75152 1.02606,1.12608 0.44738,0.492 0.7404,1.1153 1.40468,1.37341 0.027,0.0103 0.15459,0.15131 0.2077,0.22373 0.80369,1.09782 1.88059,1.99683 2.89265,2.93634 1.06867,0.99196 1.95694,2.08734 2.99068,3.08946 1.20884,1.17178 2.32439,2.40281 3.48129,3.59696 0.85337,0.88076 1.8687,1.71722 2.57809,2.6834 0.30666,0.41754 0.7357,0.72611 1.1051,1.07623 1.31433,1.24533 2.50267,2.5667 3.727,3.85408 1.58869,1.67039 3.29978,3.2482 4.83851,4.95033 0.67051,0.74171 1.33111,1.46696 1.7286,2.15983 0.0979,0.17087 0.21713,0.32145 0.38773,0.46031 1.10888,0.90193 2.07433,1.99984 3.03011,3.00275 1.30718,1.37129 2.62513,2.71271 3.96679,4.05408 0.53981,0.53967 0.73776,0.9715 0.60649,1.16273 -0.23851,0.34671 -0.48357,0.67988 0.002,1.629 0.0834,0.16289 0.0614,0.31653 -0.0476,0.31089 -0.41543,-0.0206 -0.31481,0.40263 -0.15595,0.86654 0.18473,0.53995 -0.19553,0.37384 -0.7775,-0.0498 -1.61038,-1.17235 -3.10565,-2.55742 -4.572,-4.19154 -1.46761,-1.63536 -3.09231,-3.20861 -4.69328,-4.77184 -0.66222,-0.64659 -1.14641,-0.94341 -1.18536,-0.5352 -0.0384,0.40388 -0.45089,0.49883 0.19862,1.46024 0.21365,0.31616 -0.17133,0.19 -0.32495,0.21466 -0.23035,0.0367 -0.28142,0.13645 0.17493,0.709 0.79636,0.99918 1.4569,1.97704 2.57965,2.95581 0.37153,0.32396 0.65681,0.65208 0.20888,0.52177 -0.44814,-0.1301 0.0487,0.53142 0.28914,0.83684 0.6559,0.83357 0.24054,0.62729 -0.17514,0.41884 -0.58081,-0.29101 -0.66477,-0.0947 -0.13241,0.55349 0.39342,0.47855 0.16738,0.43886 -0.0808,0.24733 -0.89063,-0.68639 -0.82046,-0.42548 -0.42092,0.2211 0.0687,0.11087 -0.0251,0.15174 -0.0598,0.20966 -0.0318,0.0537 -0.0224,0.17043 0.10628,0.28239 0.81274,0.70731 0.69714,1.09605 1.03407,1.50813 0.68609,0.83956 0.99508,1.48455 1.53028,2.23219 0.51789,0.72352 0.60651,0.77002 0.93939,0.5877 -0.0412,-0.0492 -0.0843,-0.11397 -0.12466,-0.14631 -0.23013,-0.18455 -0.50153,-0.18832 -0.67667,-0.59025 -0.10949,-0.25137 0.1324,-0.11283 0.34791,0.0398 0.38719,0.274 0.70873,0.60068 0.87861,0.95618 0.11831,0.24743 -0.13583,0.16927 -0.12087,0.31072 0.35488,0.41788 0.51433,0.28267 0.81667,0.60863 0.0634,0.26394 -0.133,0.27759 -0.35284,0.23918 -0.20906,-0.0367 -0.39678,-0.0824 -0.25604,0.22056 0.0303,0.0652 0.0597,0.16922 0.0344,0.15577 -1.09495,-0.58018 3.1e-4,0.5439 0.13108,0.91508 0.0276,0.0781 0.11364,0.2042 0.10368,0.24714 -0.0612,0.26031 -1.8824,-0.31436 -2.30564,-0.79296 -0.54285,-0.61361 -1.28103,-1.07835 -1.68962,-1.78141 -0.29135,-0.50127 -0.88616,-1.07732 -1.41317,-1.43047 -1.01897,-0.6825 -1.47147,-1.36123 -1.84172,-2.08929 -0.0295,-0.0584 -0.1092,-0.14557 -0.17545,-0.23243 -0.24114,0.35191 -0.24114,0.35191 -1.5883,-0.93842 0.69293,0.3187 0.6516,0.14344 -0.0996,-0.73615 -0.72565,-0.84995 -1.48873,-1.54323 -2.30459,-2.11354 -0.20341,-0.14221 -0.33656,-0.26978 -0.40587,-0.42172 -0.27987,-0.61517 -0.95636,-1.19298 -1.54572,-1.767 -0.24957,-0.24311 -0.46484,-0.45535 -0.63583,-0.71123 -0.19166,-0.28669 -0.37002,-0.78133 -0.53274,-0.79686 -0.24401,-0.024 -1.10704,-0.79015 -0.81162,-0.11877 0.0288,0.0655 -0.57485,-0.21751 -0.92768,-0.45057 -0.24573,-0.16239 -0.22428,-0.31549 -0.18615,-0.38826 0.0732,-0.14112 -0.0724,-0.41771 -0.37677,-0.76942 -0.0802,-0.0929 -0.29052,-0.23441 -0.37431,-0.26054 -0.3581,-0.11156 0.10034,0.39951 0.14504,0.62565 -0.33512,-0.23083 -0.49348,-0.46165 -0.6421,-0.72002 -0.62259,-1.082 -1.27951,-2.13171 -2.75641,-3.29172 -0.26392,-0.20707 -0.58461,-0.86546 -0.9138,-1.36874 -0.20064,-0.0377 -0.0827,0.21271 -0.1238,0.31117 -0.14915,0.36087 -1.00101,-0.13124 -1.7422,-1.03739 -0.36687,-0.44865 -0.69225,-0.59594 -1.0333,-0.89652 -0.49776,-0.43837 -0.8258,-0.78372 -0.5866,-0.90384 0.0935,-0.0468 0.27031,-0.0709 -0.10643,-0.4085 -0.31587,-0.28319 -0.80733,-0.82013 -0.94496,-0.60099 -0.0461,0.0735 -0.006,0.33403 -0.39773,-0.13577 -0.15302,-0.1832 -0.54409,-0.68432 -0.21184,-0.53769 0.75767,0.33385 0.4286,-0.1708 -0.0279,-0.80888 -0.18279,-0.25528 -0.17101,-0.4339 -0.4887,-0.74935 -0.19151,-0.12899 -0.19733,-0.0259 -0.1315,0.0702 0.58636,0.85864 0.13961,0.82689 -0.14574,0.91301 -0.32974,0.0996 -0.8445,-0.5703 -1.26991,-1.00125 -0.50635,-0.51299 -0.2215,-0.38522 -0.0366,-0.38717 0.19874,-0.002 0.1811,-0.25059 0.44364,-0.1987 0.0335,0.007 0.0511,-0.0127 0.0551,-0.0382 0.0244,-0.15729 -1.30597,-1.94452 -1.64505,-2.21679 -0.14468,-0.11589 -0.25078,-0.18632 -0.35515,-0.20673 -0.38992,-0.0768 -0.71304,-0.43847 -0.85714,-0.81128 -0.18111,-0.46912 -0.5723,-0.92467 -1.13345,-1.41365 -0.22574,-0.19656 -0.43656,-0.38175 -0.62974,-0.61387 -0.22439,-0.26991 -0.43431,-0.51031 -0.49519,-0.32103 -0.0234,0.0717 -0.1219,0.12616 -0.38521,-0.14089 -0.23652,-0.23993 -0.18308,-0.31686 -0.16074,-0.40518 0.0154,-0.061 0.0617,-0.1257 -0.006,-0.22349 -0.22864,-0.32873 -0.11701,-0.73995 -0.92183,-0.99694 -0.26882,-0.0859 -0.80395,-0.52809 -1.12124,-0.59644 -0.14692,-0.0315 -0.26938,-0.24702 -0.35157,-0.39977 -0.0886,-0.16391 -0.25583,-0.37188 0.0365,-0.21631 0.36484,0.19437 0.64436,0.26821 0.74248,0.0109 -0.51993,-0.14441 -1.14106,-0.791 -1.61712,-0.98244 -0.31479,-0.12645 -0.67359,-0.5757 -0.97893,-0.94028 -0.15618,-0.18631 -0.35503,-0.40762 -0.53286,-0.46592 -0.0649,-0.0213 -0.10367,0.0256 -0.0804,0.0916 0.0671,0.18954 0.27425,0.35066 0.47572,0.49987 1.02752,0.75968 1.05185,1.36888 1.6358,2.06202 -0.54,-0.10511 -0.0669,0.63737 -0.0622,0.98986 0.003,0.2192 -0.34922,-0.2923 -0.52102,-0.38069 -0.22139,-0.11386 -0.42655,-0.2972 -0.35109,-0.3952 0.0995,-0.13003 -0.15224,-0.50345 -0.1659,-0.70678 -0.007,-0.10651 -0.0632,-0.23393 -0.2651,-0.41297 -0.22641,-0.20093 -0.27437,-0.14976 -0.29221,-0.0685 -0.0251,0.11128 -0.25528,0.0266 -0.15513,0.25837 0.11334,0.26259 -0.0566,0.18494 -0.32958,-0.066 -0.25998,-0.23886 -0.37296,-0.43237 -0.28146,-0.50118 0.0446,-0.0337 0.14227,-0.018 0.15695,-0.0771 0.0498,-0.20206 0.0756,-0.38731 -0.58447,-0.9742 -0.71463,-0.6351 -1.13579,-1.2547 -1.26503,-1.78526 0.32931,0.44506 0.63304,0.70774 0.94331,0.80595 0.26455,0.084 0.49816,0.16902 0.3704,-0.1888 -0.12706,-0.356 -0.0484,-0.57088 0.11089,-0.69583 0.0822,-0.0643 0.15727,-0.12658 -0.11662,-0.49917 -0.45335,0.0684 -1.24502,-0.22468 -0.74014,0.77359 -0.49408,-0.49388 -0.61005,-0.7096 -0.67372,-1.13242 -0.0274,-0.18052 0.37004,-0.0457 0.0163,-0.43317 -0.32072,-0.35151 -0.83547,-0.82822 -1.11365,-0.97538 -0.43032,-0.22772 -1.04285,-0.99921 -1.36327,-0.88004 -0.12429,0.0465 -0.36198,-0.37658 -0.49509,-0.58881 -0.23625,-0.37784 -0.39668,-0.62296 -0.80509,-0.70497 -0.2536,-0.0509 -0.80904,-0.49262 -1.23571,-0.76319 -0.11764,-0.29359 0.41084,0.13383 0.2714,-0.13258 -0.12397,-0.23667 -0.4031,-0.40558 -0.60711,-0.58 -0.52153,-0.44583 -0.86623,-0.98262 -1.42233,-1.47293 0.5545,0.48057 0.38573,-0.006 0.77686,0.24242 0.10179,0.0647 0.006,-0.16729 -0.0957,-0.32213 -0.15498,-0.23678 -0.25694,-0.22806 -0.39848,-0.29664 -0.79261,-0.38428 -1.74042,-1.17683 -2.39144,-2.03049 -0.25617,-0.33617 -0.43493,-0.40614 -0.66736,-0.58961 -0.38365,-0.30283 -0.77361,-0.63715 -1.15814,-0.97318 -0.26945,-0.23557 -0.61155,-0.50857 -0.64638,-0.40507 -0.14808,0.44441 -1.03254,-0.28234 -1.73819,-0.71947 z m 2.43463,-6.13872 c -0.0417,-0.16224 -0.21944,-0.35196 -0.41636,-0.52977 -0.84775,-0.76524 -1.60631,-1.61717 -2.42826,-2.39974 -0.70314,-0.66948 -1.29037,-1.45652 -1.89574,-2.01809 -1.48973,-1.38185 -2.83548,-2.84913 -4.27291,-4.23477 -0.89301,-0.86077 -1.62439,-1.7996 -2.53705,-2.59874 -0.72363,-0.63357 -1.40427,-1.30946 -2.09504,-1.98014 -2.38278,-2.31323 -4.67978,-4.70094 -7.03255,-7.0396 -0.84317,-0.83805 -1.74786,-1.62892 -2.56989,-2.4758 -1.37791,-1.41948 -2.83071,-2.74411 -4.22457,-4.14364 -0.732708,-0.73547 -1.413901,-1.49918 -2.181774,-2.2217 -2.107038,-1.98305 -4.207517,-3.97151 -6.281755,-6.01436 -1.369398,-1.34861 -2.621138,-2.74964 -4.05838,-4.08494 -2.65086,-2.46312 -5.254047,-5.026368 -7.865409,-7.562382 -0.461042,-0.44782 -0.936896,-0.912211 -1.381752,-1.265348 -1.025363,-0.813653 -1.945319,-1.764522 -2.896238,-2.686468 -0.795013,-0.770778 -1.579274,-1.601663 -2.385256,-2.301946 -1.038163,-0.901704 -2.028928,-1.857731 -3.037327,-2.798451 -0.804145,-0.750109 -1.571339,-1.525097 -2.407317,-2.275753 -1.307534,-1.173974 -2.778811,-2.224773 -3.973756,-3.693479 -0.128265,-0.15768 -0.376462,-0.349249 -0.56127,-0.487616 -1.283014,-0.961418 -2.411778,-2.264929 -3.637409,-3.351456 -0.101615,-0.09022 -0.24349,-0.24044 -0.285082,-0.318233 -0.31508,-0.590805 -0.831593,-0.880092 -1.29429,-1.240427 -0.285834,-0.222738 -0.570662,-0.419964 -0.618505,-0.271695 -0.04529,0.141864 0.159751,0.433944 0.446404,0.701333 0.808311,0.753472 1.492772,1.839632 2.443545,2.232709 0.03333,0.01392 0.108011,0.08755 0.161091,0.137271 0.909911,0.856255 1.813384,1.726582 2.729875,2.564805 0.856811,0.783835 1.42703,1.744718 2.393954,2.444647 0.05886,0.04243 0.137712,0.159552 0.208277,0.242129 0.362915,0.426175 0.773054,0.770332 1.186981,1.147251 1.683308,1.531461 3.474797,2.944417 4.926497,4.765098 0.219388,0.275004 0.418706,0.370832 0.631634,0.53618 0.948902,0.737152 1.331408,1.186362 1.634488,1.983812 0.435719,-0.190904 1.047599,0.546135 1.692996,1.185804 0.427512,0.423749 0.905007,0.834695 1.366001,1.240901 1.246772,1.099208 2.499781,2.260286 3.448978,3.636065 -0.07291,-0.684954 0.615461,0.428835 0.933432,0.469985 -0.08753,0.165614 -0.655306,-0.332872 -0.430272,0.06512 0.194853,0.344081 0.521872,0.521277 0.820687,0.758624 0.609435,0.484199 1.340044,0.884628 1.682706,1.660874 0.05163,0.11705 0.276708,0.35828 0.336615,0.35307 0.301003,-0.0261 0.558966,0.0164 0.96284,0.75461 0.05252,0.0956 0.228089,0.13756 0.329807,0.17432 0.185184,0.067 0.392852,0.21269 0.617732,0.45559 1.183298,1.27851 2.449729,2.42344 3.732725,3.55282 0.322633,0.28391 0.636827,0.6067 0.970997,0.92687 -0.245502,0.0533 -0.978009,-0.7796 -1.034368,-0.40044 0.60158,0.2093 1.169941,0.89303 1.731905,1.35718 1.499711,1.23786 2.985597,2.44054 4.4335,3.97845 0.644018,0.68401 1.483884,1.27539 2.045868,2.07544 0.04249,0.0605 0.163157,0.15904 0.24208,0.21787 1.203438,0.89819 2.229516,2.17328 3.399165,3.1474 0.13196,0.11003 0.32534,0.29253 0.3829,0.38945 0.33952,0.57106 0.71484,0.8824 1.3699,1.45542 0.9481,0.82888 2.02861,1.76714 2.96329,2.80535 0.38214,0.42433 0.60731,0.82728 0.98876,1.2056 0.35997,0.35715 1.36253,1.28355 1.56845,1.53938 0.19313,0.23984 0.33896,0.39364 0.40654,0.27709 0.0578,-0.0968 0.23493,0.0901 0.37052,0.25682 0.29519,0.36348 0.63292,0.59801 0.95514,0.89118 0.67647,0.6157 1.37179,1.2325 1.96603,1.94177 0.12122,0.14478 0.39112,0.36593 0.20324,0.33934 -0.15915,-0.0228 -0.17987,0.0359 0.0625,0.2979 0.15963,0.17263 0.33295,0.32013 0.45622,0.33908 0.41897,0.0649 0.96784,0.57525 1.43704,1.0817 1.2849,1.3876 2.60687,2.72368 4.01086,4.00056 0.14379,0.13068 0.29859,0.33229 0.38989,0.47581 0.11427,0.17956 0.18234,0.2671 0.39503,0.39988 1.14094,0.71284 1.98462,1.94815 3.0297,2.88827 0.3741,0.33651 0.73478,0.8571 1.24601,1.17574 0.24596,0.15332 0.45438,0.42681 0.6712,0.68294 1.04208,1.23105 2.11236,2.43602 3.41873,3.18564 z m 16.79294,21.7966 c 0.2181,0.50484 0.64857,1.02661 1.11279,1.31339 0.71746,0.44282 1.33793,0.89184 1.95082,1.70715 0.18368,0.24427 0.36685,0.35018 0.48006,0.33511 0.13009,-0.017 0.11314,-0.1348 -0.17885,-0.42975 -0.31444,-0.31746 -0.63934,-0.63442 -0.93247,-0.95837 -0.37415,-0.41348 -0.66642,-0.73954 -0.95344,-0.70224 -0.14888,0.0197 -0.39419,-0.17092 -0.6213,-0.56055 -0.41201,-0.70718 -1.20429,-1.54889 -1.86771,-2.1387 -0.82588,-0.73439 -1.71384,-1.24798 -2.34277,-2.2478 -0.0892,-0.14183 -0.25658,-0.25115 -0.36979,-0.36866 -1.24331,-1.29086 -2.67223,-2.39093 -3.82727,-3.77385 -0.15472,-0.18524 -0.40093,-0.41536 -0.52573,-0.40874 -0.11279,0.006 0.0189,0.26496 0.13782,0.3956 0.79015,0.86786 0.83264,1.20105 0.35409,1.21039 0.83828,0.31523 2.07764,1.33987 2.36967,1.89978 0.44072,0.84473 1.69049,1.39289 1.73335,2.0237 0.10472,0.0706 0.21194,0.14616 0.31392,0.21067 0.23188,0.14613 0.45535,0.26799 0.6938,0.43399 0.5077,0.35379 1.12696,0.77374 1.44901,1.30194 0.44802,0.73377 0.69478,0.80801 1.024,0.75694 z M 108.4634,129.11834 c -0.28555,-0.29375 -0.56675,-0.59186 -0.85786,-0.87999 -0.26225,-0.2593 -0.52945,-0.46181 -0.60338,-0.35524 -0.11081,0.16012 0.10769,0.57137 0.3345,0.95625 0.21994,0.3729 0.55474,0.47783 0.81803,0.6527 0.96461,0.64043 2.31953,2.15019 2.51197,2.81106 0.0394,0.1366 -0.0911,0.2022 0.26744,0.48513 0.2634,0.20769 0.34306,0.13314 0.3413,0.008 -0.003,-0.25524 0.13424,-0.12662 0.5859,0.26816 0.81666,0.71341 1.56627,1.6022 2.42238,2.19103 0.19666,0.13518 0.4859,0.4605 0.54414,0.33956 0.0564,-0.11529 -0.19115,-0.44 -0.43156,-0.62799 -0.61598,-0.48136 -0.97425,-0.99808 -1.33245,-1.48204 -0.2972,-0.40187 -0.60599,-0.71748 -0.96739,-0.97979 -1.30971,-0.94947 -2.41718,-2.26951 -3.63314,-3.38738 z m 9.78913,10.61906 c 0.3089,0.22207 0.55515,0.41173 0.78596,0.56275 0.92802,0.60807 2.72281,2.29292 3.5219,3.24389 0.46631,0.55487 1.1182,1.17531 1.64261,1.54372 0.56634,0.39786 -0.17247,-0.40338 -0.0549,-0.47212 0.0558,-0.0327 0.49599,0.19772 0.0808,-0.20313 -1.1095,-1.0705 -2.15178,-2.28242 -3.36926,-3.15879 -0.22931,-0.16515 -0.6108,-0.40454 -0.5341,-0.56188 0.14396,-0.29501 -0.41005,-0.67255 -0.75166,-0.94731 -0.46658,-0.3753 -0.45404,-0.15189 -0.36316,0.10825 0.14888,0.42731 -0.0483,0.4202 -0.62667,-0.0349 -0.14309,-0.11248 -0.26279,-0.1729 -0.33148,-0.0805 z m 17.22298,16.22886 c -0.34957,-0.39296 -0.51077,-0.6916 -0.69662,-0.91348 -0.55683,-0.66382 -1.07937,-1.42683 -1.79085,-1.98304 -0.79037,-0.61763 -1.38622,-1.21031 -1.8783,-1.94107 -0.23181,-0.34447 -0.46735,-0.41619 -0.66797,-0.52965 -0.23072,-0.13088 -0.29547,-0.0413 -0.13264,0.19137 0.25145,0.35864 0.4516,0.73395 0.89514,1.11366 1.01287,0.86673 1.91396,1.81274 2.78078,2.79854 0.42024,0.47786 0.87488,0.88674 1.49047,1.26368 z M 89.267756,110.92039 c -0.330971,-0.3449 -0.734575,-0.65402 -0.971643,-0.72167 -0.206113,-0.0587 0.08208,0.34101 0.222932,0.57946 0.133906,0.22641 0.336943,0.43104 0.573254,0.54996 0.250293,0.12602 0.488957,0.29705 0.783913,0.60904 0.91952,0.97274 1.921712,1.76317 2.886148,2.63862 0.168058,0.15264 0.342365,0.27402 0.409736,0.22712 0.07769,-0.0549 -0.08458,-0.22347 -0.245153,-0.39405 -0.330589,-0.35158 -0.6617,-0.72412 -1.03281,-0.98411 -0.839029,-0.58721 -1.44732,-1.7532 -2.361421,-2.15694 -0.01713,-0.006 -0.154001,-0.20125 -0.264955,-0.34743 z m 26.925724,26.28902 c 0.17263,0.19993 0.41081,0.45965 0.52981,0.46143 0.65424,0.008 0.71312,0.60128 0.97325,0.95994 0.14087,0.19424 0.13949,0.38127 0.43262,0.57516 0.41589,0.27518 0.41317,0.057 0.46541,-0.0933 0.0444,-0.12713 -0.10877,-0.41117 -0.33976,-0.58095 -0.66066,-0.48528 -1.2423,-1.16688 -1.87502,-1.6666 -0.26318,-0.20783 -0.62692,-0.52077 -0.68193,-0.38922 -0.0504,0.12052 0.26483,0.46249 0.49561,0.7335 z"
       id="path1523" />
  </g>
</svg>
