<?xml version="1.0" encoding="UTF-8" standalone="no"?>
<svg
   xmlns:dc="http://purl.org/dc/elements/1.1/"
   xmlns:cc="http://creativecommons.org/ns#"
   xmlns:rdf="http://www.w3.org/1999/02/22-rdf-syntax-ns#"
   xmlns:svg="http://www.w3.org/2000/svg"
   xmlns="http://www.w3.org/2000/svg"
   width="159.27916mm"
   height="39.6875mm"
   viewBox="0 0 159.27916 39.6875"
   version="1.1"
   id="svg8">
  <defs
     id="defs2" />
  <metadata
     id="metadata5">
    <rdf:RDF>
      <cc:Work
         rdf:about="">
        <dc:format>image/svg+xml</dc:format>
        <dc:type
           rdf:resource="http://purl.org/dc/dcmitype/StillImage" />
        <dc:title></dc:title>
      </cc:Work>
    </rdf:RDF>
  </metadata>
  <g
     id="layer1"
     transform="translate(-29.967102,-97.673767)">
    <path
       style="fill:#9a3737;fill-opacity:0.770968;stroke:none;stroke-width:0.264583px;stroke-linecap:butt;stroke-linejoin:miter;stroke-opacity:1"
       d="m 165.11231,120.66291 c -0.52723,0.066 -1.09171,0.11096 -1.41501,0.27803 -0.12353,0.0637 -1.55214,0.0651 -1.86541,0.009 -0.10522,-0.0187 -0.19927,-0.0436 -0.35406,-0.0781 -0.0366,0.0965 -0.0134,0.18096 -0.32272,0.22445 -0.17603,0.0247 -0.19681,0.0938 -0.11102,0.14704 0.0833,0.052 0.24057,0.0819 0.44625,0.0733 0.37119,-0.0155 0.74178,-0.0298 1.11711,0.019 -6.66486,0.20171 -13.35691,0.3188 -20.01526,0.53296 0.0134,0.0451 0.0243,0.0902 0.0366,0.13551 6.57325,-0.15373 13.14886,-0.29482 19.74989,-0.34173 -0.30558,0.0584 -0.61884,0.10158 -0.99062,0.10916 -2.35244,0.0481 -4.71317,0.0752 -7.05379,0.15642 -2.56464,0.0888 -5.13755,0.13298 -7.70751,0.19486 -1.32752,0.0319 -2.65565,0.0621 -3.99265,0.0424 -0.63362,-0.009 -1.03908,0.0839 -0.99239,0.3226 0.65372,-0.0761 1.32458,0.0267 1.95348,-0.0738 0.13605,-0.0217 0.43797,1.9e-4 0.55737,0.0355 0.16732,0.0496 -0.0402,0.10537 -0.1595,0.16256 0.52486,-0.0249 1.0911,0.0238 1.40732,-0.16761 0.12644,-0.0765 0.25771,-0.005 0.3978,0.029 0.29021,0.072 0.59401,0.17213 0.82984,-0.0355 0.12645,-0.11114 0.5036,-0.0431 0.79737,-0.0329 0.42791,0.0151 0.98294,0.20785 1.2637,-0.0841 0.071,-0.074 0.36883,0.007 0.46871,0.0767 0.0858,0.0599 -0.10924,0.17519 0.34872,0.16382 0.31623,-0.008 0.43798,-0.005 0.47049,-0.14903 0.0273,-0.12016 0.69806,-0.20586 1.25425,-0.1207 0.66967,0.10248 1.26783,0.0413 1.84944,-0.0677 0.20932,-0.0391 0.32627,-0.0258 0.38065,0.0498 0.16129,0.22337 0.83044,0.31845 1.57341,0.23401 0.14901,-0.017 0.25948,-0.0853 0.4841,-0.0436 -0.34874,0.1355 -0.75776,0.19161 -1.3246,0.14236 -0.28548,-0.0248 -0.6673,0.0237 -0.56506,0.11547 0.28727,0.25872 -0.41906,0.24844 -0.77902,0.24844 -0.35051,1.8e-4 -0.47462,0.009 -0.62122,0.10483 -0.16307,0.10735 -0.53786,0.10627 -0.89369,0.1032 -0.61469,-0.005 -1.21817,-6.8e-4 -1.8252,0.0599 -0.77134,0.0772 -1.587,0.0187 -2.37313,0.005 -0.61824,-0.0112 -1.33876,0.1871 -1.8861,-0.0684 -0.065,-0.0301 -0.0342,0.0897 -0.24234,0.0897 -0.009,-0.0139 -0.0355,-0.029 -0.023,-0.04 0.0858,-0.0742 0.0999,-0.15913 -0.18207,-0.17483 -0.26124,-0.0146 -0.12175,0.12413 -0.38122,0.14109 0.27189,0.19107 -0.20329,0.11962 -0.47168,0.1281 -0.22697,0.007 -0.4557,0.0196 -0.67499,0.0388 -0.23525,0.0206 -0.24175,-0.0458 -0.32213,-0.0758 -0.1041,-0.0388 0.0223,-0.0913 0.11996,-0.092 0.47521,-0.003 0.51187,-0.0583 0.24766,-0.16184 -0.27248,-0.10681 -0.49887,-0.0614 -0.72228,0.0181 -0.0478,0.017 -0.11751,0.0282 -0.1289,0.0308 -0.2784,-0.35958 -1.41383,-0.0956 -1.96825,-0.24123 0.22874,-0.10229 0.52308,0.003 0.78316,-0.0258 -0.48823,-0.14415 -1.11771,-0.12863 -1.49717,0.0576 -0.24529,0.1207 -0.4965,0.19125 -0.96699,0.17772 -0.0739,-0.002 -0.15191,0.007 -0.22755,0.0115 0.1986,0.19757 -0.20039,0.21002 -0.69096,0.25675 -0.31682,0.0301 -0.27485,0.0852 -0.44862,-0.0325 -0.0585,-0.0394 -0.13717,-0.083 -0.24471,-0.0805 -0.18564,0.004 -0.11996,0.0487 -0.0744,0.0873 0.0514,0.0435 0.0134,0.0492 -0.12421,0.0243 -0.77902,-0.14199 -1.65674,-0.14615 -2.52325,-0.19089 -0.91143,-0.0469 -1.76551,0.0765 -2.70591,0.001 -0.46929,-0.0375 -1.26547,0.0101 -1.85416,0.11691 -0.31859,0.0579 -0.36883,-0.0215 -0.41375,-0.11096 -0.0603,-0.11908 -0.4173,-0.16942 -0.66733,-0.0783 -0.45925,0.16708 -1.11829,0.19973 -1.69516,0.23131 -0.73471,0.0402 -1.49599,-0.0312 -2.29333,0.0231 -0.37712,0.0258 -1.00423,-0.0754 -1.53323,-0.0477 -0.99831,0.0525 -2.01791,0.0233 -3.00795,0.0298 -1.50722,0.01 -2.99966,0.15191 -4.52815,0.0528 -0.52132,-0.0337 -1.1254,0.0655 -1.63016,-0.10698 -0.007,0.34497 -1.15082,0.009 -1.35413,0.23978 0.0726,0.0406 0.20865,0.028 0.32864,0.0325 0.16553,0.006 0.4427,-0.0372 0.47344,0.029 0.0532,0.11547 -0.31919,0.0175 -0.38065,0.0475 -0.25652,0.12486 -0.48467,0.24989 -1.15318,0.17159 0.34224,-0.0987 0.30795,-0.21345 0.16129,-0.32369 -0.0657,-0.0492 -0.85585,-0.0237 -1.33461,0.0388 0.23168,0.0967 0.65075,0.1604 0.61174,0.30023 -0.49294,0.10465 -0.38951,-0.2562 -1.08578,-0.0583 0.33395,-0.18891 0.52723,-0.31918 -0.34164,-0.2811 -0.22295,0.01 -0.51777,-0.11404 -0.76308,-0.18223 -0.11102,-0.0308 -0.0478,-0.0798 0.0201,-0.10862 0.10701,-0.046 0.25239,-0.0332 0.3972,-0.004 0.52665,0.10609 0.65787,0.0117 0.58161,-0.12449 -0.0337,-0.0606 -0.0608,-0.1 0.0994,-0.13857 -0.36231,-0.0677 0.55502,-0.19703 -0.0733,-0.21958 -0.30795,-0.011 -0.98946,-0.14903 -1.05328,0.14145 -0.0237,0.10754 -0.72997,0.12414 -0.85056,0.0325 -0.40251,-0.30582 -1.26428,-0.18457 -1.87368,-0.18763 -0.6673,-0.003 -1.37363,0.0842 -2.0173,0.18926 0.13649,0.0456 0.26894,0.0489 0.38538,0.0294 0.23702,-0.04 0.47994,-0.076 0.70278,-0.005 0.26657,0.0844 -0.0474,0.13587 -0.14834,0.20208 -0.0994,0.0651 -0.5296,0.1945 0.26066,0.13243 0.19212,-0.0151 0.51305,0.16112 0.89843,0.0282 0.069,-0.0238 0.16955,-0.0382 0.12711,-0.0736 -0.0585,-0.0483 -0.18855,-6.8e-4 -0.23879,-0.009 -0.2158,-0.0372 -0.48054,-0.0568 -0.17023,-0.17104 0.25121,-0.0924 0.56861,-0.0924 0.85588,-0.11728 0.0952,-0.008 0.19748,0.1088 0.27897,0.17321 0.16665,0.13099 0.34459,0.28236 1.02197,0.22355 -0.13761,0.11691 -0.16308,0.26739 -0.795,0.14091 -0.13247,-0.0265 -0.39128,-0.002 -0.58516,0.01 -0.45807,0.0273 -0.91791,0.10735 -1.33047,-0.0386 -0.1785,-0.0631 -0.2595,0.037 -0.31859,0.0343 -0.23881,-0.0106 -0.14833,0.14812 -0.39188,0.0778 -0.64545,-0.1862 -1.46527,-0.0456 -2.20113,-0.1097 -0.50892,-0.0444 -1.20341,-0.0906 -1.83349,-0.0554 -0.33986,0.019 -0.56151,0.0884 -0.83754,0.17591 -0.0887,-0.12792 -0.410796,-0.24465 0.11639,-0.31304 0.31977,-0.0415 0.6886,0.0752 1.03023,-0.001 -0.40606,-0.11999 -1.592333,-0.18277 -2.04272,-0.10158 -0.348139,0.0628 -0.263628,0.19306 -0.444489,0.28345 -0.07216,0.0359 -0.04781,0.13135 -0.176706,0.1115 -0.748284,-0.11511 -1.666795,0.0996 -2.170976,-0.0276 -0.48881,-0.12342 -0.502415,-0.002 -0.764837,0.0104 -0.310922,0.0145 -0.718149,0.11835 -1.046204,-0.0125 -0.123538,-0.0492 -0.339851,0.0151 -0.384776,0.008 -0.399565,-0.0664 -0.901377,0.19558 -1.245383,-0.0386 -0.04848,-0.0332 -0.323297,-0.026 -0.394829,0.0213 -0.188545,0.12413 -0.549686,0.0774 -0.805629,0.0664 -0.312664,-0.0135 -0.585139,-0.0554 -0.816844,0.0478 -0.04557,0.0202 -0.207535,0.0393 -0.265394,0.0299 -0.702779,-0.11403 -1.500723,-0.0486 -2.225953,-0.11457 -0.631248,-0.0576 -1.295022,-0.0501 -1.924504,-0.0359 -0.352272,0.008 -0.712832,0.0799 -1.123633,0.0902 -0.286661,0.007 -0.05138,0.1272 -0.196811,0.18241 -0.118176,0.0447 -0.156153,0.16203 -0.450387,0.0419 -0.566843,-0.23185 -1.598839,-0.27118 -2.416889,-0.0886 -0.309112,0.0691 -0.628299,0.10952 -1.030812,0.11511 0.0344,-0.0288 0.03664,-0.0473 0.06612,-0.053 0.206193,-0.0402 0.550892,0.0226 0.670274,-0.0774 0.08154,-0.0686 -0.0726,-0.13117 -0.210885,-0.16798 -0.255943,-0.068 -0.529602,-0.013 -0.782575,0.0247 -0.306766,0.0456 -0.73115,0.0545 -0.722884,0.20153 0.0022,0.041 0.03664,0.0846 -0.131133,0.0909 -0.136495,0.005 -0.225786,-0.0308 -0.274843,-0.0693 -0.285477,-0.22408 -0.648985,-0.38827 -1.549759,-0.22101 -0.132473,0.0247 -0.228757,-0.0249 -0.128229,-0.0689 0.194577,-0.0855 -0.164419,-0.1097 -0.213342,-0.17249 -0.06099,-0.0781 -0.361744,-0.12756 -0.692748,-0.105 -0.142973,0.01 -0.260658,0.031 -0.225183,0.0765 0.06255,0.0805 -0.08869,0.19936 0.392461,0.21272 0.258893,0.007 0.352272,0.037 0.05384,0.0837 -0.0449,0.007 -0.13359,0.0112 -0.134707,0.0175 -0.01564,0.0938 0.257709,0.24791 -0.359957,0.22716 -0.478177,-0.0161 -0.20798,-0.16852 -0.298478,-0.25675 -0.154366,-0.15065 -0.242339,-0.16166 -0.640719,-0.0687 -0.08623,0.02 -0.256525,0.024 -0.368245,0.014 -0.747681,-0.0655 -1.232359,0.029 -1.5746,0.22589 -0.08042,0.046 -0.256502,0.0756 -0.362325,0.0191 -0.138951,-0.0742 -0.346351,-0.0754 -0.565636,-0.0844 -0.141856,-0.006 -0.329217,0.007 -0.335137,-0.0653 -0.0045,-0.066 0.26126,-0.04 0.327452,-0.0976 -0.237022,-0.0581 -0.723465,-0.0277 -0.745335,-0.17718 -0.0067,-0.0542 -0.08757,-0.0327 -0.234074,-0.0143 -0.456887,0.057 -0.811527,0.13622 -0.968149,0.28778 -0.09584,-0.019 -0.177823,-0.0271 -0.219374,-0.0444 -0.274262,-0.11349 -0.422619,-0.45196 -0.93922,-0.0287 -0.120634,0.0989 -0.844032,0.13352 -1.075737,0.0314 -0.365877,-0.16148 -0.464573,-0.0318 -0.669091,0.0168 -0.193237,0.046 -0.385959,0.0899 -0.186088,0.17772 0.234654,0.10321 0.442121,0.0781 0.67854,3.7e-4 0.119293,-0.0391 0.277211,-0.0363 0.411986,0 0.07797,0.0211 0.165535,0.0533 0.03016,0.0738 -0.216246,0.0329 -0.422619,0.16834 -0.613532,0.0974 -0.372958,-0.13839 -0.573321,0.0285 -0.817448,0.0125 0.140069,-0.19757 -0.06791,-0.38521 -0.459836,-0.52107 -0.307369,-0.10645 -0.323901,0.0855 -0.310318,0.0913 0.193907,0.0823 -0.116389,0.0862 -0.188546,0.12449 -0.212672,-0.10537 -0.509497,0.0556 -0.682673,-0.015 -0.113485,-0.0462 -0.08444,-0.11637 0.02011,-0.17933 0.138281,-0.0836 0.890721,-0.20678 1.242412,-0.22517 0.926196,-0.0483 1.894368,-0.0595 2.787479,-0.0428 0.885404,0.0166 1.601788,-0.0231 2.354205,-0.1346 0.198598,-0.0294 0.388327,0.0561 0.649588,0.0684 0.679121,0.0321 1.341711,-0.18782 2.042121,0.0175 0.325688,0.0954 1.000096,0.0603 1.442798,-0.0177 0.579241,-0.10212 1.127765,-0.13856 1.742459,-0.0489 0.322739,0.0471 0.641323,0.10176 0.887795,-0.0397 0.126441,-0.0725 0.432649,-0.0558 0.553818,-0.0298 0.40133,0.0864 0.818051,0.043 1.13248,-0.005 0.68446,-0.10519 1.501907,0.0604 2.121337,-0.11565 0.0134,-0.004 0.06858,-0.004 0.07327,-0.001 0.37651,0.23292 1.178007,0.0299 1.707587,0.1557 0.261842,0.0623 0.695697,0.0994 1.1449,-0.019 0.244104,-0.0644 0.923247,-0.096 1.312178,-0.003 0.526051,0.1254 0.988255,0.0103 1.396085,-0.0269 0.514814,-0.0471 -0.241735,-0.12773 -0.12108,-0.21434 0.491179,0.0159 0.506549,0.13947 0.636587,0.25187 0.520131,-0.17772 1.332261,-0.0821 1.88608,-0.21543 0.08511,0.0704 0.02725,0.20623 0.255944,0.20136 0.602295,-0.0132 1.208143,0.14199 1.807467,0.003 -0.112814,-0.0505 -0.39246,-0.003 -0.446254,-0.1023 1.081076,-0.009 2.160365,0.0229 3.227233,-0.0269 0.04312,-0.002 0.140069,0.0233 0.14476,0.0379 0.06679,0.2129 0.664355,0.12304 1.018414,0.15714 0.205076,0.0196 0.627114,0.001 0.206863,-0.12341 -0.07864,-0.0232 -0.134707,-0.088 0.01117,-0.12539 0.04781,-0.0121 0.147218,-0.005 0.22344,-0.007 -0.268945,0.12575 0.245288,0.12286 0.331585,0.18944 0.107677,0.0834 0.272475,0.094 0.283109,0.0428 0.03194,-0.15101 0.515417,-0.0913 0.769574,-0.16364 -0.261239,-0.0408 -0.461021,-0.0718 -0.851716,-0.1328 0.351087,-6.8e-4 0.499444,-0.015 0.591639,0.001 0.244126,0.0424 0.449225,0.0217 0.473464,-0.0492 0.01787,-0.0523 -0.241155,-0.0528 -0.412566,-0.0651 -0.320952,-0.0229 -0.604664,0.003 -0.915563,0.015 -1.063919,0.0386 -2.159761,0.118 -3.198861,-0.0498 -0.07863,-0.0126 -0.147218,-0.0254 -0.261842,0.003 -0.563871,0.14253 -1.181536,0.17844 -1.844707,0.0608 -0.146547,-0.026 -0.406065,-0.0875 -0.438569,-0.0195 -0.09807,0.20514 -0.591662,0.09 -0.892508,0.12485 0.141185,-0.1023 -0.06032,-0.20297 -0.01564,-0.30239 0.02725,-0.0624 -0.06032,-0.0676 -0.194577,-0.0668 -0.09986,6.9e-4 -0.235838,0.002 -0.292581,0.0206 -0.488811,0.16094 -1.12953,0.26992 -1.640792,0.24213 -1.032019,-0.0561 -2.091783,-0.0733 -3.116116,-0.0781 -0.814476,-0.004 -1.659714,-0.003 -2.496061,0.0108 0.01787,-0.0119 0.0248,-0.0287 0.05384,-0.0338 0.05853,-0.0103 0.942146,-0.26973 1.088135,-0.31755 0.117059,-0.0385 0.306766,-0.041 0.433855,-0.0222 0.198599,0.0293 0.39541,0.0282 0.598744,0.0296 0.217587,0.001 0.545553,0.0889 0.618849,0.15678 0.154366,0.142 0.679724,0.13839 0.907878,0.11476 0.332188,-0.0343 0.9587,-0.0419 0.820396,-0.25332 -0.03909,-0.0594 0.09874,-0.13748 0.37059,-0.10429 0.819235,0.1 1.61776,-0.18673 2.462976,-0.006 0.106336,0.0227 0.546156,-0.0584 0.688012,-0.17825 -1.127162,0.003 -2.194633,-0.0707 -3.284556,0.0339 -0.693329,0.0666 -1.503091,-0.0751 -2.180448,0.0841 -0.526631,-0.18765 -1.220541,-0.0758 -1.824624,-0.0805 -1.13306,-0.009 -2.289777,-0.0388 -3.607272,0.12088 1.047969,0.0527 1.311575,0.33667 2.134339,0.45431 -1.02373,0.0635 -1.601207,-0.19648 -2.481294,-0.25079 0.06032,0.0826 0.106336,0.16617 -0.02301,0.24917 -0.05496,0.0352 -0.05741,0.0879 -0.206864,0.0734 -0.816263,-0.079 -1.581101,0.003 -2.356595,0.0583 -0.04133,0.003 -0.0945,-0.0101 -0.293161,-0.0336 0.58219,-0.14289 1.199855,-0.0936 1.753696,-0.11438 0.172685,-0.007 0.400749,0.0774 0.507129,-0.0262 0.04312,-0.0417 0.09405,-0.1032 0.02837,-0.13063 -0.130016,-0.0541 -0.341035,-0.0293 -0.548502,-0.022 -0.616481,0.0215 -1.236515,0.0536 -1.861284,-0.0143 -0.158387,-0.0171 -0.631828,0.0249 -0.391857,0.11331 0.356405,0.13135 -0.118176,0.17989 -0.206864,0.18656 -0.592846,0.0445 -1.182721,0.10843 -1.809835,0.0944 -0.101645,-0.002 -0.266578,0.003 -0.293765,-0.0119 -0.598743,-0.34191 -1.721192,-0.20929 -2.601883,-0.24646 -1.355315,-0.0572 -2.748452,-0.0254 -4.111452,-0.0722 -0.845216,-0.0288 -1.633711,-0.0159 -2.448187,0.0462 -0.453939,0.0346 -0.944537,0.0231 -1.417978,0.0361 -0.420832,0.0115 -0.887192,-0.002 -1.049131,0.16761 -0.01787,0.0201 -0.181397,0.048 -0.234073,0.0411 -0.965804,-0.12539 -2.03504,-0.0263 -3.002609,-0.13153 -0.223417,-0.0243 -0.436201,-0.0536 -0.600531,-0.12955 -0.282527,-0.13026 -0.721097,-0.20225 -1.260149,-0.12846 -0.125325,0.0171 -0.300265,0.0408 -0.352875,0.015 -0.453336,-0.22174 -1.331077,-0.0702 -1.897317,-0.20551 -0.174918,-0.0419 -0.526632,-0.0181 -0.797342,-0.0177 -0.09695,1.8e-4 -0.251207,0.0375 -0.281947,0.0282 -0.738834,-0.22661 -1.803334,-0.0558 -2.60778,-0.20207 -0.269526,-0.0491 -0.57216,0.0678 -0.939801,-0.017 0.449806,-0.0215 0.844054,-0.0421 0.774891,-0.2194 -0.02234,-0.0559 0.245891,-0.11132 0.523683,-0.0433 0.540839,0.13243 1.210511,0.0195 1.805121,0.076 0.200386,0.019 0.487627,-0.0179 0.379459,-0.12179 -0.06322,-0.0604 0.04379,-0.17158 -0.420831,-0.13135 -0.145877,0.0126 -0.352875,-0.0406 -0.57569,-0.0693 0.381224,-0.10735 0.718126,0.009 1.047366,-0.0128 0.145877,-0.01 0.381827,0.0469 0.356404,-0.0561 -0.01117,-0.0417 0.03239,-0.1124 -0.206863,-0.0962 -0.37593,0.0254 -0.635984,-0.14163 -0.966988,-0.062 -0.142973,0.0344 -0.188546,0.0469 -0.346375,0.0278 -0.666722,-0.081 -1.364184,-0.0363 -2.048041,-0.0501 -0.773707,-0.0157 -0.68799,0.1447 -0.57866,0.24754 0.143643,0.13478 -0.167323,0.18079 -0.356405,0.21886 -0.231102,0.0466 -0.318584,-0.0584 -0.389512,-0.10663 -0.128228,-0.087 -0.02949,-0.15282 0.323901,-0.15318 0.325688,-3.7e-4 0.206864,-0.0713 0.199268,-0.11783 -0.0134,-0.0794 -0.177822,-0.0792 -0.384798,-0.0617 -0.546134,0.046 -1.029628,0.0132 -1.432744,-0.11457 -0.06143,-0.0195 -0.127112,-0.043 -0.261842,-0.0262 -0.367038,0.0455 -0.633615,0.14235 -1.09582,0.14651 -0.459858,0.004 -0.897244,-0.0653 -1.339968,-0.0171 -0.169557,-0.0662 0.217587,-0.1539 -0.05026,-0.18584 -0.242339,-0.0288 -0.667326,-0.0404 -0.791444,0.0344 -0.300846,0.18132 -0.898428,0.11601 -1.333446,0.17573 -0.543788,0.0747 -1.162034,0.10266 -1.756064,0.13712 -0.47286,0.0274 -0.917327,-0.0155 -1.368317,-0.07 -0.367641,-0.0445 -0.745335,0.0199 -1.091687,0.0691 -0.463992,0.0659 -0.913798,0.15246 -1.441033,0.0529 -0.07037,-0.0134 -0.203289,0.046 -0.163748,0.014 0.223417,-0.18006 0.08981,-0.44421 1.089922,-0.46009 0.161962,-0.003 0.388328,-0.0308 0.53492,-0.13531 -0.992992,0.12088 -1.876631,-0.0349 -2.841251,-0.003 -0.587529,0.0191 -1.429796,-0.006 -2.091782,-0.11222 -0.133591,-0.0215 -0.327453,-0.0166 -0.28608,-0.081 0.02837,-0.044 0.0898,-0.10104 0.198598,-0.1216 0.126442,-0.0238 0.34519,-0.0522 0.462808,0.0207 0.148334,0.0917 0.290212,0.0679 0.533735,0.0204 0.390093,-0.076 0.832214,-0.0363 1.263702,-0.0134 0.221161,0.0117 0.461623,-0.007 0.690938,-0.0173 0.05496,-0.003 0.126442,-0.0265 0.141186,-0.0445 0.03262,-0.0395 -0.07149,-0.0617 -0.174248,-0.057 -0.325085,0.015 -0.582793,-0.0445 -0.871822,-0.0624 -0.300868,-0.0188 -0.739437,-0.0258 -0.737069,-0.10772 0.0022,-0.0783 0.15727,-0.20496 0.56921,-0.23635 0.07082,-0.005 0.114602,-0.0442 0.174919,-0.0691 -0.609981,-0.0936 -1.190406,0.0825 -1.815756,-0.0128 -0.232286,-0.0354 -0.08578,0.16094 -0.43915,0.18855 0.176035,0.087 0.670856,-0.01 0.73468,0.13676 -0.25829,-0.0112 -0.461624,-0.079 -0.729363,-0.0646 -0.343403,0.0186 -0.589294,0.0181 -0.332769,-0.12251 0.04959,-0.0273 0.04021,-0.10789 -0.222279,-0.0732 -0.267739,0.0354 -0.332769,0.004 -0.421412,-0.0729 -0.258312,-0.22481 -0.277814,-0.22283 -0.785524,-0.0826 0.289609,-0.21109 0.294926,-0.19919 0.997124,-0.23022 0.501812,-0.0222 1.003044,0.0552 1.533808,-0.0164 -0.161961,0.075 -0.471073,0.14758 -0.235235,0.2268 0.187429,0.0631 0.49768,0.10843 0.820977,0.055 0.216247,-0.0359 0.446857,-0.0222 0.676776,-0.0258 0.211555,-0.003 0.688012,0.0404 0.339873,-0.11998 -0.105219,-0.0486 0.0089,-0.0752 0.13292,-0.083 0.170227,-0.0106 0.310296,-0.002 0.217587,0.0736 -0.05674,0.0464 0.07149,0.0799 0.194577,0.0808 0.123537,6.8e-4 0.241155,-0.0332 0.201056,-0.0785 -0.143643,-0.15986 0.12242,-0.1438 0.496495,-0.12738 0.211555,0.009 0.586345,0.0659 0.630667,-0.0877 0.02011,-0.072 0.084,-0.10789 -0.252392,-0.11078 -1.301522,-0.0114 -2.590624,0.0193 -3.878563,0.0734 -0.223418,0.009 -0.757153,0.0926 -0.45099,-0.11836 0.09047,-0.0621 -0.177823,-0.15517 -0.305582,-0.12847 -0.409595,0.0857 -0.953987,-0.0252 -1.295603,0.10754 -0.16844,-0.067 0.06322,-0.11674 0.03909,-0.17844 -0.04133,-0.10501 -0.147664,-0.19108 0.511866,-0.12197 0.499444,0.0523 1.259546,-0.0579 1.795649,-0.12756 0.590478,-0.0769 1.170323,-0.0494 1.735959,-0.098 0.271894,-0.0233 0.582793,-0.005 0.818631,-0.0743 0.196812,-0.0583 0.325688,-0.0211 0.504181,0.0218 0.442702,0.10664 0.860585,-0.005 1.28852,-0.0308 -0.07082,-0.0752 0.395432,-0.09 0.254157,-0.13207 -0.305582,-0.0913 -0.87477,-0.14361 -0.16777,-0.28723 0.04423,-0.009 -0.08221,-0.0543 -0.195694,-0.0509 -0.212672,0.006 -0.491179,-0.0298 -0.586926,0.0662 -0.05429,0.0547 0.0869,0.13965 -0.32982,0.1373 0.09517,-0.14055 -0.02547,-0.25638 -0.571557,-0.14777 -0.251788,0.05 -0.182067,-0.0227 -0.211555,-0.0308 -0.102315,-0.0276 -0.042,-0.0587 0.08221,-0.0637 0.573924,-0.0233 0.634799,-0.10104 0.421434,-0.26018 -0.238206,-0.17753 0.278395,-0.12539 0.770736,-0.1622 -0.620614,0.15914 -0.286058,0.21453 0.05607,0.2692 0.07394,-0.14344 0.832214,-0.35941 1.329893,-0.36031 0.29553,-5.4e-4 0.579845,-0.033 0.589898,-0.10555 0.01564,-0.11384 -0.32924,-0.0496 -0.521338,-0.0558 -0.728781,-0.0227 -1.45343,-0.0233 -2.157393,0.0518 -0.04781,0.005 -0.113485,0.0187 -0.141856,0.0135 -0.517763,-0.0936 -0.98057,-0.0458 -1.503069,0.0156 -0.231706,0.0272 -0.303214,-0.11475 -0.420832,-0.20081 0.248818,0.0716 0.458653,0.0969 0.728782,0.0269 0.36467,-0.0947 -0.06679,-0.13478 -0.147217,-0.19739 0.236419,-0.0445 0.49234,-0.059 0.645433,-0.001 0.183854,0.0693 0.281343,0.0882 0.41375,-0.003 0.07037,-0.0486 0.538449,-0.0709 0.125995,-0.15065 -0.221608,-0.043 -0.0974,-0.0906 -0.103432,-0.142 -0.0067,-0.0646 -0.184972,-0.11024 -0.346352,-0.044 -0.335137,0.13712 -0.711648,0.11835 -1.178007,0.0807 -0.238184,-0.0193 -0.536685,-0.0415 -0.81566,0.005 -0.117506,0.0193 -0.335138,0.0209 -0.356427,-0.0473 -0.02011,-0.064 0.12242,-0.11584 0.322739,-0.10484 0.965201,0.0531 1.910899,0.004 2.717132,-0.13928 0.480523,-0.0855 1.069236,0.0368 1.446327,-0.1189 -0.197481,-0.0863 -0.493547,-0.01 -0.745336,-0.0548 -0.03597,-0.0805 0.447438,-0.0478 0.342823,-0.14939 -0.01787,-0.002 -0.09584,-0.0218 -0.135378,-0.0162 -0.300265,0.0425 -0.685041,0.0341 -0.895457,0.13027 -0.153696,0.0702 -0.33927,-1.9e-4 -0.368825,-0.0115 -0.259496,-0.10049 -0.463411,-0.0702 -0.69038,0.009 -0.01787,0.007 -0.154143,0.0523 -0.228154,0.008 -0.01117,-0.007 0.187429,-0.0357 0.196811,-0.0579 0.04021,-0.0915 -0.717545,0.0294 -0.397196,-0.1216 0.173801,-0.0817 0.396012,0.0729 0.673223,0.0487 0.199716,-0.0175 0.274262,-0.0576 0.205077,-0.10248 -0.124654,-0.0814 -0.174918,-0.11963 0.197481,-0.15787 0.342242,-0.0352 0.514233,-0.004 0.706331,0.0629 0.206194,0.0718 0.215129,0.0729 0.368222,-0.0175 0.167323,-0.0987 0.414934,-0.0534 0.675591,-0.0473 0.02234,0.0942 -0.537868,0.0722 -0.365273,0.15769 0.224602,0.11114 0.594611,1.9e-4 0.913195,0.0153 0.447438,0.0213 0.03261,-0.0862 0.07863,-0.12521 0.19279,-0.1631 0.757756,-0.13351 1.124213,-0.13874 1.091687,-0.0155 2.142024,-0.15589 3.255582,-0.0974 0.09628,0.005 0.283131,-0.0276 0.315635,-0.0552 0.07796,-0.0657 -0.185642,-0.029 -0.226367,-0.0518 -0.216916,-0.12124 0.383011,-0.0314 0.332167,-0.13135 -0.642485,0.0193 -1.247729,-0.0318 -1.930425,0.003 -0.713412,0.0363 -1.511938,0.0294 -2.264958,0.0146 -0.606428,-0.0119 -1.066868,-0.17988 -1.134847,-0.33072 -0.05093,-0.11366 0.536685,-0.22679 0.975254,-0.27821 0.125324,-0.0146 0.498863,-0.0235 0.538471,-0.0106 0.872403,0.28507 1.151982,-0.0709 1.685114,-0.14074 0.09226,-0.0121 0.162632,-0.0469 0.252995,-0.0514 0.732312,-0.0352 1.467617,-0.0655 2.21885,-0.0981 -0.202173,-0.10375 -0.45452,-0.21255 -0.637168,-0.33127 -0.29258,-0.18998 -0.128899,-0.3659 0.527816,-0.41551 0.64722,-0.0491 1.249516,-0.20984 2.006088,-0.11006 0.190332,0.0251 0.435017,-0.013 0.659038,-0.0399 0.244707,-0.0294 0.593426,-0.0832 0.811527,-0.0274 0.688593,0.17555 0.461624,-0.0307 0.589294,-0.10392 -0.633035,-0.0696 -1.314524,0.0902 -1.853576,-0.0796 -0.254157,0.10645 -0.641904,0.0679 -0.966385,0.0707 -0.455726,0.004 -0.766625,-0.0996 -1.069839,-0.18963 -0.0449,-0.0134 0.0012,-0.065 0.147217,-0.0601 0.07149,0.002 0.173802,0.0334 0.200386,0.0271 0.303817,-0.072 1.002463,0.0171 0.969959,-0.13424 -0.02658,-0.12359 -0.618849,-0.061 -0.969356,-0.0649 -0.154366,-0.002 -0.309715,0.004 -0.463992,0.009 -0.219374,0.007 -0.411382,-0.002 -0.527235,-0.0684 -0.09159,-0.0528 -0.0067,-0.0926 0.118176,-0.12214 0.2158,-0.0511 0.40133,-0.008 0.536104,0.0366 0.453336,0.15101 0.910246,-0.0567 1.357661,0.007 0.09695,-0.13712 0.510682,-0.22247 0.665561,-0.33524 0.301427,-0.21921 0.822161,-0.15913 1.247729,-0.11926 0.499444,0.0469 1.022546,0.0673 1.520226,0.14164 0.319768,0.0478 0.920879,-0.0478 1.342314,-0.11169 0.170227,-0.0258 0.02011,-0.10175 -0.216917,-0.13549 -0.244707,-0.0349 -0.446254,0.0119 -0.655508,0.0159 -0.80029,0.015 -1.429773,-0.15228 -2.216481,-0.15949 -0.591081,-0.005 -1.117713,-0.0226 -1.606524,0.15733 0.04133,-0.41227 -1.169719,-0.59306 -1.675083,-0.90266 0.0869,-0.0139 0.147217,-0.0293 0.164195,-0.0256 0.56624,0.12034 0.575108,0.13387 1.318076,0.0844 0.581028,-0.0386 1.046785,0.11133 1.616576,0.0604 0.219821,-0.0196 0.659038,0.0864 0.531949,-0.10934 -0.02725,-0.0421 0.329239,-0.0475 0.469308,-0.031 0.356427,0.0417 0.698065,-0.002 1.06097,-0.002 -0.299081,-0.14452 -0.824529,-0.083 -1.231778,-0.11421 -0.916746,-0.0702 -1.875446,-0.0444 -2.814063,-0.11854 -0.484678,-0.0382 -0.425568,-0.30058 -1.081076,-0.19539 0.02234,-0.0186 0.04602,-0.0536 0.06434,-0.0532 0.414353,0.007 -0.218034,-0.16744 0.348139,-0.16383 1.70227,0.0106 3.401592,-0.13839 5.111548,-0.011 0.191002,0.0143 0.216246,-0.002 0.394247,-0.13352 0.328034,0.008 0.04557,0.18079 0.404278,0.15697 0.560923,-0.0372 0.770758,-0.18763 0.960488,-0.32007 -0.557371,-0.22318 -1.281439,-0.0783 -1.933977,-0.092 -0.06322,-0.001 -0.156153,0.0123 -0.193236,0.028 -0.35464,0.14904 -0.955171,0.2176 -1.620709,0.17718 -0.474626,-0.0289 -0.942169,-0.0718 -1.432164,-0.0512 -0.137165,-0.0969 0.553238,-0.04 0.288448,-0.18187 -0.36409,-0.1954 -0.780208,0.0247 -1.184508,-0.052 0.336321,-0.0835 0.74299,-0.10537 1.085789,-0.0882 0.479965,0.0241 0.744755,-0.041 0.966408,-0.14145 0.543766,-0.24646 1.319259,-0.42039 2.030304,-0.61399 0.105219,-0.0287 0.330401,-0.0301 0.263025,-0.0909 -0.248237,-0.22517 0.309715,-0.0621 0.420251,-0.11006 0.218034,0.10248 -0.456888,0.0967 -0.1566,0.20099 0.244707,0.0848 0.44154,0.0339 0.66851,-0.001 0.47286,-0.0727 0.587507,0.0538 0.780788,0.13532 -0.03954,0.0135 -0.07908,0.0271 -0.118846,0.0406 -0.543185,0.1346 -1.176801,0.18765 -1.856525,0.16293 -0.200386,-0.007 -0.3978,-0.001 -0.588713,-0.0104 -0.459256,-0.0217 -0.368222,0.0962 -0.384195,0.15427 -0.02658,0.0972 0.25534,0.087 0.491179,0.092 0.760705,0.0159 1.566915,0.0385 2.271459,-1.8e-4 0.644852,-0.0354 1.186875,0.11367 1.808673,0.0166 0.331586,-0.0518 0.659038,0.003 0.751837,0.16112 0.05853,-0.21723 0.528418,-0.14975 0.870637,-0.15101 0.952803,-0.003 1.926292,-0.037 2.852488,0.0117 0.758337,0.0399 1.464667,-0.1761 2.251956,-0.003 0.139399,0.0308 0.694513,-0.17159 1.219961,-0.15354 l -0.0045,-6.8e-4 c 0.247075,0.14217 0.687409,0.0985 1.075759,0.1032 0.650169,0.008 1.31926,0.0588 1.909135,-0.077 0.189215,-0.0435 0.229337,-0.004 0.316819,0.0439 0.115942,0.0633 0.295529,0.11728 0.466337,0.1696 0.102762,0.0316 0.251208,0.0835 0.388328,0.0477 0.115942,-0.0303 0.141856,-0.0938 0.201502,-0.14326 0.06746,-0.0561 0.0089,-0.0881 -0.195024,-0.0982 -0.12175,-0.006 -0.366457,0.0224 -0.293161,-0.0603 0.05607,-0.0629 0.218033,-0.033 0.37651,-0.0262 0.948669,0.0408 1.89792,0.02 2.851906,0.0139 0.855849,-0.005 1.709933,-0.046 2.57349,-0.0435 0.557973,0.001 1.296205,0.0496 1.872497,-0.10627 0.27013,-0.0729 0.757756,-0.2138 1.110609,0.003 0.117729,0.0722 0.247656,0.0273 0.368825,0.009 0.263026,-0.04 0.124208,-0.10249 0.102762,-0.16293 -0.02368,-0.0682 -0.09405,-0.085 -0.326849,-0.0906 -0.741806,-0.0179 -1.482986,0.0209 -2.088834,0.1263 -0.479361,0.0833 -0.987093,-0.0538 -1.37837,0.0713 -0.01117,0.004 -0.09047,-0.0177 -0.135824,-0.017 -0.380062,0.007 -0.623585,-0.0666 -0.602899,-0.18422 0.0012,-0.008 0.0134,-0.015 0.0134,-0.0226 -6.03e-4,-0.0891 -0.639536,-5.5e-4 -0.433253,-0.14001 0.151239,-0.10248 0.452755,-0.0148 0.667304,-0.0349 0.25534,-0.0238 0.492363,-0.0453 0.770154,-0.0565 1.17622,-0.0466 2.359544,-0.009 3.536367,-0.0617 1.512519,-0.0675 3.046931,-0.0639 4.576025,-0.0489 0.195024,0.002 0.336903,0.0344 0.452174,0.0796 l 0.0022,-0.001 c -0.146547,0.003 -0.290793,0.0375 -0.279556,0.0681 0.07975,0.21777 -0.45099,0.2277 -0.889559,0.22517 -1.026099,-0.006 -2.049226,0.0922 -3.084774,0.002 -0.13359,-0.0115 -0.496496,0.043 -0.494128,0.14867 0.0018,0.0982 0.249421,0.10013 0.432069,0.0882 0.71578,-0.0466 1.50957,0.0608 2.16624,-0.10211 0.07216,-0.0179 0.211555,-0.041 0.26126,-0.0319 1.016046,0.1862 2.001933,-0.0134 2.998476,-0.0246 0.543789,-0.006 1.110028,0.0447 1.644948,-0.0359 0.09628,-0.0145 0.268342,-0.006 0.37059,0.0112 0.539052,0.0904 0.530787,0.0339 1.143716,0.0294 0.543788,-0.004 1.292653,-0.19251 1.754277,0.0853 0.131803,0.0794 0.42912,0.0314 0.560923,-0.0344 0.247655,-0.12395 0.667906,-0.12991 0.922063,-0.0617 0.660222,0.17719 1.284991,0.0655 1.867181,-0.005 0.39838,-0.0483 0.78434,-0.0974 1.329312,-0.11457 -0.43562,-0.10807 -0.582793,-0.26287 -1.149635,-0.28543 -0.138952,-0.005 -0.436202,-0.0188 -0.275424,-0.12323 0.103432,-0.0677 0.09271,-0.19847 0.406646,-0.1586 0.988858,0.12576 1.892603,-0.0913 2.881462,-0.0359 0.593426,0.0332 1.249515,-0.0469 1.549178,0.25981 0.180279,-0.15841 0.23347,-0.32783 0.780788,-0.17303 0.136047,0.0385 0.27663,-0.013 0.394247,-0.0435 0.286661,-0.0745 0.764838,-0.0911 0.936852,-0.0426 0.493525,0.13928 0.852297,0.0567 1.259547,-0.0161 0.260657,-0.0466 0.542023,-0.0325 0.825735,-0.0308 1.157298,0.007 2.314596,0.0126 3.472496,0.011 0.71047,-6.8e-4 0.94394,0.14632 1.15967,0.29211 -1.0515,0.0945 -2.116,0.001 -3.071751,-0.0397 -0.907297,-0.0391 -1.583469,0.16887 -2.405653,0.0545 0.372378,0.0758 0.714016,0.14524 1.150798,0.13911 0.263025,-0.003 0.517785,0.013 0.638351,0.098 0.09338,0.0659 0.209322,0.0962 0.37593,0.0245 0.437385,-0.18765 0.994755,-0.13568 1.491255,-0.0507 0.39306,0.0671 0.83223,0.0909 1.22293,0.10339 0.58692,0.019 1.22764,-0.0269 1.01544,-0.30528 1.17801,0.0906 2.28625,0.17862 3.39981,0.25891 0.22933,0.0166 0.27839,-0.11006 0.62063,-0.0794 0.6413,0.0572 1.76373,0.0316 2.51025,-0.0132 0.25476,-0.0153 0.59166,-0.0817 0.76365,0.0584 0.0223,0.0177 0.31327,0.12395 0.50655,-0.006 0.16732,-0.11276 0.21401,0.0357 0.34932,0.0285 0.26008,-0.0137 0.71283,0.19125 0.76839,-0.0745 0.0201,-0.0922 0.38123,-0.0357 0.45984,0.006 0.18385,0.0985 0.45573,0.14669 0.74831,0.0983 0.2701,-0.0447 0.107,-0.13063 5.8e-4,-0.20568 -0.14365,-0.10122 0.0844,-0.16635 0.35524,-0.20334 0.2979,-0.0406 0.37296,0.0308 0.48526,0.0987 0.0692,0.0421 0.14118,0.153 0.41196,0.0846 0.23763,-0.0599 -0.0313,-0.11872 -0.13538,-0.18151 0.65196,0.12323 1.58229,0.0855 2.00728,0.35797 -0.51719,0.088 -0.9197,-0.0328 -1.35355,-0.0799 -0.13069,-0.0143 -0.33749,-0.0704 -0.28903,0.0162 0.0384,0.0689 -0.41965,0.072 -0.1394,0.14397 0.39838,0.1023 2.4021,0.15048 2.83417,0.0619 0.11415,-0.0233 0.24884,-0.0567 0.22636,-0.13315 -0.38951,0.0498 -0.6803,-0.0114 -1.06686,-0.0769 0.34163,-0.064 0.99654,0.0283 0.82218,-0.18764 -0.0266,-0.0325 0.1117,-0.0486 0.21982,-0.05 0.91556,-0.0123 1.81694,0.0202 2.70237,0.0906 0.11281,0.009 0.20798,0.0368 0.21267,0.0862 0.009,0.079 0.15436,0.11584 0.28724,0.0778 0.59048,-0.16978 1.35531,-0.19071 2.08115,-0.21201 0.67559,-0.0198 1.36181,0.089 2.06401,0.009 0.0585,-0.007 0.22049,0.0711 0.32743,0.10736 -0.20038,0.0958 -0.5745,-0.0411 -0.74828,0.065 -0.0927,0.0568 0.26363,0.23545 0.47404,0.23545 1.45817,5.4e-4 2.89623,-0.11926 4.36324,-0.0657 0.22758,0.008 0.28785,-0.0561 0.40017,-0.094 0.47994,-0.1613 0.9386,-0.15011 1.13956,0.0469 0.0809,0.0798 0.13605,0.0673 0.34282,0.0653 0.51837,-0.005 0.41849,-0.12413 0.50063,-0.26486 0.18095,0.15788 0.70515,0.16202 0.85943,0.15589 0.61056,-0.0243 1.05563,0.0565 1.54031,0.13081 0.41964,0.0642 0.81034,0.0543 1.17563,-0.0477 0.25003,-0.0698 0.5349,-0.0909 0.90609,-0.0713 0.63836,0.0339 1.29326,0.0334 2.04036,-0.1225 -0.2015,0.1474 -0.36409,0.27208 0.23644,0.22354 0.46102,-0.0374 0.58869,0.0965 0.90078,0.15787 0.20574,-0.11439 0.0574,-0.20604 -0.15549,-0.2986 0.93152,0.007 1.58642,0.22481 2.46356,0.21002 0.305,-0.005 0.61472,0.014 0.89961,-0.0402 0.29672,-0.0565 0.555,-0.029 0.85704,0.0199 0.24647,0.0399 0.63953,0.18727 0.84286,-0.0349 0.0661,-0.0722 0.27603,-0.0182 0.3582,0.0125 0.16084,0.0597 0.30734,0.12539 0.4167,0.19486 0.34516,0.21921 0.92677,0.20676 1.5876,0.1797 0.82216,-0.0335 1.57163,-0.10826 2.25964,-0.24953 -0.14834,-0.10212 -0.52074,-0.001 -0.67914,-0.0976 0.53847,-0.19377 1.36063,-0.17032 2.05572,-0.23996 0.0413,-0.004 0.13784,0.0209 0.17447,0.0389 0.16599,0.0816 -0.43267,0.044 -0.24234,0.16995 0.22519,0.14885 -0.2187,0.0453 -0.37119,0.0539 -0.28371,0.0162 -0.64545,0.002 -0.71165,0.12378 -0.0893,0.16382 0.39365,0.0684 0.58635,0.10735 0.13001,0.0265 0.34517,0.0155 0.52308,0.0185 0.14543,0.003 0.29139,0.001 0.5296,0.002 -0.39069,0.16165 -0.88127,0.11709 -1.27197,0.10608 -0.33808,-0.01 -0.66495,-0.007 -0.99122,0.004 -0.25829,0.009 -0.64249,0.011 -0.32332,0.14958 0.042,0.0184 -0.0223,0.0586 -0.0306,0.0889 -0.0156,0.0522 -0.49768,0.0523 -0.18787,0.13423 0.27247,0.072 0.50536,-0.0115 0.62711,-0.064 0.1146,-0.0494 0.28313,-0.077 0.35169,-0.0494 0.51424,0.20695 0.62772,0.0639 0.95989,-0.0639 0.43738,-0.16815 1.15198,-0.0475 1.56633,0.0145 0.58338,0.0873 1.08698,0.0734 1.5941,0.0213 0.48645,-0.05 0.78493,-0.0567 0.84819,0.18223 0.4031,-0.25909 0.78255,-0.19324 1.24655,-0.0781 0.37414,0.0929 0.81626,0.16852 1.36242,0.12143 0.19614,-0.017 0.35166,-0.0274 0.2766,-0.10177 -0.0349,-0.0341 -0.16375,-0.0666 0.0496,-0.0882 0.19323,-0.0196 0.33985,0.0184 0.36704,0.0567 0.18787,0.26541 0.93093,0.11872 1.11534,0.081 0.87477,-0.17862 1.79212,-0.29265 2.83475,-0.31954 0.0491,-0.001 0.0958,-0.0104 0.1814,-0.0204 -0.30853,-0.11348 -0.66436,-0.0646 -1.07337,-0.0213 0.36114,-0.11349 0.96815,-0.14885 1.23946,-0.0587 0.29553,0.0983 0.45334,0.0913 0.71223,-0.001 0.0797,-0.0285 0.29081,-0.0316 0.44152,-0.0314 0.47167,5.5e-4 0.9463,0.0686 1.40261,-0.0539 0.0981,-0.0263 0.55087,-0.009 0.75952,0.0936 0.19681,0.0974 1.31689,0.11205 1.5882,0.0424 0.21334,-0.0548 0.21334,-0.0548 0.13605,-0.22499 0.37591,0.21958 0.78376,0.30005 1.4428,0.16238 0.12644,-0.0265 0.59637,-0.0478 0.60998,0.0973 0.0134,0.13189 0.21982,0.11908 0.47049,0.0543 0.65372,-0.16888 1.28439,-0.1797 1.96411,-0.0399 0.33159,0.0682 0.7016,0.0211 1.04974,0.007 0.13895,-0.005 0.25534,-0.0548 0.40427,-0.002 0.097,0.0343 0.0538,0.0644 -0.0456,0.0731 -0.16487,0.0145 -0.1117,0.13045 -0.37946,0.0799 -0.40962,-0.0774 -0.57984,-0.0438 -0.71815,0.0949 -0.14543,0.14507 0.22755,0.15138 0.45097,0.19685 0.15303,0.0312 0.30205,0.0588 0.39838,0.12485 -1.42327,0.16816 -3.20357,-0.0698 -4.42648,0.35833 0.36527,0.0338 0.74828,0.0428 0.98294,-0.0164 0.2382,-0.0601 0.62416,-0.0514 0.66732,-0.0428 0.96107,0.19395 2.08763,-0.0691 3.04812,0.10897 0.24528,0.0455 0.39011,-0.0534 0.5686,-0.0969 0.46989,0.65044 1.15909,-0.0435 1.72296,0.0354 0.12711,0.0823 -0.43146,0.18278 0.0697,0.25332 0.0156,0.002 0.0272,0.019 0.0179,0.0211 -0.41491,0.11024 -0.65725,0.22932 -0.56032,0.4166 0.0248,0.0485 -0.37651,0.11132 0.0538,0.18277 0.14945,0.0249 0.17916,0.11728 0.26361,0.17881 -0.23347,0.0108 -0.40312,0.0648 -0.6821,0.059 -1.00481,-0.0207 -2.00253,-0.0523 -3.02684,-0.0252 -0.4102,0.0108 -0.72997,0.0361 -1.10056,0.067 1.03318,0.30653 2.25017,0.13369 3.37202,0.15913 0.1767,0.004 0.34045,-0.009 0.49649,0.0278 0.39838,0.0947 0.75776,0.1 1.07042,-0.0413 0.10701,-0.0483 0.34046,-0.078 0.45573,-0.0302 0.17916,0.0743 -0.0431,0.0821 -0.23644,0.0825 -0.0395,0 -0.10701,0.0123 -0.11461,0.0224 -0.25476,0.32008 -1.08226,0.28796 -1.87605,0.29969 -0.18966,0.003 -0.38893,-0.0682 -0.55147,-0.003 -0.30795,0.12251 -0.59637,0.24845 -0.97999,0.35273 -0.0992,0.0269 0.12354,0.0832 0.20217,0.0568 0.25593,-0.0861 0.67323,0.0299 0.9392,-0.10123 0.25003,-0.12323 0.31208,0.11999 0.67028,0.0617 -0.35641,-0.2719 0.90669,-0.0587 0.75183,-0.32531 0.24708,0.11728 -0.14766,0.16167 0.0797,0.20948 0.17202,0.0363 0.28195,-0.01 0.39247,-0.0413 0.12175,-0.035 0.29908,-0.0639 0.41138,-0.0278 0.48704,0.15607 1.20814,0.11944 1.681,0.0949 0.56624,-0.0292 0.56801,0.13514 0.99771,0.1521 0.4439,0.0175 0.89311,0.0171 1.33818,0.0318 0.77312,0.0252 1.54978,-0.0859 2.31875,0.009 0.0492,0.006 0.15191,-0.002 0.18385,-0.0143 0.49118,-0.19125 1.24597,0.007 1.7992,-0.11385 0.11639,-0.0254 0.13181,0.0501 0.17202,0.0832 0.0621,0.0501 0.0596,0.0922 -0.14945,0.10807 -0.22228,0.017 -0.44565,0.0402 -0.64072,-0.0209 -0.18095,0.0814 -0.68386,-0.25981 -0.69154,0.0491 -0.51955,-0.043 -0.99063,0.0651 -1.51373,0.0421 -0.44565,-0.0196 -0.88009,0.0287 -0.95812,0.17519 -0.0927,0.17375 0.16799,0.27623 1.04323,0.18313 -0.54081,0.13749 -0.96225,0.1613 -1.38368,0.1806 -0.18743,0.009 -0.4037,0.0146 -0.41789,0.079 -0.0179,0.085 0.26363,0.0684 0.42973,0.0958 0.33277,0.055 0.6608,-0.005 0.98115,0.0182 0.13649,0.01 0.32037,-0.0507 0.39838,0.009 0.0757,0.0576 -0.0833,0.0913 -0.23818,0.12792 -0.18207,0.043 -0.34519,0.0913 -0.65196,0.10068 0.90848,0.24196 1.91329,0.21344 2.90865,0.19486 0.23228,-0.004 0.24884,0.0447 0.2565,0.0906 0.0134,0.0769 0.23289,0.1 0.37298,0.0935 0.33572,-0.0153 0.0923,-0.0689 0.0319,-0.10844 0.39424,-0.0126 0.77075,-0.0832 1.18037,-0.0391 0.14186,0.0153 0.30972,0.035 0.39423,0.0691 0.51128,0.20803 1.20932,0.30222 1.98598,0.21417 0.75776,-0.0859 1.08934,0.0873 1.61481,0.18366 -0.59521,-0.043 -0.91438,0.019 -1.13485,0.19198 -0.25949,0.20352 -0.52073,-0.0285 -0.79618,-0.0299 -0.0898,0.0681 0.26303,0.22842 -0.48586,0.13279 -0.63243,-0.0808 -1.4339,-0.0435 -2.16152,-0.0462 -0.22342,-6.8e-4 -0.57569,-0.0352 -0.64604,0.074 -0.0744,0.11566 0.29021,0.13171 0.5302,0.1687 0.10813,0.0166 0.23879,0.0195 0.39836,0.0316 -0.22992,0.11475 -0.81861,-0.009 -0.95043,0.16473 0.6094,0.011 1.21051,0.008 1.7933,0.038 0.3044,0.0156 0.89488,-0.0273 0.70515,0.19125 -0.11416,0.13171 -0.0603,0.11367 -0.49828,0.0841 -0.35167,-0.0237 -0.67381,-0.0599 -1.14312,-0.0229 -1.14371,0.0902 -1.87605,0.3843 -2.96892,0.46694 0.0876,-0.20894 0.0876,-0.20569 0.75539,-0.21543 0.23524,-0.003 0.53018,0.0227 0.56624,-0.11042 0.0331,-0.12142 -0.21401,-0.1503 -0.46281,-0.15047 -0.73528,-3.6e-4 -1.47117,0.0166 -2.20645,0.0278 -0.10455,0.001 -0.26894,0.024 -0.22697,0.0449 0.35759,0.17916 -0.27602,0.30275 -0.24944,0.45864 0.007,0.0431 -0.23642,0.1097 0.0751,0.13423 0.21089,0.0166 0.38064,-0.0249 0.42496,-0.0769 0.0858,-0.0996 0.3582,-0.12359 0.69923,-0.18944 -0.3499,0.26251 0.16732,0.24646 0.66438,0.23761 0.40251,-0.007 0.81624,-0.0354 1.20459,-0.0157 0.58751,0.0298 1.4209,-0.006 1.19867,0.32206 0.51068,-0.0419 1.02078,-0.0282 1.03968,-0.24159 0.004,-0.0477 0.28963,-0.188 0.74357,-0.0991 0.43739,0.0857 0.68799,-0.0629 0.96875,-0.11313 0.32154,-0.0575 -0.0923,-0.10988 -0.21155,-0.15552 -0.18922,-0.0724 -0.007,-0.12883 0.10343,-0.16365 0.14722,-0.0462 0.33101,-0.005 0.45573,0.0393 0.35759,0.12918 0.21624,0.31303 -0.34224,0.39134 -0.26185,0.0368 -0.30972,0.10608 -0.35464,0.16653 -0.0579,0.0788 0.20865,0.0339 0.31918,0.052 0.0592,0.01 0.15772,0.0332 0.1508,0.0374 -0.0413,0.0258 -0.0952,0.0631 -0.168,0.0687 -0.68975,0.0536 -1.30684,0.18277 -2.03504,0.19107 -0.73705,0.008 -1.52375,-0.1622 -2.22772,0.0687 -0.0491,0.0161 -0.92324,0.10375 -1.20637,-0.092 -0.0302,-0.0209 -0.3174,-0.0343 -0.33159,-0.0262 -0.47757,0.27497 -1.15198,-0.0164 -1.71172,0.0522 -0.12354,0.0151 -0.49708,0.048 -0.62003,-0.0595 -0.0255,-0.0224 -0.21156,-0.0491 -0.23819,-0.0121 -0.21155,0.29554 -1.00778,0.12178 -1.53856,0.2055 0.5166,0.0101 0.72525,0.27515 1.44221,0.13081 0.13426,-0.0271 0.36172,-0.031 0.52724,-0.0198 0.72818,0.0494 1.45933,0.066 2.19995,0.0436 0.25534,-0.008 0.45628,0.0104 0.57274,0.0985 -0.33101,5.4e-4 -0.61295,0.10717 -0.97349,0.003 -0.16308,-0.0471 -0.31503,0.0206 -0.43386,0.0614 -0.0891,0.0307 -0.18095,0.0687 -0.10164,0.10483 0.10231,0.0466 0.27779,0.0332 0.4226,0.0156 0.36411,-0.0442 0.58929,0.12882 1.08934,-0.0188 -0.43207,0.26685 -1.0196,0.18692 -1.50662,0.20785 -0.15794,0.007 -0.41967,-0.014 -0.39838,0.0704 0.0156,0.0642 0.23168,0.0444 0.37532,0.0464 0.55206,0.008 1.10411,0.015 1.63134,0.0218 -0.6354,0.14668 -1.41266,0.21272 -2.19876,0.27442 -0.20463,0.0161 -0.25889,0.074 -0.22816,0.13225 0.0438,0.0828 -0.19569,0.12395 -0.27365,0.18837 -0.0987,0.0817 -0.2654,0.0262 -0.36056,0.008 -0.1957,-0.0383 -0.002,-0.0529 0.0775,-0.0738 0.0941,-0.0249 0.18386,-0.0511 0.27545,-0.0767 -0.22639,-0.0648 0.26953,-0.12865 0.0295,-0.17646 -0.19972,-0.0399 -0.39957,0.009 -0.50418,0.0696 -0.23113,0.13261 -0.66259,0.0996 -1.26962,0.10916 0.80563,0.0991 0.87713,0.32711 1.45106,0.3834 -1.42388,0.0958 -2.20111,0.5346 -3.6977,0.59757 0.30676,0.11132 0.79321,-0.007 0.93033,0.15354 -0.30322,0.0344 -0.6342,0.0483 -0.9392,0.017 -0.33217,-0.0341 -0.58398,-0.004 -0.87477,0.0359 -0.4362,0.0595 -0.86059,0.0501 -1.31868,-0.0187 -0.5893,-0.0886 -1.21109,0.0135 -1.82107,0.0198 -1.44812,0.015 -2.84067,0.16473 -4.3,0.16148 -0.42381,-6.8e-4 -0.85292,0.0419 -1.27081,0.0752 -0.13113,0.0104 -0.44033,-0.0126 -0.34398,0.081 0.0525,0.0512 0.22161,0.0965 0.42733,0.0573 0.16665,-0.0318 0.32095,-0.0453 0.50181,-0.0233 0.12823,0.0749 -0.38951,0.0421 -0.20753,0.10916 0.0844,0.0312 0.28371,0.0763 0.46223,0.0142 0.22578,-0.0787 0.3564,-0.043 0.52544,0.0287 0.31445,0.13315 -0.24765,0.055 -0.25178,0.10519 -0.0156,0.23419 -0.92325,0.18403 -1.17328,0.34317 z m -43.71643,1.61751 c -0.60053,-0.10699 -1.15614,-0.13893 -1.83113,-0.0983 -0.56152,0.0339 -1.1904,0.0953 -1.74306,0.0642 -1.83821,-0.1032 -3.69002,-0.0408 -5.52706,-0.0545 -1.37422,-0.0103 -2.75259,0.002 -4.13627,-0.0209 -1.52023,-0.0251 -3.04459,0.0794 -4.58195,0.002 -0.37769,-0.019 -0.91735,-0.0862 -1.08047,-0.0608 -1.00423,0.15715 -2.00785,0.011 -3.000265,0.0357 -1.226461,0.0307 -2.460608,0.0539 -3.702439,0.05 -1.083421,-0.003 -2.169211,0.12251 -3.272135,0.0399 -0.364089,-0.0272 -0.291396,0.0816 -0.468124,0.12522 9.793973,0.0879 19.577293,0.0734 29.342903,-0.0826 z m 37.21411,-1.94191 c -0.45985,0.0718 0.19793,0.13694 0.32035,0.15516 0.43502,0.0648 0.8937,-0.0466 1.37306,-0.0179 0.14007,0.008 0.1767,-0.081 0.19748,-0.15896 -0.31859,0.0485 -0.6289,0.0812 -0.87361,-0.07 0.49947,0.0933 0.93035,0.0198 1.34881,0.0361 0.31446,0.0121 0.0156,-0.16112 0.21871,-0.085 0.2571,0.0965 0.61174,0.0934 0.88837,0.15389 0.34401,0.0752 0.76366,0.16293 0.7347,0.2793 -0.0384,0.15571 0.18676,0.201 0.55796,0.24375 0.2044,-0.0415 -0.0442,-0.16941 0.37237,-0.1714 0.23642,-0.001 0.56448,0.0965 0.70102,-0.0537 -0.43799,-0.0801 -1.03852,-0.0522 -1.40024,-0.20659 0.62356,0.10086 1.32871,-0.118 1.93455,0.07 0.10924,0.0339 0.25534,0.002 0.32096,-0.0321 0.12353,-0.0646 0.2636,-0.11115 0.53431,-0.10898 0.12242,6.8e-4 0.27308,-0.007 0.27129,-0.0599 -0.002,-0.0561 -0.1595,-0.0481 -0.28074,-0.055 -0.76957,-0.0436 -1.54091,-0.0848 -2.30693,-0.13406 -0.28963,-0.0186 -0.64249,0.0312 -0.69688,0.0637 -0.38715,0.23221 -0.75124,0.0451 -0.99063,-0.0137 -0.3635,-0.0893 -0.70336,-0.12485 -1.15671,-0.1041 -0.76187,0.035 -1.47883,0.12269 -2.31225,0.077 -0.41789,-0.0229 -1.13485,0.0563 -1.17091,0.29337 0.61353,0.0318 1.15909,0.0171 1.41503,-0.10085 z m -40.41474,2.41047 c 0.28903,-0.0583 0.88422,0.0159 0.85645,-0.0825 -0.0378,-0.13568 -0.60171,-0.0846 -0.9599,-0.0933 -0.0509,-0.001 -0.10276,0.002 -0.15437,0.003 -1.18569,0.009 -2.37786,-0.003 -3.55526,0.0327 -1.04974,0.0318 -2.10834,-0.0421 -3.15276,0.0532 -0.46457,0.0424 -0.26715,0.0973 -0.13113,0.15877 0.15481,0.0702 0.41257,0.0633 0.63422,0.0478 0.78908,-0.0552 1.55688,0.002 2.32822,0.035 0.27129,0.0117 0.54674,0.014 0.71636,-0.0492 0.38775,-0.1447 0.93804,-0.1382 1.40261,-0.11331 0.69036,0.037 1.35177,-0.0447 2.01554,0.008 z m -73.192319,-2.53894 c -1.318679,0.001 -2.478346,0.0767 -3.645697,0.0395 -0.101198,-0.003 -0.473441,0.005 -0.455726,0.0924 0.02011,0.098 0.317422,0.0938 0.529603,0.0826 0.432672,-0.0229 0.734702,-0.0164 0.759521,0.15426 0.0022,0.0204 0.157717,0.31719 0.643087,0.0579 0.07685,-0.0408 0.198599,-0.0305 0.330402,-0.008 0.6159,0.10393 1.254832,0.009 1.883131,0.0139 0.09159,6.8e-4 0.208651,-0.003 0.237603,-0.0449 0.03731,-0.0538 -0.111697,-0.0597 -0.207534,-0.0821 -0.342241,-0.0803 -0.719935,-0.0982 -1.131317,-0.0673 -0.178493,0.0134 -0.408411,0.0229 -0.403698,-0.0507 0.0045,-0.0568 0.188546,-0.04 0.358795,-0.0282 0.402514,0.0279 0.712229,-0.033 1.10174,-0.15931 z m 52.318216,-10.86625 c -1.209327,0.0251 -2.391444,0.0511 -3.574165,0.0729 -0.294949,0.005 -0.670878,0.0581 -0.605848,-0.13116 0.0449,-0.13136 -0.475809,-0.12017 -0.696278,-0.11277 -0.536684,0.0181 0.09338,0.0662 0.01564,0.11277 -0.04669,0.0278 -0.06099,0.0536 -0.170227,0.066 -0.283712,0.0323 -0.390696,0.0933 -0.265974,0.1806 0.13426,0.0936 0.369406,0.0843 0.675569,0.0882 0.90198,0.0117 1.784435,-0.0494 2.693497,-0.0344 0.660222,0.0108 1.62721,0.14001 1.928056,-0.24213 z m 35.764233,13.45445 c 0.66199,-3.7e-4 0.72997,-0.0947 0.73174,-0.28616 0.002,-0.21452 -0.39778,-0.079 -0.59815,-0.11258 -0.59876,-0.10032 -0.35819,0.0844 -0.49649,0.13153 -0.30855,0.10519 -0.32095,-0.2618 -0.70278,-0.0334 -0.12063,0.072 -0.46459,0.10014 -0.76012,0.083 -0.42852,-0.0247 -0.83459,0.01 -1.24536,0.031 -0.17783,0.009 -0.48587,-0.0238 -0.47581,0.0704 0.009,0.0832 0.34161,0.0662 0.49826,0.074 1.00657,0.0498 2.02735,0.0523 3.04871,0.0422 z m -4.0027,0.0171 c -0.0963,-0.10465 -0.55855,-0.12557 -0.37533,-0.23725 0.0574,-0.0352 0.42202,-0.015 0.25771,-0.10086 -0.10633,-0.0556 -0.32921,-0.0245 -0.49886,-0.0233 -0.47936,0.004 -0.96167,0.004 -1.43511,0.0229 -0.21044,0.008 -0.51305,-0.0186 -0.6277,0.0559 -0.18318,0.11872 0.48466,0.0274 0.37533,0.16708 -0.34164,-0.0681 -0.70633,-0.0481 -1.07042,-0.0399 -0.34046,0.008 -0.24413,0.12467 -0.18922,0.12268 0.68504,-0.026 0.10522,0.11998 0.31917,0.18837 0.53373,-0.15011 1.41797,0.001 1.92984,-0.21976 0.0822,-0.0357 0.17782,-3.6e-4 0.14766,0.0357 -0.11102,0.13333 0.23171,0.0758 0.3523,0.0673 0.25887,-0.0182 0.48821,-0.0781 0.81447,-0.0389 z M 169.79,111.47278 c -0.28076,0.30817 -0.23702,0.34046 0.47639,0.33703 0.69452,-0.003 1.46704,-0.0202 2.0386,-0.088 0.63716,-0.0758 1.12716,-0.0758 1.71706,-0.0325 0.16911,0.0125 0.38064,-0.0198 0.41669,-0.076 0.0485,-0.0763 -0.25415,-0.0963 -0.36114,-0.0916 -0.46457,0.0202 -0.91911,-0.0267 -1.40082,0.009 -0.34579,0.0256 -1.21701,0.13298 -0.7217,-0.21578 -0.77431,0.0927 -1.36123,0.28218 -2.16508,0.15769 z m -46.58371,11.35972 c 0.68388,0.18944 1.54684,0.11817 2.10184,-0.16203 0.0862,-0.0438 0.40193,-0.0826 0.15437,-0.14578 -0.18676,-0.0477 -0.4965,-0.0895 -0.68152,-0.005 -0.50889,0.23113 -1.18803,0.22084 -1.96706,0.17484 -0.26834,-0.0159 -0.62711,0.0377 -0.87121,0.0907 -0.10165,0.022 0.10745,0.1115 0.24942,0.153 0.25652,0.0752 0.60584,0.0871 0.91969,0.0629 0.31032,-0.024 -0.0822,-0.10681 0.0945,-0.16834 z M 159.483,110.87828 c 0.30143,-0.006 0.45629,-0.008 0.61056,-0.0128 0.20865,-0.006 0.49118,-0.0175 0.42144,-0.0958 -0.0643,-0.0727 -0.37062,-0.14452 -0.60111,-0.11998 -0.54261,0.0576 -1.15554,-0.0213 -1.66385,0.0951 -0.12466,0.0285 -0.35288,0.0159 -0.43562,-0.0525 -0.0395,-0.0327 -0.0302,-0.076 -0.23644,-0.0357 -0.54495,0.10608 -1.13898,0.16436 -1.79447,0.11096 -0.13247,-0.0109 -0.20038,0.01 -0.24115,0.0372 -0.0579,0.0386 0.0424,0.0539 0.14476,0.0626 0.14543,0.0121 0.28963,0.0269 0.43798,0.033 1.17209,0.0487 2.33352,-0.0531 3.35786,-0.022 z m -18.44008,-0.54705 c 0.34103,0.0159 0.56919,0.0213 0.78847,0.0374 1.33403,0.0974 2.68995,0.0543 4.03697,0.0509 0.17917,-5.4e-4 0.54203,0.015 0.63778,-0.0893 -0.38952,-0.0273 -0.40665,-0.17627 -0.75894,-0.21578 -0.2849,0.24808 -0.94865,0.0953 -1.43215,0.11926 -0.65432,0.0325 -1.36831,0.0841 -1.97474,0.0341 -0.49534,-0.0406 -0.80918,-0.02 -1.29739,0.0635 z"
       id="path1718" />
  </g>
</svg>
