<?xml version="1.0" encoding="UTF-8" standalone="no"?>
<svg
   xmlns:dc="http://purl.org/dc/elements/1.1/"
   xmlns:cc="http://creativecommons.org/ns#"
   xmlns:rdf="http://www.w3.org/1999/02/22-rdf-syntax-ns#"
   xmlns:svg="http://www.w3.org/2000/svg"
   xmlns="http://www.w3.org/2000/svg"
   width="159.27916mm"
   height="39.6875mm"
   viewBox="0 0 159.27916 39.6875"
   version="1.1"
   id="svg8">
  <defs
     id="defs2" />
  <metadata
     id="metadata5">
    <rdf:RDF>
      <cc:Work
         rdf:about="">
        <dc:format>image/svg+xml</dc:format>
        <dc:type
           rdf:resource="http://purl.org/dc/dcmitype/StillImage" />
        <dc:title></dc:title>
      </cc:Work>
    </rdf:RDF>
  </metadata>
  <g
     id="layer1"
     transform="translate(-29.967102,-97.673767)">
    <path
       style="fill:#9a3737;fill-opacity:0.770968;stroke:none;stroke-width:0.264583px;stroke-linecap:butt;stroke-linejoin:miter;stroke-opacity:1"
       d="m 125.05584,123.18287 c -0.61717,0.19859 -1.49644,0.32751 -1.34929,0.72026 0.0286,0.0762 -0.34629,0.0992 -0.61277,0.0994 -1.14283,0.002 -1.62676,-0.17146 -1.59381,-0.58561 0.007,-0.0817 0.0322,-0.1618 -0.26503,-0.17537 -0.18523,-0.009 -0.47954,0.0629 -0.45245,-0.0791 0.0155,-0.078 0.23207,-0.0952 0.41145,-0.11169 0.4217,-0.0386 0.80166,-0.0898 0.60106,-0.28837 -0.13984,-0.13909 -0.71966,-0.20538 -1.29437,-0.15553 0.007,0.0206 -0.006,0.0524 0.0263,0.06 0.23135,0.0551 0.6955,-0.003 0.6955,0.15788 0,0.10595 -0.3763,0.12135 -0.48539,0.0835 -0.27601,-0.0953 -0.98689,0.0929 -0.9415,-0.18946 0.0196,-0.12135 -0.0344,-0.23669 -0.2145,-0.34813 -0.17789,-0.11038 -0.42316,-0.16101 -0.75334,-0.15266 -0.30822,0.008 -0.37924,0.11117 -0.54909,0.17719 -0.19327,0.0752 -0.11347,0.51306 -0.94003,0.16441 -0.10761,-0.0454 -0.2987,-0.0136 -0.4012,0.0331 -0.18669,0.0851 -0.19693,0.18424 -0.11641,0.28315 0.0703,0.0866 0.2072,0.0757 0.42316,0.0457 0.76287,-0.10622 1.26217,-0.0394 1.54842,0.26514 0.16619,0.17589 0.59082,0.32072 0.91514,0.488 -0.42828,-0.0642 -0.91075,-0.14196 -1.26362,0.0548 -0.63914,-0.16519 -0.72772,-0.0608 -0.70576,0.16284 0.008,0.0827 -0.26063,0.072 -0.39461,0.004 -0.31042,-0.15658 -0.3009,-0.29828 0.11348,-0.43973 0.17717,-0.0605 0.47441,-0.14666 0.19327,-0.25078 -0.19693,-0.0728 -0.47441,-0.078 -0.7753,-0.0501 -0.53298,0.0499 -0.92466,0.1892 -1.3017,0.30194 -0.37631,0.11247 0.0761,0.14222 0.35947,0.14301 0.36166,0.001 0.65085,0.0214 0.44659,0.18894 -0.0351,0.0287 -0.1479,0.0751 -0.15302,0.0741 -0.42902,-0.0986 -0.85438,-0.1999 -1.27315,-0.30429 -0.26574,-0.0663 -0.21524,-0.13178 -0.0337,-0.21999 0.32286,-0.1571 0.317,-0.30689 -0.23354,-0.40763 -0.21303,-0.0389 -0.27161,-0.10464 -0.34263,-0.18189 -0.26796,-0.28915 -0.34116,-0.28445 -0.97444,-0.1023 -0.27161,0.0783 -0.66183,0.11692 -1.04912,0.10491 -0.20645,-0.006 -0.47734,0.0258 -0.5403,-0.0788 -0.052,-0.0859 0.2145,-0.0895 0.34702,-0.12866 0.33751,-0.0994 0.33312,-0.10152 0.0769,-0.37553 -0.0761,0.42329 -1.07548,0.35074 -1.88592,0.58404 0.44292,-0.31551 0.30676,-0.46138 -0.42756,-0.46191 -1.03667,-7.8e-4 -1.02057,0.28602 -1.05131,0.53811 -0.32872,-0.003 -0.35656,-0.0765 -0.40487,-0.13753 -0.098,-0.12369 -0.30311,-0.1892 -0.67574,-0.17014 -0.33678,0.0172 -0.45831,0.0981 -0.47441,0.20877 -0.0111,0.0751 0.057,0.17667 -0.19397,0.20198 -0.26951,0.0272 -0.18152,-0.1524 -0.24737,-0.12526 -0.37704,0.15553 -0.88953,0.0527 -1.28635,0.10882 -0.58567,0.0825 -0.2987,0.26932 -0.13531,0.5021 -0.94151,-0.32438 -1.57477,-0.23148 -2.08139,0.0848 -0.38877,-0.20172 -0.0285,-0.35909 0.0609,-0.51984 0.23133,-0.41363 0.0418,-0.52271 -1.115,-0.46426 -1.08501,0.0548 -2.19344,-0.0582 -3.264502,0.0955 -0.438549,0.0629 -0.778231,-0.14849 -1.374168,-0.10099 -1.204327,0.0963 -1.331722,0.1083 -1.215312,0.53784 0.01107,0.0433 0.01107,0.0869 0.0166,0.13597 -0.639851,-0.19494 -0.656702,-0.19677 -0.432682,-0.46374 0.114278,-0.13674 0.04759,-0.24087 -0.371891,-0.22208 -0.795081,0.0358 -1.579925,-0.095 -2.376445,0.001 -0.21666,0.0261 -0.565196,0.0243 -0.664754,-0.0647 -0.33971,-0.30219 -0.83169,-0.0872 -0.998625,-0.005 -0.499285,0.24583 -0.629613,0.0692 -0.716719,-0.0671 -0.08633,-0.13518 -0.136969,-0.25627 -0.570315,-0.2915 -0.204208,0.048 -0.154401,0.12213 -0.201994,0.1832 -0.189542,0.24609 -0.336777,0.51462 -1.277543,0.22286 -0.228557,-0.0707 -0.472195,-0.0183 -0.668406,0.041 -0.940047,0.2834 -1.934245,0.22886 -2.998726,0.0952 -0.669153,-0.0838 -1.371982,-0.21138 -2.121684,-0.024 -0.277451,0.0694 -0.657421,0.0365 -0.855818,-0.0992 -0.123687,-0.0845 -0.221916,-0.18215 -0.587885,-0.19807 -0.01107,0.0339 -0.04898,0.066 -0.02795,0.0924 0.07914,0.0984 0.426096,0.22208 0.04455,0.28654 -0.263699,0.0446 -0.680139,-0.0465 -0.811905,-0.15371 -0.190373,-0.15423 -0.286998,-0.13779 -0.639878,-0.0465 -0.29137,0.0752 -0.881469,0.20251 -1.093784,0.0493 -0.234922,-0.16937 -0.237136,-0.41128 0.474409,-0.53132 0.325072,-0.0548 0.924662,-0.0329 0.819985,-0.24348 -0.09159,-0.18399 -0.597404,-0.23644 -1.034486,-0.29124 -0.631798,-0.0791 -1.234349,-0.10204 -1.777575,0.0898 -0.538826,0.19051 -1.259225,0.0684 -1.837592,0.0629 -1.142096,-0.0107 -2.273954,0.0151 -3.405784,0.0373 -0.379251,0.008 -0.778978,-0.009 -1.092318,0.002 -1.02422,0.0363 -2.099713,0.0172 -3.07634,0.17745 -0.169067,0.0277 -0.24516,0.0673 -0.169897,0.1284 0.09519,0.077 0.289184,0.13074 0.508804,0.12187 1.035205,-0.0423 2.093128,0.0924 3.119534,-0.0989 0.757007,-0.14118 1.624558,-0.0115 2.442329,-0.025 0.359466,-0.006 0.557863,0.15736 0.754074,0.26932 0.114279,0.065 0.12092,0.12735 -0.09519,0.16519 -0.197014,0.0344 -0.385836,0.0141 -0.455372,-0.0595 -0.191756,-0.20146 -0.419511,-0.2333 -0.776045,-0.041 -0.04759,0.0258 -0.263422,0.0451 -0.328005,0.0295 -0.781163,-0.1905 -1.070346,0.004 -1.547661,0.19103 -0.792148,0.31029 -0.686005,-0.12735 -1.100369,-0.21399 -0.243776,0.17015 -0.431216,0.35569 -0.84926,0.48096 -0.161872,0.0485 -0.361653,0.0919 -0.592285,0.0678 -0.136969,-0.0143 -0.185946,-0.0652 -0.145547,-0.1083 0.234922,-0.25287 -0.02214,-0.27714 -0.601056,-0.17406 -0.167683,0.0297 -0.29065,-0.0118 -0.368985,-0.0663 l -0.01937,0.007 c 0.448787,-0.29202 -0.210018,-0.72339 -1.128925,-0.6832 -0.985426,0.0431 -2.087981,-0.0178 -2.716127,0.43503 -0.221917,0.16023 -0.901253,0.26122 -0.977374,0.51279 -0.0285,0.0945 -0.302383,0.22156 -0.673554,0.17041 -0.538106,-0.0741 -0.0055,-0.14066 0.05479,-0.21321 0.107638,-0.13231 -0.120643,-0.14274 -0.411431,-0.14405 -0.284065,-0.001 -0.450253,-0.0759 -0.50078,-0.16676 -0.04898,-0.089 0.09961,-0.14509 0.352881,-0.15997 0.265083,-0.0154 0.60399,5.2e-4 0.58498,-0.14823 -0.0083,-0.0746 -0.175707,-0.12552 -0.371198,-0.12369 -0.352134,0.003 -0.835342,-0.054 -0.992012,0.09 -0.106808,0.0981 -0.01384,0.18163 -0.457558,0.14327 -0.275321,-0.024 -0.320672,0.0877 -0.316273,0.16336 0.0083,0.12135 0.02795,0.25236 0.451692,0.29046 0.284812,0.0256 0.637692,0.0551 0.485394,0.18032 -0.180687,0.14901 -0.720399,0.14458 -1.079118,0.22391 -0.244606,0.0543 -0.527121,0.003 -0.582766,-0.0953 -0.08495,-0.14927 -0.409246,-0.28158 -0.309688,-0.43946 0.07388,-0.11665 -0.03431,-0.16519 -0.326511,-0.18842 -0.17875,-0.0144 -0.377784,-0.0501 -0.511017,0.0188 -0.151634,0.0786 0.05119,0.14536 0.117046,0.21451 0.0689,0.0725 0.182348,0.13962 0.266466,0.2106 0.08495,0.0718 -0.0083,0.17198 -0.185945,0.125 -0.44292,-0.11795 -1.116473,-0.002 -1.440798,-0.19963 -0.157998,-0.0966 -0.319178,-0.088 -0.500032,-0.0107 -0.121473,0.0519 -0.428283,0.0955 -0.05562,0.16833 0.141396,0.0277 0.297955,0.0624 0.133925,0.12265 -0.07028,0.0258 -0.28625,0.0449 -0.33163,0.029 -0.734317,-0.2581 -1.530865,-0.0227 -2.268835,-0.0138 -0.607642,0.007 -1.278262,-0.18972 -1.928379,0.0441 -0.120643,0.0433 -0.937086,-0.14092 -1.388805,-0.24426 -0.11926,-0.0272 -0.107638,-0.14928 0.197013,-0.17589 0.02795,-0.002 0.06669,-0.001 0.09076,0.004 1.396138,0.29828 1.817835,-0.15423 2.564577,-0.47705 0.06724,0.34891 0.836808,0.39015 1.354411,0.51541 0.46929,0.11378 0.759221,-0.0746 1.079146,-0.16832 0.152187,-0.0446 0.221087,-0.16363 0.162425,-0.15997 -0.592285,0.0386 -0.724079,-0.22652 -1.309032,-0.21948 -1.080584,0.0133 -2.223428,-0.14065 -3.09903,0.23461 -0.185115,0.0793 -0.461958,0.0154 -0.666221,-0.0389 -0.472223,-0.12578 -1.117192,-0.13883 -1.478872,-0.0425 -0.732851,0.1952 -1.434932,0.17954 -2.239533,0.12735 -1.008116,-0.0658 -2.008927,0.0368 -3.014829,0.0577 -0.388769,0.008 -0.947352,0.0976 -0.721866,-0.19676 0.06143,-0.0799 -0.154401,-0.14197 -0.356533,-0.17485 -0.276759,-0.0451 -0.416578,-0.12318 -0.521283,-0.21921 -0.262039,-0.23983 0.109022,-0.6211 -1.124525,-0.64641 0.132541,-0.40032 -0.967109,-0.33612 -1.489111,-0.46895 -0.71968,-0.1832 -1.030086,-0.32621 -0.69259,-0.62188 0.153847,-0.13492 0.28993,-0.26331 0.291397,-0.41076 0.0015,-0.13935 -0.11926,-0.19833 -0.543226,-0.24609 -0.713813,-0.0801 -1.32295,-0.21634 -1.226297,-0.56473 0.057,-0.20433 -0.464891,-0.22573 -0.931967,-0.21321 -0.311901,0.008 -0.750422,0.0196 -0.760687,-0.10986 -0.01107,-0.15632 0.448786,-0.15032 0.784843,-0.13909 0.26785,0.009 0.639851,0.0723 0.615694,-0.0877 -0.0249,-0.16232 -0.478061,-0.11848 -0.742369,-0.10151 -0.763593,0.0488 -1.415895,0.2393 -2.25417,0.21425 -0.303102,-0.009 -0.743089,-0.0363 -0.583486,-0.11874 0.568129,-0.29437 -0.582766,-0.43503 -0.38437,-0.68999 0.06088,-0.078 -0.201994,-0.14405 -0.506617,-0.1464 -0.38069,-0.003 -0.289903,-0.10621 -0.156615,-0.16023 0.667687,-0.27167 0.09076,-0.49088 -0.313339,-0.67251 -0.292864,-0.13179 -0.322139,-0.1785 0.0055,-0.28367 0.511017,-0.16336 0.941485,-0.31472 0.514669,-0.61744 -0.205868,-0.14588 0.495633,-0.30194 0.739437,-0.464 0.09602,-0.0639 0.240732,-0.0566 0.06807,-0.14666 -0.385089,-0.20068 -0.900506,-0.40397 -0.412179,-0.67877 0.03071,-0.0175 -0.01384,-0.0757 -0.06309,-0.0838 -1.112074,-0.18111 -0.59959,-0.64536 -1.250454,-0.90763 -0.215275,-0.0869 -0.109851,-0.18398 0.204208,-0.1939 1.372729,-0.0436 2.385964,-0.42276 3.779916,-0.47756 1.201394,-0.0472 2.358848,-0.0712 3.530247,0.0342 0.367518,0.0331 0.736503,0.0559 1.052029,-0.0462 0.257058,-0.083 0.699176,-0.11743 0.858059,-0.072 1.09229,0.31055 2.172902,-0.0441 3.214693,0.0164 1.663351,0.0963 3.354539,0.0496 4.951288,-0.0117 2.188287,-0.084 4.375826,-0.0658 6.555341,-0.11196 1.563794,-0.0334 3.142224,-0.0942 4.69138,-0.14066 2.314934,-0.0697 4.640853,-0.19572 6.960934,-0.22521 3.418956,-0.0436 6.818875,-0.16206 10.224687,-0.24791 1.836126,-0.0462 3.675184,-0.14014 5.512804,-0.13806 2.221214,0.002 4.413181,-0.12578 6.638795,-0.11221 1.702892,0.0104 3.408718,-0.10334 5.117476,-0.14275 1.624558,-0.0376 3.254954,-0.0459 4.88172,-0.0754 1.40931,-0.0256 2.82961,-0.0326 4.22063,-0.107 0.77311,-0.0412 1.52572,0.002 2.28054,-0.008 1.38296,-0.0164 2.75935,-0.21582 4.09545,-0.12526 2.15168,0.14614 4.26089,-0.16885 6.38915,-5.3e-4 0.3397,0.0269 0.76212,0.0123 1.08206,-0.0365 1.48106,-0.22652 2.97604,-0.0392 4.45857,-0.029 0.39021,0.003 0.69404,0.0509 1.09597,-0.0451 0.3558,-0.0848 0.93784,-0.14458 1.3178,-0.10126 0.80899,0.0921 1.60186,-0.0556 2.37205,0.0313 1.26143,0.14249 2.55288,-0.13857 3.81357,0.0399 0.11201,0.0159 0.30603,-0.0146 0.42976,-0.0418 0.74748,-0.16571 1.54182,-0.11247 2.32958,-0.066 0.87268,0.0514 1.68971,0.22182 2.62682,-0.0125 0.34775,-0.0869 1.06742,0.0115 1.6165,0.0305 1.57917,0.0551 3.15834,0.12605 4.72506,-0.0313 0.45464,-0.0457 0.839,0.053 1.25631,0.0804 0.54835,0.0357 1.08206,0.27062 1.62236,-0.008 0.0219,-0.0115 0.17864,-7.8e-4 0.25185,0.0133 1.10916,0.21451 2.2637,0.10021 3.4036,0.0592 1.20359,-0.0433 2.36106,0.11091 3.55001,0.0989 1.39028,-0.0141 2.76007,0.078 4.13278,0.11561 1.01251,0.0277 2.09457,-0.0879 3.07195,0.0994 0.42243,0.0809 0.85364,5.2e-4 1.27387,-0.009 1.49498,-0.0355 2.95993,0.0697 4.42636,0.12604 1.90276,0.0731 3.82382,-0.004 5.7156,0.12631 0.82436,0.0566 1.63335,0.10856 2.26882,0.31994 0.15667,0.0522 0.31408,0.0754 0.49491,0.0548 1.17504,-0.13439 2.37937,-0.0318 3.52293,0.0107 1.56379,0.0579 3.1166,0.0874 4.68332,0.10048 0.63035,0.005 0.99714,0.17145 1.03082,0.39666 0.0608,0.40867 0.10982,0.81238 0.94589,1.1425 0.1435,0.0566 0.21962,0.17981 0.15227,0.25131 -0.25623,0.27323 0.0483,0.50079 0.41071,0.71661 0.4217,0.25131 0.10178,0.39797 -0.48612,0.5034 -1.62675,0.29176 -3.30915,0.35439 -5.11893,0.22208 -1.81125,-0.13231 -3.67887,-0.11221 -5.52672,-0.10151 -0.76433,0.004 -1.22117,0.13126 -1.00739,0.44494 0.21157,0.31029 0.0241,0.66259 0.96346,0.88807 0.30895,0.0741 0.009,0.25209 -0.0666,0.37578 -0.11419,0.18529 -0.0864,0.29072 0.51395,0.37684 1.04765,0.15031 2.00306,0.3797 3.23081,0.28967 0.40632,-0.0297 0.76433,0.003 0.42536,0.22182 -0.33897,0.21895 0.33677,0.33951 0.65524,0.38753 0.86902,0.13127 0.50516,0.27401 0.13984,0.41546 -0.51028,0.19781 -0.44585,0.39379 0.24306,0.48043 0.50882,0.0637 0.35288,0.19233 0.0959,0.22965 -0.92173,0.13466 -0.72919,0.26932 -0.11935,0.44677 0.10471,0.0303 0.0732,0.12396 0.0864,0.18868 0.0125,0.0598 0.0857,0.13518 0.22624,0.12474 0.88805,-0.066 1.04545,0.28706 1.48252,0.34317 0.89025,0.11456 1.44593,0.35361 2.19414,0.5081 0.72406,0.14953 0.80313,0.12082 0.89318,-0.23774 -0.0527,-0.006 -0.11566,-0.0217 -0.15813,-0.0164 -0.24234,0.0297 -0.40413,0.21503 -0.74017,0.054 -0.21013,-0.10074 0.0125,-0.17093 0.2277,-0.21295 0.38656,-0.0757 0.76506,-0.0689 1.07108,0.0632 0.21303,0.0919 0.0183,0.21295 0.10908,0.30194 0.45098,0.0478 0.46635,-0.15762 0.83314,-0.13805 0.19035,0.14144 0.0827,0.28706 -0.0688,0.41232 -0.14422,0.119 -0.28114,0.21687 -0.0227,0.33221 0.0556,0.0248 0.13323,0.0775 0.11054,0.0856 -0.9803,0.35074 0.31554,0.38179 0.60765,0.55194 0.0615,0.0358 0.18523,0.0647 0.20427,0.10178 0.11494,0.22521 -1.28925,1.08274 -1.81565,1.03968 -0.675,-0.0551 -1.37856,0.1297 -2.02649,-0.0812 -0.46196,-0.15032 -1.14575,-0.14301 -1.66043,-0.0261 -0.99494,0.22626 -1.65457,0.0629 -2.29444,-0.19207 -0.0512,-0.0206 -0.14862,-0.0266 -0.23794,-0.0417 0.0622,0.41415 0.0622,0.41415 -1.47813,0.44077 0.59228,-0.25601 0.46635,-0.35048 -0.48539,-0.44808 -0.91954,-0.0945 -1.77025,-0.053 -2.5807,0.11143 -0.20208,0.041 -0.35434,0.0436 -0.4832,-0.0151 -0.52126,-0.23826 -1.25411,-0.17563 -1.93351,-0.17067 -0.28772,0.002 -0.53737,0.002 -0.78629,-0.0592 -0.27893,-0.0686 -0.67061,-0.29254 -0.7753,-0.19076 -0.15739,0.15214 -1.10916,0.21164 -0.54616,0.47861 0.0549,0.0261 -0.46416,0.2453 -0.80679,0.32594 -0.23866,0.0561 -0.31481,-0.0663 -0.33457,-0.14379 -0.0388,-0.14979 -0.2848,-0.24322 -0.66769,-0.27949 -0.10102,-0.01 -0.30676,0.0365 -0.37118,0.0762 -0.27527,0.16963 0.29065,0.21112 0.44805,0.33899 -0.33091,0.0699 -0.55787,0.0175 -0.79507,-0.0611 -0.99348,-0.32881 -1.98842,-0.61118 -3.52952,-0.40319 -0.27527,0.0373 -0.84559,-0.20303 -1.33098,-0.32855 -0.13985,0.11247 0.0747,0.20668 0.10761,0.30428 0.12153,0.35674 -0.66476,0.601 -1.62602,0.47783 -0.47587,-0.0611 -0.75261,0.0608 -1.12746,0.0859 -0.54688,0.0368 -0.94003,0.0214 -0.86901,-0.22861 0.0278,-0.0976 0.11787,-0.23695 -0.29944,-0.21321 -0.34995,0.0198 -0.95028,-0.017 -0.90416,0.23226 0.0155,0.0835 0.19035,0.23852 -0.31261,0.18007 -0.19621,-0.0227 -0.71674,-0.10387 -0.43634,-0.23096 0.63914,-0.29019 0.15302,-0.41676 -0.48539,-0.5488 -0.25551,-0.0527 -0.35215,-0.18633 -0.72186,-0.1879 -0.18742,0.042 -0.13105,0.11848 -0.0366,0.1404 0.84266,0.19703 0.56153,0.48409 0.44366,0.74218 -0.13617,0.29828 -0.82729,0.18424 -1.32732,0.17615 -0.59521,-0.01 -0.35361,-0.11717 -0.24599,-0.24661 0.11566,-0.13909 -0.0388,-0.30141 0.14568,-0.44677 0.0235,-0.0185 0.0227,-0.0444 0.0102,-0.065 -0.0769,-0.12735 -1.89544,-0.46138 -2.25271,-0.4178 -0.15227,0.0188 -0.25551,0.0428 -0.32872,0.10073 -0.27382,0.21608 -0.67354,0.18581 -0.97444,0.0238 -0.3785,-0.20407 -0.87268,-0.25313 -1.48619,-0.20799 -0.24671,0.0183 -0.47807,0.0342 -0.72626,0.005 -0.28845,-0.0342 -0.55128,-0.0577 -0.47733,0.11744 0.0278,0.0665 0.001,0.17302 -0.30822,0.1678 -0.27821,-0.005 -0.29139,-0.0958 -0.32945,-0.17328 -0.0263,-0.0535 -0.0366,-0.13101 -0.13324,-0.15267 -0.32506,-0.0726 -0.49783,-0.43868 -1.12013,-0.0619 -0.20792,0.12578 -0.77897,0.18581 -1.00519,0.35752 -0.10468,0.0796 -0.30163,0.013 -0.43854,-0.0373 -0.14715,-0.0538 -0.36605,-0.084 -0.10395,-0.1772 0.32725,-0.11613 0.53444,-0.25783 0.44292,-0.50653 -0.38948,0.25862 -1.12965,0.23461 -1.5206,0.42981 -0.25844,0.12918 -0.72991,0.0621 -1.12086,0.0175 -0.19986,-0.0227 -0.44512,-0.0405 -0.5835,0.0417 -0.0505,0.03 -0.0461,0.0898 0.006,0.12004 0.14936,0.0866 0.36459,0.0564 0.56958,0.0217 1.04472,-0.17798 1.41225,0.23304 2.15754,0.31551 -0.37851,0.30011 0.33018,0.494 0.53737,0.73827 0.12886,0.15188 -0.37484,0.0365 -0.52712,0.0934 -0.19622,0.0733 -0.42317,0.0866 -0.43561,-0.0345 -0.0169,-0.16023 -0.38143,-0.24818 -0.50735,-0.38153 -0.0659,-0.0699 -0.17278,-0.12057 -0.39535,-0.10648 -0.24964,0.0157 -0.24817,0.0848 -0.21156,0.15423 0.0498,0.0955 -0.1347,0.19547 0.0586,0.28889 0.21891,0.10595 0.0739,0.16911 -0.23207,0.18189 -0.29138,0.0123 -0.47001,-0.0454 -0.4561,-0.1571 0.007,-0.0545 0.0732,-0.11117 0.0476,-0.16284 -0.0879,-0.17641 -0.18011,-0.32438 -0.90855,-0.27949 -0.78849,0.0488 -1.39541,-0.0947 -1.77904,-0.37788 0.45172,0.0846 0.78263,0.0587 1.02203,-0.0872 0.20426,-0.12422 0.39095,-0.22626 0.10836,-0.3891 -0.28113,-0.16206 -0.35947,-0.36744 -0.33824,-0.56551 0.0111,-0.10203 0.0191,-0.19781 -0.358,-0.26983 -0.22695,0.36195 -0.86243,0.70434 0.0133,1.05586 -0.57691,-0.005 -0.77018,-0.0759 -1.05278,-0.32882 -0.12081,-0.10778 0.19109,-0.28836 -0.24159,-0.3155 -0.39241,-0.0248 -0.97151,-0.003 -1.22043,0.0861 -0.38509,0.13805 -1.19261,0.0204 -1.31195,0.32595 -0.0461,0.11874 -0.43121,-0.0138 -0.63254,-0.0707 -0.35801,-0.10178 -0.59448,-0.16284 -0.8822,0.0624 -0.17864,0.13988 -0.7614,0.21426 -1.16918,0.31969 -0.23941,-0.12475 0.3192,-0.19051 0.0827,-0.28106 -0.21013,-0.0804 -0.47221,-0.006 -0.69331,0.013 -0.56519,0.048 -1.07913,-0.0903 -1.69045,-0.0496 0.60473,-0.0464 0.2233,-0.2714 0.59741,-0.3677 0.0974,-0.0251 -0.0937,-0.12135 -0.24306,-0.15997 -0.22842,-0.059 -0.28333,0.0178 -0.40632,0.0676 -0.68892,0.27898 -1.70583,0.37866 -2.58363,0.22991 -0.34556,-0.0587 -0.49125,0.0159 -0.73431,0.048 -0.4012,0.053 -0.82436,0.0882 -1.24532,0.11848 -0.29504,0.0211 -0.65451,0.0663 -0.61498,0.1631 0.17059,0.41467 -0.77091,0.51671 -1.43933,0.69834 z m -2.12752,-5.99749 c -0.1186,-0.0851 -0.33312,-0.0952 -0.55202,-0.0838 -0.94223,0.0496 -1.88226,-0.0235 -2.81936,-0.004 -0.80167,0.0167 -1.60333,-0.12944 -2.28493,-0.10465 -1.67727,0.0611 -3.3194,-0.0376 -4.96811,-0.0154 -1.02423,0.0138 -1.99867,-0.13909 -2.99873,-0.0684 -0.7929,0.0561 -1.58504,0.0527 -2.38013,0.06 -2.74247,0.0253 -5.47766,-0.0611 -8.217222,-0.0744 -0.981746,-0.005 -1.972319,0.0663 -2.94676,0.0407 -1.633329,-0.0428 -3.255701,0.0329 -4.886844,0.0151 -0.857312,-0.009 -1.700706,-0.0739 -2.571189,-0.0496 -2.38887,0.0663 -4.77702,0.12422 -7.181274,0.12579 -1.58723,0.001 -3.135666,-0.11613 -4.755077,-0.0587 -2.987021,0.10569 -6.004064,0.10804 -9.010122,0.13518 -0.530774,0.005 -1.079866,0.008 -1.546223,0.0681 -1.074746,0.13857 -2.167063,0.10778 -3.260819,0.11874 -0.914424,0.009 -1.857376,-0.0313 -2.737378,0.035 -1.133325,0.0856 -2.270275,0.10021 -3.408718,0.13779 -0.907811,0.03 -1.808317,0.017 -2.735165,0.0686 -1.449597,0.0809 -2.92407,0.3617 -4.478345,0.15762 -0.166853,-0.0219 -0.423883,0.0154 -0.612789,0.0462 -1.311937,0.21321 -2.731512,0.0793 -4.082243,0.16493 -0.112065,0.007 -0.282598,-2.6e-4 -0.352162,-0.0261 -0.52784,-0.19676 -0.999316,-0.0423 -1.480339,0.0251 -0.297235,0.0415 -0.579086,0.10021 -0.521255,0.23747 0.05562,0.13101 0.345548,0.19416 0.669154,0.18346 0.91221,-0.0305 1.944482,0.25836 2.731512,-0.12396 0.02767,-0.0133 0.114279,-0.0133 0.174323,-0.0151 1.031553,-0.0287 2.067478,-0.0431 3.092445,-0.089 0.958337,-0.0428 1.850791,0.23722 2.825232,0.0592 0.05922,-0.011 0.173494,0.0167 0.262869,0.0258 0.460519,0.048 0.901253,0.006 1.363211,-0.0162 1.877852,-0.09 3.750613,-0.33821 5.659954,-0.0647 0.288464,0.0412 0.461238,-0.0295 0.682325,-0.0608 0.985426,-0.13935 1.47082,-0.0887 2.111418,0.26149 0.145547,-0.43581 0.932714,-0.34186 1.683136,-0.33952 0.497099,0.002 1.016168,-0.0404 1.522786,-0.0744 1.370515,-0.0913 2.780571,-0.14354 4.136449,0.16545 -0.440015,-0.43059 0.610575,-0.125 0.821424,-0.31629 0.04455,0.17693 -0.578367,0.21999 -0.215276,0.34369 0.314087,0.10673 0.609137,0.005 0.922476,-0.0355 0.639131,-0.0819 1.300952,-0.30663 1.952535,0.001 0.09823,0.0465 0.370452,0.06 0.40266,0.0149 0.161872,-0.22678 0.338243,-0.37553 1.003744,-0.13675 0.08633,0.0308 0.213892,-0.0613 0.295022,-0.10595 0.14776,-0.0812 0.354347,-0.12265 0.627426,-0.10778 1.437146,0.0785 2.845736,0.006 4.255045,-0.0895 0.354348,-0.024 0.726266,-0.0149 1.108422,-0.0214 -0.113449,0.20747 -1.027154,0.1297 -0.840461,0.43503 0.475128,-0.26958 1.205793,-0.18294 1.805383,-0.24609 1.599654,-0.16911 3.17078,-0.35335 4.913933,-0.27584 0.775325,0.0344 1.612106,-0.13179 2.406468,0.041 0.06005,0.013 0.188159,-0.001 0.26868,-0.0146 1.228483,-0.20251 2.571189,-0.0175 3.823829,-0.14327 0.141396,-0.0141 0.360933,-0.0198 0.450972,0.008 0.530774,0.16597 0.931995,0.12474 1.649461,0.0736 1.038138,-0.0744 2.217562,-0.16363 3.369177,-0.0817 0.470757,0.0334 0.836808,0.16049 1.280476,0.16206 0.418764,0.002 1.545474,-0.042 1.814904,-0.005 0.25263,0.0347 0.42756,0.0417 0.39972,-0.0869 -0.0221,-0.10804 0.19038,-0.0994 0.3668,-0.0762 0.38435,0.0509 0.71894,-0.0183 1.0784,-0.0355 0.7548,-0.036 1.52132,-0.0843 2.28201,0.002 0.15523,0.0177 0.44217,-0.0138 0.31627,0.0976 -0.10681,0.0942 -0.085,0.1498 0.20947,0.16598 0.19397,0.0107 0.38141,-0.006 0.46489,-0.0778 0.28403,-0.24453 0.90269,-0.26619 1.47226,-0.2354 1.56014,0.0848 3.11223,0.10778 4.67821,0.0324 0.16032,-0.008 0.36826,0.0266 0.50516,0.0642 0.17131,0.047 0.26209,0.0613 0.46416,0.007 1.08426,-0.28941 2.29664,-0.006 3.4563,-0.0694 0.41511,-0.0227 0.92906,0.0932 1.41444,-0.0371 0.23354,-0.0626 0.51468,-0.0149 0.79069,0.0149 1.32659,0.14301 2.65464,0.24818 3.8575,-0.12996 z m 22.5132,3.68012 c 0.42097,0.20355 0.97664,0.27193 1.41591,0.15188 0.67867,-0.1858 1.30389,-0.30011 2.13704,-0.15188 0.24964,0.0444 0.41876,-0.008 0.4766,-0.0971 0.0666,-0.10204 -0.0116,-0.17302 -0.35434,-0.17798 -0.36899,-0.005 -0.74383,-0.003 -1.10403,-0.0274 -0.45977,-0.0313 -0.8207,-0.0579 -0.96785,0.16702 -0.0761,0.11691 -0.33092,0.15292 -0.69038,0.0365 -0.65231,-0.21138 -1.60626,-0.25392 -2.33837,-0.20877 -0.91148,0.0561 -1.73145,0.31029 -2.681,0.0436 -0.1347,-0.0378 -0.2965,0.001 -0.43122,-0.003 -1.4796,-0.0457 -2.95773,0.17119 -4.43879,-2.6e-4 -0.1984,-0.023 -0.47661,-0.0141 -0.54616,0.077 -0.063,0.0822 0.16472,0.17302 0.31042,0.18241 0.96785,0.0624 1.18602,0.26697 0.91001,0.60492 0.67574,-0.35909 1.99867,-0.49766 2.49504,-0.30664 0.74895,0.28811 1.80173,-0.19233 2.19268,0.22104 0.10249,-0.023 0.20938,-0.0441 0.30675,-0.0694 0.22109,-0.0579 0.42317,-0.12709 0.65964,-0.17563 0.50369,-0.10308 1.11135,-0.23695 1.60699,-0.089 0.68891,0.20512 0.87707,0.0864 1.04106,-0.17746 z m -41.14768,-0.0104 c -0.33825,-0.009 -0.67646,-0.0232 -1.0147,-0.024 -0.30457,-5.2e-4 -0.57912,0.0423 -0.5608,0.16832 0.0277,0.1892 0.39461,0.32673 0.75114,0.43999 0.34555,0.1096 0.60327,-0.0485 0.8595,-0.10804 0.93858,-0.21817 2.61073,-0.096 3.10708,0.23487 0.10238,0.0686 0.0636,0.20511 0.43855,0.15553 0.27532,-0.0365 0.27895,-0.14405 0.20559,-0.23043 -0.14997,-0.17693 0.006,-0.18189 0.50003,-0.21738 0.8939,-0.0645 1.85005,0.0407 2.69491,-0.13858 0.19402,-0.0412 0.55274,-0.013 0.51687,-0.13831 -0.0337,-0.12004 -0.36752,-0.17667 -0.6179,-0.14222 -0.64134,0.0885 -1.15161,-0.0264 -1.64287,-0.11822 -0.40778,-0.0765 -0.77237,-0.0843 -1.13698,-0.0183 -1.32071,0.24009 -2.73735,0.0799 -4.10056,0.13675 z m 11.91368,0.67955 c 0.31042,-0.0579 0.56519,-0.0953 0.78849,-0.14901 0.8983,-0.21556 2.93064,-0.27506 3.95194,-0.1605 0.59594,0.0668 1.33904,0.0511 1.86103,-0.0532 0.56373,-0.11273 -0.3353,-0.16388 -0.30602,-0.29358 0.0138,-0.0616 0.40632,-0.2046 -0.0703,-0.1986 -1.27315,0.0165 -2.58876,-0.11299 -3.81285,0.11457 -0.2306,0.0428 -0.59374,0.13883 -0.63986,-0.0248 -0.0864,-0.30689 -0.63109,-0.18842 -0.99129,-0.14484 -0.49198,0.0595 -0.35507,0.20773 -0.1508,0.32752 0.33531,0.19702 0.21525,0.32855 -0.38875,0.40945 -0.14937,0.0201 -0.25479,0.0605 -0.24159,0.17302 z m 19.5379,-0.52819 c -0.43341,-0.0339 -0.70137,-0.13205 -0.9393,-0.15919 -0.71235,-0.0806 -1.46203,-0.2547 -2.20293,-0.15267 -0.8229,0.11352 -1.51694,0.10987 -2.23002,-0.0626 -0.33604,-0.0814 -0.51613,0.0313 -0.6999,0.0906 -0.21156,0.0678 -0.19767,0.17562 0.033,0.22625 0.35581,0.0778 0.69111,0.20277 1.17211,0.16232 1.09817,-0.0926 2.17657,-0.0522 3.2579,0.0399 0.5242,0.0446 1.02862,0.017 1.60919,-0.14458 z m -53.291228,0.35987 c -0.394608,-0.013 -0.811186,0.0493 -0.989826,0.16597 -0.155231,0.10151 0.24599,0.18267 0.467076,0.25261 0.210019,0.0663 0.448067,0.0694 0.655983,-0.0107 0.220256,-0.0848 0.459771,-0.12996 0.814118,-0.11509 1.104742,0.0465 2.152399,-0.0924 3.227145,-0.14535 0.187329,-0.009 0.360213,-0.0446 0.372637,-0.12422 0.01384,-0.0924 -0.179304,-0.0984 -0.372637,-0.107 -0.39826,-0.018 -0.808972,-0.0504 -1.177957,0.024 -0.833875,0.16858 -1.867642,-0.22913 -2.639287,0.12031 -0.01384,0.007 -0.207251,-0.0347 -0.357252,-0.0605 z m 31.076718,-0.18137 c 0.21744,0.0209 0.50809,0.0384 0.57911,-0.0428 0.38948,-0.44729 0.76798,-0.0715 1.12891,2.6e-4 0.19547,0.0389 0.3031,0.17119 0.58789,0.10439 0.40413,-0.0947 0.27602,-0.24609 0.21962,-0.3878 -0.0476,-0.12004 -0.30236,-0.21347 -0.53664,-0.17276 -0.66988,0.11665 -1.40712,0.0407 -2.06895,0.12788 -0.27526,0.0363 -0.67061,0.0684 -0.62669,0.19885 0.0403,0.11952 0.4239,0.14144 0.71674,0.17198 z"
       id="path1825" />
  </g>
</svg>
