<?xml version="1.0" encoding="UTF-8" standalone="no"?>
<svg
   xmlns:dc="http://purl.org/dc/elements/1.1/"
   xmlns:cc="http://creativecommons.org/ns#"
   xmlns:rdf="http://www.w3.org/1999/02/22-rdf-syntax-ns#"
   xmlns:svg="http://www.w3.org/2000/svg"
   xmlns="http://www.w3.org/2000/svg"
   xmlns:xlink="http://www.w3.org/1999/xlink"
   xmlns:sodipodi="http://sodipodi.sourceforge.net/DTD/sodipodi-0.dtd"
   xmlns:inkscape="http://www.inkscape.org/namespaces/inkscape"
   width="100mm"
   height="100mm"
   viewBox="0 0 100 100"
   version="1.1"
   id="svg8"
   sodipodi:docname="logo.svg"
   inkscape:version="1.0.1 (3bc2e813f5, 2020-09-07)">
  <sodipodi:namedview
     pagecolor="#ffffff"
     bordercolor="#666666"
     borderopacity="1"
     objecttolerance="10"
     gridtolerance="10"
     guidetolerance="10"
     inkscape:pageopacity="0"
     inkscape:pageshadow="2"
     inkscape:window-width="2560"
     inkscape:window-height="1369"
     id="namedview843"
     showgrid="false"
     inkscape:zoom="2.0902083"
     inkscape:cx="252.28325"
     inkscape:cy="188.97638"
     inkscape:window-x="2552"
     inkscape:window-y="-8"
     inkscape:window-maximized="1"
     inkscape:current-layer="svg8" />
  <defs
     id="defs2">
    <linearGradient
       id="linearGradient1952">
      <stop
         style="stop-color:#097679;stop-opacity:1;"
         offset="0"
         id="stop1948" />
      <stop
         style="stop-color:#ffc000;stop-opacity:1"
         offset="1"
         id="stop1950" />
    </linearGradient>
    <linearGradient
       xlink:href="#linearGradient1952"
       id="linearGradient1954"
       x1="75.654503"
       y1="98.543877"
       x2="83.370193"
       y2="98.543877"
       gradientUnits="userSpaceOnUse"
       gradientTransform="translate(18.441597,0.20045215)" />
    <linearGradient
       xlink:href="#linearGradient1952"
       id="linearGradient2897"
       gradientUnits="userSpaceOnUse"
       x1="3.9451704"
       y1="178.73581"
       x2="361.40002"
       y2="178.73581"
       gradientTransform="matrix(0.26458333,0,0,0.26458333,-0.44346522,-0.74976505)" />
  </defs>
  <metadata
     id="metadata5">
    <rdf:RDF>
      <cc:Work
         rdf:about="">
        <dc:format>image/svg+xml</dc:format>
        <dc:type
           rdf:resource="http://purl.org/dc/dcmitype/StillImage" />
        <dc:title />
      </cc:Work>
    </rdf:RDF>
  </metadata>
  <g
     id="layer1"
     style="fill:#097679;fill-opacity:1;stroke:#000000;stroke-width:0.132292;stroke-miterlimit:4;stroke-dasharray:none;stroke-opacity:1">
    <path
       id="path2215"
       style="fill:#097679;fill-opacity:1;fill-rule:evenodd;stroke:#000000;stroke-width:0.132292;stroke-linecap:round;stroke-linejoin:round;stroke-miterlimit:4;stroke-dasharray:none;stroke-opacity:1;paint-order:markers fill stroke"
       d="M 28.600757,3.5466134 C 13.976899,3.7427079 2.1230752,18.637227 4.4389629,32.912036 5.6245554,42.972293 12.95286,52.830562 23.412726,54.34463 c 1.941968,0.353556 10.125948,0.603239 4.073371,0.476372 C 17.219936,55.342034 7.8535089,47.687479 5.0745442,37.997741 2.1140108,29.691844 3.8889676,20.247036 9.1409625,13.24938 7.3718192,14.477177 4.9772278,20.119314 4.3173511,20.742014 4.8983918,18.481414 8.8092764,11.900317 5.5806869,16.95602 3.9557087,18.718081 2.3558994,26.935109 3.3578535,20.987414 4.1727708,18.753331 6.6143987,13.581168 4.210265,18.38574 2.9839937,21.779823 3.1804416,20.475309 4.2590905,17.93127 4.2078005,16.502872 1.6047797,23.960374 1.6605178,26.301492 0.63170363,30.011126 2.3507372,38.123263 2.8196825,38.559408 1.9333983,36.538837 1.4848787,30.993249 1.5907225,30.754884 2.0260303,42.4032 9.9991641,54.181324 21.84206,56.514751 c 4.251117,1.080197 9.187044,-0.286458 12.76179,2.829299 2.828385,1.56394 4.641645,5.882258 5.208575,8.018314 0.610013,-2.48618 -4.682965,-7.877288 -3.793435,-7.180214 6.088914,5.073205 5.449556,15.768887 -1.378195,19.92423 -1.032876,1.54239 -8.269422,2.742272 -6.595805,1.80553 1.885625,-0.506972 7.387975,-2.345418 2.746224,-0.958708 -2.446734,0.962228 -10.651384,-0.445056 -4.444255,0.568224 3.288295,0.01547 -1.377802,0.355394 0.881751,0.410154 -2.655612,0.613031 -7.489581,-0.603716 -7.805203,-0.278029 -1.753851,-0.568644 0.424478,0.906525 -2.322109,-0.166561 -1.255373,-0.167337 -1.447916,0.40379 -1.362939,0.483332 -1.392944,-1.104205 -2.974232,-1.010258 -1.259756,1.335206 C 10.79569,81.622047 8.4062348,76.671996 7.9712098,74.191999 8.482442,73.231058 7.5746729,70.608603 7.917264,67.883762 7.3983645,70.216908 7.0728648,76.525629 7.2661406,70.65569 7.384323,68.387889 8.6379402,62.667642 7.1736392,67.635717 6.7988358,70.409278 6.7619753,76.395329 5.8863796,71.58328 5.9698643,77.667411 5.117395,68.241578 6.0283565,66.593212 6.9864729,64.186549 7.2462031,60.169688 5.0621408,64.199751 4.3811022,68.520073 3.08638,73.113833 5.026521,77.263443 c 0.9393642,3.901579 4.0045966,6.851654 7.287884,9.060546 -2.5781975,-1.22552 3.539353,2.548293 4.875225,2.603994 2.420932,0.61811 -0.726715,0.08814 2.019737,0.778509 1.898334,0.77358 6.765768,0.618776 7.258545,1.441629 -4.825789,0.263769 -9.634595,-1.012384 -13.86877,-3.100205 3.177534,1.988289 1.690917,1.318966 -0.663528,0.141595 -2.0140875,-1.426621 -3.7509854,-1.878974 -0.776336,0.01351 5.720292,3.686144 12.856833,4.504919 19.500775,4.175903 10.836214,-1.29135 19.831441,-11.060869 20.13027,-21.977686 0.363677,-7.188282 -2.806319,-14.400376 -8.259681,-19.078727 1.075682,0.495707 4.578423,4.879821 2.994131,2.517162 1.902336,1.930609 4.236204,7.231043 4.247667,6.840377 1.273603,2.183897 1.498274,8.331855 1.838898,8.171262 -0.247109,-5.821375 -2.49554,-11.6914 -6.638473,-15.834845 2.866365,3.030385 -2.236652,-2.878782 0.850926,0.503528 4.210156,4.874869 6.557095,11.537914 5.688732,17.967893 -0.838767,3.196569 -1.953754,8.882773 -4.776105,12.211183 -6.856777,9.674438 -20.576463,11.774504 -31.107689,7.516195 -2.679513,-0.54486 -8.4376981,-5.838258 -8.6866379,-4.922649 1.8118861,1.348054 4.2177389,3.761886 0.8154934,1.055083 1.1318639,1.546063 -3.924388,-2.981353 -0.4889617,0.07244 4.5048542,3.874784 10.4136732,5.888022 16.2311622,6.641889 -2.105043,0.01455 -7.567538,-1.258046 -2.665276,-0.122378 4.247459,1.095372 12.147128,-0.131284 13.921895,-0.369682 -4.737298,1.033377 -9.709841,1.366979 -14.497845,0.897565 -2.277295,-0.169459 -6.88246,-2.008279 -7.420053,-2.699673 1.673185,0.850501 5.738336,1.863291 1.677489,0.412393 -3.704788,-1.499801 -7.0990527,-3.89975 -9.6021579,-6.771895 -3.4006242,-2.877104 1.9253032,3.762703 3.5034987,4.312116 8.5614282,6.062137 20.2937082,7.683227 30.0594552,3.738217 4.237897,-1.827245 7.875391,-4.862473 10.683953,-8.501461 -0.03581,0.879792 4.192633,-6.93032 1.417478,-1.62522 -4.004819,6.815277 -11.015727,11.744132 -18.817454,13.077237 8.421129,-1.037019 15.851295,-6.892276 19.871655,-14.243573 -0.594671,1.642531 1.424683,-2.589391 0.39222,-0.180923 -1.478094,3.067878 -0.04793,3.06712 1.126446,-0.164548 1.879014,-2.066605 2.042342,-2.547337 0.703418,-0.22354 3.569764,-3.590571 -0.636716,0.328877 -0.90693,1.852599 0.497056,-0.542018 -0.02666,0.389829 1.156526,-1.114139 -1.829901,2.464555 0.07872,1.461646 -2.208656,3.341393 1.348259,-1.535186 -4.075753,3.474667 -1.478982,3.769272 -0.134332,0.808729 0.809563,0.748484 1.501187,1.592119 1.652288,-0.07345 0.785188,0.627822 2.23192,1.453657 -0.962008,2.88508 3.39632,-2.36423 4.144439,-2.58226 2.212125,-0.755282 5.088123,-2.37114 6.197031,-2.723351 0.806703,0.250999 -2.83635,1.870345 -0.0118,0.517318 -0.360649,0.339653 -0.465377,0.20018 -0.640723,0.604562 2.387965,-0.673734 4.396421,-3.016043 6.733439,-4.395595 1.857242,-1.405685 4.363567,-3.520426 1.121073,-1.120789 -1.321321,1.190962 -7.669361,5.387519 -2.936983,2.169826 2.826504,-2.057399 -4.564672,3.094586 -0.72657,0.380335 1.553248,-0.998162 5.474703,-4.210771 1.881592,-1.411296 -2.125418,1.851248 -4.096154,2.456116 -0.800316,0.194326 3.175723,-2.370618 -3.897411,2.726797 -0.41104,0.128673 1.349333,-0.871633 3.758405,-3.036714 2.915567,-2.385946 2.072811,-2.430738 3.88072,-3.38929 5.370485,0.151614 2.717352,3.513256 5.386124,7.823977 8.631254,10.455494 -1.447528,-1.611493 -4.336077,-5.158421 -1.065566,-1.559596 3.867491,3.574449 -2.166857,-2.530989 -2.824108,-3.923792 -1.720301,-2.146101 2.08342,2.463567 -0.593945,-0.991068 -1.320075,-1.956213 -5.517545,-7.287766 -4.996343,-7.009947 2.307249,2.992827 1.935003,2.435276 4.407435,5.464235 2.091858,3.178332 4.947247,6.060261 7.769511,8.947283 -1.734974,-1.851505 -2.755299,-3.246146 -0.0041,-0.70383 -2.089457,-1.865719 1.235481,0.756707 -1.173564,-1.532722 1.546982,1.758086 6.647363,5.141474 2.227051,1.61685 -2.18886,-2.115838 -1.638942,-1.883546 -0.908256,-2.064378 0.897395,1.369482 6.719734,5.333093 2.942966,2.257493 -2.616426,-1.605773 -3.144661,-4.176232 -0.302299,-1.073088 1.984875,1.708456 3.611464,2.217452 0.620017,0.08053 -1.716992,-1.121371 -3.234087,-3.233537 -0.407666,-0.93107 1.573412,1.658604 3.697175,2.262072 0.787765,0.140433 -1.779706,-1.645198 0.377096,-0.942666 -1.042018,-1.905236 -0.17393,-0.769695 5.358437,5.552243 4.631225,3.774967 -1.416508,-1.768957 -5.983523,-6.069682 -1.788532,-2.005042 0.753217,0.828822 3.533888,3.263398 1.195786,1.056783 1.850303,1.738913 0.735504,-0.08809 1.225234,0.250134 -0.650383,-0.920527 -2.245744,-2.194117 0.238239,-0.208803 -1.194886,-1.139864 -3.637684,-3.65665 -0.872806,-0.907943 2.558204,2.162633 0.216109,-0.181204 -0.352948,-0.966877 -2.030403,-1.847574 -3.834954,-3.799904 -4.541317,-6.537069 2.775684,1.825167 0.713926,-1.173235 1.327549,-0.602558 0.04535,-0.322849 3.78351,2.412279 2.0991,0.0651 -3.323427,-2.216322 3.113368,1.011402 -0.39079,-1.600546 -2.9407,-2.393699 -0.983071,-0.627097 1.002122,0.430608 -2.541972,-2.525981 2.347622,1.058074 1.823651,0.651072 -1.138699,-2.287201 -3.502462,-4.343064 -5.466329,-6.16448 -0.687699,-0.437704 -4.85922,-3.538257 -1.917189,-2.168313 2.331517,1.512337 -0.03115,0.16863 1.48569,1.361624 -1.588805,-1.017788 2.811877,2.350087 3.167263,3.187914 2.994285,3.439591 -0.929886,-1.052764 -2.126431,-2.056197 -4.358098,-3.423619 1.41545,1.076281 2.577085,2.73577 2.108126,2.441287 2.427362,2.725408 2.237074,2.420006 1.50471,1.101535 -0.420093,-1.13228 0.772023,-0.188104 -1.848373,-2.207874 -1.025376,-1.282676 0.02223,-0.388074 -1.328563,-1.496852 -3.151269,-3.727992 -0.704856,-0.87695 2.381149,2.531251 0.252882,-0.171704 -0.292992,-1.02168 -2.172121,-2.521835 -4.511069,-4.797399 -6.967041,-6.974756 2.206766,0.85418 0.44216,-0.111219 -0.712779,-0.588112 -0.994628,-0.81767 -2.512266,-1.998151 -0.463547,-0.548799 -2.910335,-2.00944 0.906982,-0.03049 -1.781815,-1.806629 -1.505201,-1.082503 -5.252479,-3.777578 -1.715195,-1.366126 2.850757,2.062493 5.617492,3.981336 8.018171,6.449023 1.056232,1.267184 4.183785,4.219417 1.509987,1.674314 0.904588,0.913228 3.484946,3.743656 1.53737,1.533244 3.088311,3.32424 -1.853046,-2.405395 0.593816,0.287861 2.612814,2.439412 -2.487441,-3.217614 -3.448904,-3.893229 -1.945029,-2.069417 -7.410752,-6.036437 -7.89304,-6.505621 1.965341,1.14381 5.737727,4.444855 6.219259,4.460711 -1.365045,-1.45288 2.589486,2.059101 3.231841,2.72697 1.316759,1.277268 5.766986,5.832184 2.21537,1.753381 -3.699339,-4.009915 -8.064826,-7.318471 -12.505698,-10.455693 2.709327,1.196593 5.411499,3.592911 7.932333,5.527314 2.146526,1.489156 4.898314,5.046163 6.306592,5.736601 -1.47754,-1.335608 -4.7457,-5.821745 -2.38645,-3.644233 -1.253003,-1.312503 -3.185893,-3.256216 -0.569476,-0.790133 1.436512,1.542944 3.749608,3.759372 1.006808,0.815922 -1.299421,-1.544617 -4.898214,-4.977696 -0.983525,-1.282051 1.533436,0.976646 -6.728079,-6.047743 -2.120795,-2.266011 1.299017,0.980856 5.889981,5.680932 2.334199,1.961291 -1.753462,-1.911711 -3.595255,-3.406713 -3.646305,-3.706401 4.993176,4.02493 -2.533492,-2.531411 -4.486428,-3.682977 -0.204598,-0.534858 6.254577,4.786386 6.814972,5.140254 -2.107562,-1.860746 1.675252,1.105009 -1.397849,-1.503783 -1.672743,-1.672552 3.951993,3.099973 0.863515,0.343131 -2.729215,-1.820493 -6.494013,-5.755469 -5.37435,-5.809444 -2.664484,1.645785 1.232399,-1.248051 -1.238687,0.489892 -1.444763,-0.751957 2.816284,-2.371739 -0.586528,-0.6475 0.896887,-0.440865 -1.362084,0.294355 1.385963,-1.436057 -1.329398,0.68386 1.6715,-1.229084 0.995095,-1.030985 1.836172,-0.985106 6.62951,-4.719769 6.10989,-5.090609 -2.793375,1.601873 2.226532,-1.907995 -0.575155,-0.708999 3.212481,-2.895991 -4.713005,3.283884 -0.731748,-1.130709 1.169232,-1.113304 -1.070419,-1.167311 1.313622,-3.093332 2.001021,-2.206105 2.050394,-2.568503 0.252173,-2.727967 -0.495859,-1.49448 -0.653324,-1.81206 -1.584403,-1.712635 2.431784,-1.883939 -0.258315,-2.069161 -0.82166,-0.922426 1.945041,-3.089108 -2.42437,1.261858 -0.921913,-0.298085 1.542586,-2.083073 -0.734959,0.501574 0.166403,-1.487264 -1.515124,1.329768 -3.820895,1.788721 -5.538158,3.002396 -2.010626,1.330221 -4.550532,3.75963 -4.880298,4.170261 -1.407409,0.464257 0.919052,-0.907165 -1.4004,0.530739 1.93997,-1.444621 3.04696,-2.249994 0.434603,-0.636135 -2.469823,1.562624 1.005399,-0.797174 -0.286789,-0.115195 -3.461456,2.875458 -0.36283,-0.04304 1.036644,-0.967372 -2.553869,1.620785 -3.579097,2.423264 -2.637561,1.273313 -1.447465,1.107877 -5.888501,5.604136 -2.112541,1.725504 3.177717,-2.705074 1.793043,-1.910919 1.455375,-1.971483 1.087224,-2.084622 -3.843131,4.346029 -4.852589,3.330057 -0.632972,-0.433355 -3.766171,-3.100713 -2.652521,-1.893444 0.764266,0.775545 4.549205,3.570855 1.939917,1.67225 3.130993,2.519228 -3.781927,-2.806783 -0.370498,-0.153422 2.099929,1.45485 0.650085,1.172154 -0.374635,0.160776 3.918381,3.151458 -2.272359,-1.648706 -0.982387,-0.483193 -1.803127,-1.336552 -2.774383,-1.813015 -3.302727,-2.585961 -3.126433,-2.121613 -2.594777,-2.444837 0.291978,-0.764288 -2.476855,-1.305322 -5.142749,-3.750067 -7.451994,-5.851891 -0.760341,-0.88964 -2.138568,-0.72787 -2.514839,0.04805 -1.1603,0.191669 -1.781764,-1.015959 -3.244759,-0.179884 0.753794,1.382498 -0.867709,0.680046 -0.705834,0.978325 0.177551,1.154417 0.948197,2.702094 -0.527103,0.0682 0.37607,1.5089 -0.08089,0.516488 -0.22996,0.817028 1.131428,2.489953 -1.573918,-2.748259 -1.574583,-0.174155 -1.937051,-2.315641 -0.258724,2.567046 -1.154435,1.66036 -0.48325,0.271247 2.592036,4.628272 4.458125,5.972783 -2.08487,-0.904312 -4.609702,-6.704309 -5.793444,-5.290115 0.85731,2.331747 4.008611,5.067958 4.969219,6.274549 -1.662965,-0.994891 -6.859588,-8.26997 -3.301462,-3.187198 0.851111,0.772924 3.775534,4.343084 2.076719,3.297318 -2.211911,-1.929788 -4.258827,-5.378036 -4.832781,-5.426028 -1.682002,-0.727346 3.004949,5.165413 4.706168,6.372736 -0.04526,0.882214 3.488855,3.490408 0.563852,1.379767 1.188159,1.758409 2.431533,2.248442 1.765261,2.227787 0.940731,1.213727 -0.906671,-0.921865 0.745691,1.235062 1.649624,2.093837 2.510085,3.411882 0.329194,0.554473 -3.442238,-4.391624 0.938332,1.298995 1.355422,1.946147 -0.966355,-1.022863 -2.658197,-3.654955 -3.089728,-3.725354 -0.71145,-0.188034 1.903131,2.973772 2.895438,4.285003 1.641825,1.460089 -1.377699,3.328744 2.332061,3.396766 2.359265,1.304445 1.046122,0.07636 3.096957,1.10019 -0.239837,1.615159 -3.27847,4.063008 -1.814892,2.124932 -1.833615,2.492987 0.292718,-0.650937 -0.427364,0.0057 -0.07791,-0.556063 -3.094458,4.148363 -4.83173,4.336169 C 58.515891,72.114445 52.183444,77.438703 54.7,73.053337 55.447869,66.2041 53.822531,58.843069 49.501201,53.321019 c 1.38449,1.723147 4.703692,8.767985 1.92133,3.632854 -4.612962,-9.126282 -14.718516,-14.795479 -24.87511,-14.452783 1.53314,-0.415741 9.325738,0.421455 12.616147,2.442158 1.997738,0.526187 4.987415,3.472563 6.207651,3.406538 -4.527809,-3.442463 -9.94443,-5.842262 -15.656407,-6.243035 6.222904,0.06745 12.406229,2.428788 16.739116,6.978762 3.73416,3.129372 6.33115,7.392103 7.892455,11.974088 -3.187076,-12.20442 -15.963759,-20.606653 -28.402918,-19.409146 -4.847671,-0.5533 -7.95889,-4.9884 -8.92607,-9.451101 -1.49498,-3.568361 0.921707,-10.729985 4.97028,-13.62985 0.881501,-1.996023 10.074582,-3.105914 5.037912,-2.969706 2.406109,-1.252209 9.038733,1.458895 3.500562,-0.525033 -2.971984,-0.551486 5.305743,1.141531 1.036256,-0.186696 -5.036888,-1.47677 -10.034682,1.427289 -13.353333,5.05976 2.011478,-3.461211 7.044374,-5.04507 9.806646,-6.266304 2.533807,-0.55274 5.556977,0.179554 1.006657,-0.444418 -2.343748,-0.451068 -9.709485,3.629095 -4.19716,1.05575 5.706826,-1.477205 -2.597427,0.767329 -3.741353,2.235798 -3.386788,2.769696 0.264805,-0.567269 0.998885,-0.973342 -3.049763,1.204889 -6.279854,6.73647 -6.729732,7.467856 2.176389,-6.530719 9.530714,-11.35311 16.413819,-9.827039 2.25717,0.179289 6.287302,3.328167 6.975875,3.395293 -0.795414,-1.488682 -6.976093,-4.531741 -2.432397,-2.517626 2.666712,1.411178 0.756111,0.54516 -0.347636,-0.674408 1.78981,0.706807 6.001279,3.775404 2.329076,0.897635 -2.015914,-1.281788 2.989897,1.260452 0.07913,-0.655708 -1.485606,-1.302491 -7.668448,-3.7807417 -2.754593,-1.845469 3.545618,1.79945 -2.787921,-1.606306 0.970304,0.03181 4.072191,1.425696 -4.572752,-3.1031289 -6.194134,-2.4960374 -7.08948,-0.5038216 -13.94109,3.5884764 -17.744273,9.3764614 0.51094,-2.360291 5.374016,-7.114222 9.081826,-8.352011 5.398378,-2.5329866 11.842847,-2.0033792 16.842556,1.209929 4.321244,2.916423 8.324811,7.162805 9.469322,12.407909 0.96084,2.240333 -1.675664,9.266069 0.61495,4.029213 1.148839,-2.276867 -0.432797,-6.980028 -0.383973,-7.81348 0.887384,1.009631 -2.866249,-5.228267 -4.494735,-6.47086 -3.474642,-3.39344 -7.978464,-5.8149727 -12.765617,-6.6807446 4.647697,0.091213 8.909577,2.5088789 12.08497,5.6711896 1.446491,1.628363 3.98221,3.949594 1.143188,0.891908 -1.523257,-2.192175 6.27351,7.486241 2.419156,2.408624 -1.652535,-2.528286 2.69919,3.021989 2.689035,4.678091 0.694457,1.935653 2.399133,8.13195 1.536262,2.61114 -1.165685,-4.712843 -3.73745,-9.2452 -7.783734,-11.990149 C 41.569208,10.026395 36.645328,6.8632735 41.13457,9.5448398 44.374022,11.617194 38.138918,7.1375826 36.435407,6.7088705 33.130601,4.361588 25.527646,5.9643248 25.076926,5.0795127 22.545279,5.1440792 16.741882,8.2372358 22.418691,6.1972738 20.896048,6.5971592 15.163258,9.8562157 18.822817,7.5482245 16.791494,7.987658 14.288034,10.177286 17.511499,7.874174 21.781368,5.2684071 26.920283,3.8164464 31.925605,4.576184 26.386322,3.3383254 39.8415,5.5274698 33.498762,4.051452 31.886604,3.7404991 30.243802,3.5473546 28.600757,3.5466134 Z M 39.820225,67.6011 c -0.0465,0.0426 0.06336,0.05888 0,0 z M 61.43286,8.0543487 c -0.38443,0.010469 -0.550655,1.5023713 -1.050018,0.8381998 -0.310429,0.3856444 0.783579,2.4369815 -0.36422,0.3297018 0.198292,1.0180227 -0.490129,-0.050598 -0.04443,1.1048877 -0.919767,-1.9522986 -0.988418,-0.5548307 -1.999362,-1.0536834 -0.377945,0.653252 0.634615,2.1702874 -0.106457,1.4174894 -0.123576,1.425338 5.244275,6.124889 1.567848,2.643284 -0.552944,-1.312383 -3.471853,-3.7943068 -1.88412,-1.14147 1.124488,1.718509 4.861886,5.196884 1.127573,1.581814 -3.597319,-4.2736051 1.220456,1.121884 1.16893,1.96314 -1.384253,-0.84208 -3.26236,-3.997982 -3.578614,-3.871602 -1.35939,-0.280833 2.778125,3.678323 3.299538,4.774369 1.529392,1.311195 0.417005,0.542837 0.713146,1.054762 1.302457,1.131555 0.79373,1.006076 0.851614,1.114625 -0.482866,-0.3764 2.622573,3.468243 1.359117,1.983889 -1.069213,-1.395614 -2.671029,-3.411549 -0.437748,-0.47805 2.072933,2.684835 -1.165908,-1.406702 -1.283099,-1.525485 -0.590131,-0.395686 0.163942,0.737817 0.957061,1.69808 1.909072,1.083248 0.633523,2.537434 1.474319,3.220473 2.223461,0.583334 1.627867,0.701292 3.183782,0.895023 -0.154919,1.12955 -2.257086,2.894516 -1.305302,1.601971 -1.042366,1.286547 0.07318,-0.157151 -0.223184,-0.305935 -1.491584,2.235324 -2.897406,2.862308 -3.58226,3.520211 -2.110004,1.099241 -2.478596,2.497524 -0.95394,1.654686 0.279142,-0.300575 -3.901219,4.122176 -2.003992,2.70786 2.083565,-2.356744 -1.756004,2.292549 0.801479,-0.757058 -1.4345,1.606334 -0.469596,1.343389 -0.260929,0.987585 0.184375,-0.142264 -0.911559,1.638848 0.157599,0.110588 -1.228996,2.292089 0.819974,-1.384966 -0.561719,1.397308 -0.796439,3.558045 3.651314,-5.127068 1.659851,-1.074885 2.855789,-3.191543 -1.762422,2.180485 -0.370518,1.158072 0.894779,-1.388479 -0.357903,1.184944 -0.329666,1.04335 0.01476,-0.261716 -3.330462,2.823161 -1.520836,3.332102 -0.18041,0.339001 1.216684,1.44928 1.716167,0.867167 0.16005,0.56041 0.420187,2.903858 2.262895,0.420096 1.009194,-1.493866 3.225702,-1.765634 4.479314,-2.514588 2.357029,-1.436408 -0.146001,0.701986 0.720954,0.06824 0.937661,-0.510209 -1.291877,0.774495 0.489502,-0.0067 1.945623,-1.228629 4.347733,-2.972603 6.048725,-4.450893 -0.719569,0.548725 -6.791856,4.861035 -3.292844,2.387521 1.522434,-1.133844 -3.737928,2.531452 0.309543,-0.309541 3.837092,-3.044128 -1.346588,1.234676 -1.190116,0.579878 1.751703,-1.330373 2.408966,-1.8048 0.111065,-0.17827 2.37692,-1.798476 2.419676,-1.909438 3.834936,-3.180191 2.464373,-1.897711 4.045206,4.44561 6.244061,5.931431 1.135907,1.493039 3.454104,3.564995 0.773411,0.586251 -1.745467,-1.974186 3.910341,3.833115 0.837855,0.529948 -2.150192,-2.644403 -1.842721,-2.293174 -2.213747,-2.93675 -1.495001,-1.990903 -5.959864,-8.16261 -2.085664,-3.04013 -0.325555,-0.737409 1.378096,1.756125 1.906346,2.295479 1.311384,1.93226 3.149348,3.724332 4.864313,5.500444 -1.619434,-1.692778 -1.267462,-1.672212 -0.224793,-0.716248 -0.966781,-0.815225 1.022551,0.656874 -0.581889,-0.81494 1.331783,1.439506 4.721015,3.603183 1.164788,0.781857 -1.24238,-1.340855 -0.590934,-0.839634 -0.252687,-1.082122 0.886034,1.202364 4.834739,3.744014 1.584447,1.180917 -3.350525,-3.542724 1.361868,0.729319 1.839576,0.623696 -1.375363,-0.779812 -4.237585,-3.797884 -1.150343,-1.30055 3.28129,2.627157 -1.71543,-1.982158 -0.02898,-0.94377 -1.943164,-2.34218 2.831094,2.822158 2.807577,2.237588 -1.100289,-1.594305 -4.279267,-4.340663 -1.038697,-1.279495 1.986325,1.651673 0.147816,0.497931 1.454683,0.868734 0.226282,-0.0091 -1.580358,-1.848815 -0.415474,-0.757516 0.771141,0.274001 -2.808121,-2.520261 0.80357,0.385009 -1.033146,-1.141889 -2.048273,-2.30315 -3.239094,-3.467051 -0.928494,-1.921921 -1.318519,-2.321328 0.141056,-2.130103 -1.831622,-2.268553 1.812747,1.317749 1.443321,-0.329658 -2.699847,-1.879713 2.209575,0.618211 -0.906404,-1.642315 -2.512298,-1.895454 2.348131,1.749899 0.610297,0.01653 0.722776,-0.133016 2.358641,2.18968 1.428321,0.449057 -1.272306,-1.522629 -3.029833,-3.505081 -4.40904,-4.291268 -2.907885,-2.056678 0.471561,-0.561242 0.492469,-0.172079 -0.496396,-0.195818 0.159943,0.278878 -0.02067,0.23252 1.15691,0.890228 2.468762,2.314225 3.209561,3.246345 -1.01558,-1.187346 -2.607066,-2.847339 -3.634911,-3.410668 2.032924,1.260868 5.043959,5.360616 4.699973,4.545458 0.860623,0.643736 -0.332708,-0.803809 0.386542,-0.217509 -2.332889,-2.680425 1.672111,1.576976 -0.814942,-1.234612 -1.856064,-2.00648 3.057719,3.258066 0.329159,0.02839 -1.036178,-1.675007 -3.01611,-3.208721 -4.452481,-4.710878 -1.054435,-0.840176 1.670172,0.540151 -0.641351,-0.650597 -1.434755,-0.930987 -1.492776,-1.046696 -0.945173,-1.031461 -2.117355,-1.616158 -4.66217,-3.437924 -1.058323,-0.933796 2.282915,1.616134 4.66143,3.69903 6.326758,5.66377 -1.940793,-1.995987 1.676989,1.846679 0.490932,0.51107 1.547184,1.546271 -2.152249,-2.604277 0.676863,0.470193 -1.563406,-2.365798 -5.438823,-5.587828 -8.405172,-7.694622 0.554904,0.09123 5.156278,4.002287 4.264853,2.879938 1.684693,1.361801 3.297047,3.082718 4.932549,4.606964 -2.49016,-3.447806 -6.671634,-6.081597 -9.499679,-8.587071 3.540979,2.272798 6.739,5.026842 9.689333,8.007258 -0.997521,-1.129698 -3.31092,-4.034878 -1.729125,-2.693901 -4.382689,-4.537084 4.295965,4.223938 -0.03514,-0.307986 -1.324504,-1.57874 -2.541623,-2.544867 0.02273,-0.245971 -1.302486,-1.425591 -4.66905,-4.222033 -1.121379,-1.246955 3.420215,3.344349 0.609755,0.269107 -1.269678,-1.362714 0.01061,-0.163373 -0.964275,-0.98902 0.985988,0.639243 -0.02347,-0.508119 -7.841671,-6.150566 -2.667537,-2.422083 2.584788,2.101012 3.991784,3.236473 1.644864,0.897101 4.996048,3.279998 -5.30997,-3.02837 -2.363161,-3.511934 -2.172078,0.985705 0.420471,0.05363 -1.603002,0.240296 2.524641,-1.781355 -2.039869,1.138598 0.974102,-1.220123 -0.426558,0.09991 2.714079,-1.974165 4.52478,-3.530042 1.705941,-1.726073 -1.865794,0.8536 0.620632,-1.258839 -0.547899,-0.225007 0.04906,-0.488591 -1.55908,0.319366 -0.943958,0.621388 1.238767,-1.773565 0.507987,-2.060822 0.959648,-1.431183 2.901239,-3.025447 0.902796,-2.838582 -0.339167,-1.024023 -0.44708,-1.241114 -1.084677,-1.172559 C 89.618937,7.8180915 86.140792,9.9590425 87.21576,8.9345024 86.993415,7.8163432 85.241349,11.20168 86.688207,8.4910862 c -0.234838,0.022842 -0.933288,-0.00775 -2.710419,1.111046 -1.452569,0.3439359 -4.372422,3.1908798 -4.489674,3.3786358 -0.771953,0.321185 -1.634707,0.766786 0.363288,-0.566867 -0.36783,-0.02278 -3.237171,2.073799 -1.018017,0.358195 -2.246992,1.634372 -1.320431,0.82552 0.340574,-0.427922 -1.794684,1.103542 -2.445962,1.640693 -1.823154,0.860932 -1.218037,0.991487 -4.108271,3.89981 -1.238203,0.973632 2.700628,-2.269952 -0.05098,-0.315247 1.135854,-1.566313 -1.628114,0.582253 -2.844562,4.250553 -4.438494,2.094462 -1.938156,-1.581876 -1.103838,-0.589089 0.525079,0.591164 1.032702,0.868026 -0.827603,-0.650104 0.330723,0.376715 -3.047064,-2.245912 0.139999,-0.113447 -0.363768,0.02839 -1.991697,-1.568179 1.656269,1.436434 -0.946203,-0.614385 -1.028093,-0.669337 -0.885455,-0.5268 -2.594207,-1.794662 0.695637,0.324989 -3.506404,-2.776212 -0.758093,-1.16014 C 71.600346,13.393212 65.06497,9.7228129 65.045678,8.787595 64.343538,7.8945626 63.370576,7.9835263 63.021396,8.5716844 62.528347,8.559774 62.435893,8.671192 61.43286,8.0543487 Z M 79.292751,38.20858 c -0.0096,0.0041 0.01807,0.01313 0,0 z M 85.393672,9.1421375 c -1.64498,0.8434178 -3.893816,2.2018355 -0.910535,0.4273694 l 0.814938,-0.3839563 0.0956,-0.043408 z m -25.625827,0.021704 c -0.0042,0.051326 0.05699,0.0044 0,0 z m 25.460978,0.1772504 c -1.330353,1.0093251 -1.913714,0.7874851 0,0 z m -2.057754,0.01188 c -1.624904,0.8460041 -3.440623,2.5472361 -4.527855,3.4943791 1.128754,-0.626085 4.541994,-3.7381557 1.813369,-1.331678 2.264685,-1.7966748 2.390683,-1.80767 1.995728,-1.6050361 -0.6469,-0.1291857 1.136829,-0.4347587 0.718758,-0.557665 z m 0.129707,0.12299 C 81.521393,10.429577 77.504262,14.19508 81.467617,10.789826 82.049873,10.313075 82.68898,9.9065012 83.300776,9.4759619 Z m -23.003246,0.03256 0.08682,0.156579 z m 25.705925,0.227893 c -0.219937,0.3552871 -0.213078,0.051894 0,0 z m 2.368846,0.3054071 c -0.03659,-0.0061 -3.09e-4,0.0396 0,0 z m -5.477185,0.0031 c -1.702464,1.09478 -3.962759,3.203273 -0.900389,0.663249 0.243744,-0.289976 0.641036,-0.394317 0.900389,-0.663249 z m -22.121648,0.431499 0.172083,0.232543 z m 23.49314,0.0062 c -0.0459,0.056 -0.181093,0.09165 0,0 z m -0.109553,0.129708 c -1.549452,1.079274 -4.786175,3.730265 -1.46708,1.018541 0.468564,-0.367652 0.956959,-0.710938 1.46708,-1.018541 z m -0.119888,0.01705 c -1.517282,0.933346 -5.809198,4.597418 -1.994171,1.396244 0.641493,-0.490379 1.278418,-1.024275 1.994171,-1.396244 z m -1.296565,0.01033 -0.05788,0.05271 z m -0.148309,0.104903 c 0.0048,0.162185 -0.178292,-0.01535 0,0 z m -21.555273,0.08888 c 0.0514,0.0042 0.0192,0.07199 0,0 z m 21.411096,0.01912 c 0.02452,0.0025 -0.03223,0.02032 0,0 z m -0.07132,0.05478 -0.08992,0.07183 z m -0.157096,0.119373 -0.118338,0.0894 z m -0.508495,0.392224 -0.04651,0.04031 z m -0.127124,0.0925 c 0.02856,0.01557 -0.02956,0.01858 0,0 z m -1.245402,0.0894 c -0.09656,0.04682 1.45e-4,0.03304 0,0 z m -0.06925,0.06201 c -0.0508,0.0073 -0.01275,0.04347 0,0 z m 2.983797,0.02687 c -1.904404,1.654832 -3.036242,2.661672 -0.276927,0.315695 -1.600275,1.698716 -0.514662,0.734879 -1.704756,1.917176 0.08623,-0.102957 -1.482472,1.630977 -1.653155,1.449664 -0.5782,0.506358 -3.361806,3.628738 -2.179739,2.037124 0.9037,-1.116462 -0.78418,1.282366 0.524007,-0.581439 0.445996,-0.404902 0.289356,-0.753545 1.349256,-1.427801 0.540706,-0.734933 1.974027,-1.279525 2.139522,-1.877903 -2.215208,1.522073 -3.477418,2.497101 -0.736378,0.20153 1.720273,-1.397972 1.399293,-1.149017 1.528063,-1.193203 0.352513,-0.261223 0.650651,-0.589542 1.010107,-0.840843 z m -1.972488,0.05581 -0.478525,0.401526 z m 0.06305,0.12609 -0.08682,0.08527 z m -0.104386,0.07958 c -1.530289,1.37708 -1.391931,1.042714 0,0 z m -0.520382,0.265617 c -1.356012,1.276624 -1.796996,1.398327 8.6e-5,2.6e-5 z m -0.723988,0.318844 c 0.02571,0.03365 -0.08072,0.02701 0,0 z m -1.869654,0.314709 -0.15141,0.08992 z m 3.615285,0.08475 c -0.07101,0.03013 -1.99e-4,0.03166 0,0 z m -12.57391,0.03514 c 1.721502,1.171566 2.866892,2.324823 0.13182,0.300207 -0.444187,-0.819703 -0.27549,-0.149915 -0.13182,-0.300207 z m 12.512932,0.01395 c -0.0525,0.03119 0.03913,0.0062 0,0 z m -3.811654,0.03152 c -0.06809,0.0024 -0.01832,0.06837 0,0 z m -0.173117,0.121956 c -0.02145,-0.0076 -0.02534,0.0462 0,0 z m -0.155546,0.14366 c -0.385327,0.201383 0.136026,0.0589 0,0 z m -6.192387,0.313676 c 0.0092,0.04155 0.04905,0.01055 0,0 z m 8.253761,0.0088 c -1.840612,1.608526 -1.146559,0.893185 0,0 z m -9.50278,0.14366 c 0.02946,0.03253 0.04324,0.01803 0,0 z m 11.421525,0.0057 c 0.01783,0.03519 -0.06119,0.01534 0,0 z m -1.712039,0.0083 c -0.540157,0.741156 -0.161541,-0.07796 0,0 z m -0.230478,0.04392 c -0.01209,0.02344 -0.03939,0.01557 0,0 z m -0.232543,0.192753 c -0.02905,0.05416 -0.05232,0.02314 0,0 z m 0.140042,0.05116 c 0.01941,0.05589 -0.08205,0.01746 0,0 z m -0.28112,0.0739 c 0.0076,0.0042 -0.01495,0.0081 0,0 z m -8.503872,0.05478 c 0.600202,0.476502 0.1513,0.08707 0,0 z m 8.580871,0.03927 c 7.38e-4,0.03176 -0.04664,0.01664 0,0 z m -0.09922,0.08785 c -0.91115,0.928566 -4.179662,3.829481 -1.825704,1.374659 1.459091,-1.354766 1.06538,-0.966143 1.272773,-0.912618 0.340422,0.04636 0.345707,-0.338075 0.552931,-0.462041 z m 1.26659,0.107487 c -0.361987,0.614717 -0.307232,-0.08917 0,0 z m 0.56379,0.0093 c -0.818817,1.230865 -1.789213,1.307489 0,0 z m -1.567863,0.0036 c -0.13775,0.147117 -0.160812,0.102561 0,0 z m -0.154514,0.133326 c -0.183792,0.399733 -0.203032,-0.111737 0,0 z m 1.557528,0.02325 c -0.149745,0.13614 -0.433633,0.41654 0,0 z m -1.437637,0.07028 c -0.06132,0.09701 -0.105314,0.0093 0,0 z m 0.787548,0.01137 c -0.03507,0.0098 0.0089,0.02692 0,0 z m -1.270722,0.162264 c 0.09831,0.006 -0.09208,0.117796 0,0 z m -6.893121,0.116789 c 0.03441,-0.005 0.03528,0.05643 0,0 z m 0.870749,0.06201 c -9.96e-4,0.028 0.05283,0.02359 0,0 z m 5.848739,0.01033 c -0.0051,0.01114 -0.01354,0.0031 0,0 z m -5.790862,0.03566 c 0.01507,0.03952 0.0698,0.02097 0,0 z m 5.693709,0.0026 c 0.125558,0.03107 -0.139964,0.113483 0,0 z m 1.822112,0.02274 c -0.0262,0.188604 -0.761151,0.578921 0,0 z m -1.763718,0.02067 c -0.0012,0.168423 -0.200257,-0.02013 0,0 z m -0.01757,0.06408 c -0.04862,0.04311 -0.03153,-0.0045 0,0 z m 1.48518,0.05116 c -0.03381,0.01797 -0.01445,0.03703 0,0 z m -20.715533,0.0072 c -0.08699,0.25058 0.525956,0.239943 0,0 z m 19.006076,0.05581 c 0.03358,0.06665 -0.179593,0.03937 0,0 z m 0.334346,0.06614 c -2.638881,2.797023 -1.88341,1.462261 0,0 z m -0.497128,0.04393 c 0.274406,-0.0029 -0.361059,0.26492 0,0 z m 1.467612,0.07079 c -0.46575,0.700809 -0.60188,0.419395 0,0 z m -19.264458,0.03462 c 0.269741,0.219093 0.177168,0.380001 0,0 z m 18.631937,0.06253 c -0.04116,0.02058 0.02419,0.02623 0,0 z m -0.122473,0.109037 c -0.07106,0.02151 0.04254,0.01718 0,0 z m -0.990637,0.02015 c 0.07901,0.0011 -0.07215,0.063 0,0 z m 0.810805,0.14056 c -0.06034,-0.01256 0.01151,0.05456 0,0 z m -0.138494,0.09767 c -0.133145,0.06857 0.03044,0.106879 0,0 z m -0.944644,0.03772 c -1.76e-4,0.04575 -0.06995,0.02966 0,0 z m 0.732771,0.100253 c 0.06494,0.03083 -0.05846,0.05228 0,0 z m -17.335894,0.03152 c 0.465429,0.341123 1.697057,1.471602 0,0 z m 17.442347,0.06356 c -0.0074,-0.0012 -3.53e-4,0.0061 0,0 z m -0.0026,0.0021 c -0.0945,0.0676 -0.07542,0.134521 0,0 z M 59.26553,16.269358 c -0.475463,-0.173969 0.269967,1.597424 0.379309,0.869181 -0.787259,-1.448982 0.726198,0.665959 -0.379309,-0.869181 z m 18.976617,0.03824 c -0.07898,0.322979 -0.664906,0.819744 0,0 z m -17.604091,0.0708 c 1.190493,0.908927 0.649582,0.929904 0.07338,0.112137 z m 17.928619,0.146761 c -0.403956,0.61935 -0.734007,0.72265 0,0 z m -0.196369,0.001 c -0.01209,0.0083 0.01009,0.0058 0,0 z m -0.0093,0.128674 c -0.01741,-0.0032 -0.01931,0.04597 0,0 z m 0.515215,0.14366 c -0.487532,0.690636 -0.09657,0.03596 0,0 z m -16.711179,0.119392 0.266649,0.230477 z m 15.948898,0.06511 c -1.251626,1.540153 -1.003508,0.998094 0,0 z m -0.203608,0.03307 c -0.02595,0.0029 0.01256,0.01953 0,0 z M 62.1237,17.12149 c 2.679973,1.820464 1.408735,1.481698 0,0 z m -1.39578,0.176217 c 0.864334,0.439175 1.102788,1.338622 0,0 z m 16.538525,0.01964 c -0.342584,0.906604 -0.99193,0.728353 0,0 z m -0.54932,0.03669 c 0.01405,-0.0062 0.004,0.02961 0,0 z m -0.752925,0.01499 c 0.0059,0.143202 -0.205101,-0.02366 0,0 z m -15.035776,0.249597 c 1.654321,1.767132 0.629106,0.718213 0.417947,0.787648 -0.130661,-0.09289 -0.383715,-0.409394 -0.417947,-0.787648 z m 17.005165,0.144177 c -0.374008,0.406812 -0.141947,0.155191 0,0 z m -16.966406,0.0088 c -9.87e-4,0.0022 0.005,0.0031 0,0 z m 0.01447,0.02015 c 0.249204,0.389033 0.64192,0.896262 0,0 z m 0.525033,0.12454 c 0.453283,0.29463 2.785191,2.370311 0.871815,0.924518 -0.325867,-0.270546 -0.690186,-0.529871 -0.871815,-0.924518 z m 15.520498,0.04341 c -0.03089,0.01678 0.02043,0.01584 0,0 z m -0.08216,0.08785 c -0.02786,0.0117 0.0159,0.02648 0,0 z m -15.921509,0.02584 c 0.292277,0.272245 0.0766,0.277966 0,0 z m 0.346747,0.275435 c 0.0062,0.04065 0.03986,0.01666 0,0 z m 0.23358,0.01447 c 0.01095,0.03369 0.03169,0.02401 0,0 z m 0.352949,0.19172 c 1.459834,1.009876 1.076061,1.368458 0.600957,0.769416 0.841903,0.526022 0.114455,0.28974 -0.600957,-0.769416 z m -0.392224,0.362252 c 0.555671,0.439944 0.569872,0.848497 0,0 z m -0.774631,0.07493 c 0.01158,-0.0067 2.62e-4,0.01245 0,0 z m 0.775147,0.155546 c 0.01005,-1.13e-4 -0.0029,0.0097 0,0 z m 0.248563,0.05633 c 0.0089,0.01991 0.0091,-0.0058 0,0 z m -0.354499,0.0026 c 0.04136,0.03755 -0.02464,0.0014 0,0 z m 0.181385,0.03152 c 0.04509,0.03976 -0.02287,0.01785 0,0 z m -0.613918,0.06925 c 0.07124,0.05785 -2.8e-4,0.06744 0,0 z m 0.993222,0.0088 c 0.07736,-0.01672 0.02184,0.128811 0,0 z m -0.450618,0.04858 c 0.06047,0.05227 -0.03242,0.0045 0,0 z m 0.212389,0.06976 c 0.02116,0.01993 -7.27e-4,0.02358 0,0 z m -0.171566,5.29e-4 c 0.172622,0.05709 0.310434,0.501532 0,0 z m 0.599964,0.04754 c 0.575473,0.526576 1.506152,2.077616 0,0 z m -0.547254,0.387056 c -0.02743,0.02518 0.07307,0.04487 0,0 z m 1.072804,0.0739 c 0.200643,0.163095 0.303994,0.435039 0,0 z m -0.98547,0.03256 c -0.01433,-2.7e-4 0.009,0.0122 0,0 z m 21.567158,1.226282 c -0.120084,0.01232 -0.05978,0.137858 0,0 z m -20.198765,0.505912 c 0.221569,0.07382 0.186212,0.341477 0,0 z m 0.149344,0.04806 c 0.0842,-0.03176 0.0087,0.100965 0,0 z m 18.860347,0.433565 c 1.042752,0.26999 -0.206111,0.48722 0,0 z m 0.42323,0.287838 c 0.261993,0.107048 -0.206446,0.10669 0,0 z m -19.948067,0.63457 c -0.01976,0.01815 0.04037,0.0014 0,0 z m 17.870225,0.362252 c 0.385932,0.180629 -0.34034,0.14474 0,0 z m 0.225827,0.156063 c 0.250661,0.16178 -0.373415,0.112501 0,0 z m -0.775147,0.959114 c 1.529567,0.899838 4.154782,3.025834 1.087763,0.930294 0.550928,-0.148411 -1.771277,-0.758241 -1.087763,-0.930294 z m -77.2211243,0.0894 C 1.6895791,30.095382 2.4463516,35.726473 4.432723,40.832761 2.3463858,36.006945 1.5037851,30.388382 2.5299449,25.191973 l 0.1731678,-0.5128 z m 77.0206203,0.02067 c 1.217756,0.562323 -0.18281,0.206709 0,0 z m -12.995071,0.02739 c -0.49625,1.235101 -0.628941,1.121637 0,0 z m 0.0894,0.03256 c -0.279587,0.848112 -0.63941,1.14934 0,0 z m 0.307991,0.116272 c 0.583249,-0.0198 -0.595787,0.588407 0,0 z m 13.036412,0.118339 c 2.68084,1.650242 1.508392,1.34513 0,0 z m 0.688332,0.321944 c 0.157158,0.138198 0.07081,-0.0095 0,0 z m 0.256831,0.1757 c 0.04325,0.04446 0.01809,-0.0088 0,0 z m -15.059546,0.318328 c -0.0054,0.02045 -0.06052,0.03203 0,0 z m 15.817639,0.208256 c -0.01059,0.02267 0.05063,0.01564 0,0 z m 1.506886,0.04496 c 0.104933,0.03408 0.06782,0.09792 0,0 z m 3.751707,0.261482 c -0.303253,0.08353 0.795464,0.457039 0,0 z m -22.510768,0.14831 c 0.0098,0.01028 -0.01353,0.0047 0,0 z m 19.417935,0.08423 c 0.867003,0.06771 -0.18253,0.09632 0,0 z m 3.607533,0.208774 c 0.0186,0.0396 0.0533,0.0233 0,0 z m -23.340695,0.137975 c -0.03744,0.103522 -0.0806,0.02895 0,0 z m 20.20135,0.0067 c 0.311771,-0.112781 0.420502,0.804781 0,0 z m 3.412712,0.117821 c 0.05768,0.106289 0.110415,0.0421 0,0 z m -4.10931,0.09767 c 0.109244,0.0182 -0.0068,0.10351 0,0 z m -0.192236,0.03152 c 0.315028,0.265714 0.133709,0.07372 0,0 z m 2.849439,0.07906 c 0.269829,0.200664 0.04525,0.09771 0,0 z m -1.52394,0.01138 c 0.309287,0.140527 -0.0358,0.138431 0,0 z m 3.226676,0.01654 0.239781,0.251148 z m -4.078819,0.145727 c 0.0411,0.208222 0.316488,0.08769 0,0 z m 2.674255,0.119375 0.364836,0.31781 z m -3.650422,0.06769 c 0.17499,0.04807 -0.07841,0.06995 0,0 z m 1.338935,0.109037 c 0.01472,0.08326 0.06698,6.81e-4 0,0 z m -1.706357,0.09043 c 0.204289,-0.02697 0.276428,0.201833 0,0 z m 0.565341,0.07493 c 0.442617,0.0276 0.254266,0.244727 0,0 z m 0.143145,0.113688 c 1.610169,0.961202 0.934858,0.85433 0,0 z m 1.405083,0.05633 c -0.05015,2.74e-4 0.06984,0.05531 0,0 z m -1.452626,0.205155 c 0.443603,0.159629 -0.271286,0.0014 0,0 z m 1.703255,0.0057 c -0.0058,0.04422 0.08281,0.02658 0,0 z m -1.237133,0.01394 c -10e-7,0.01032 0.01203,-0.0046 0,0 z m -0.318845,0.379823 c 0.525655,0.122539 -0.321957,0.03436 0,0 z m 1.631942,0.05374 c 1.024141,0.975483 1.245899,1.013414 0,0 z m -1.698087,0.02273 c 0.83169,0.295286 0.278718,0.16503 0,0 z m -1.029912,0.0062 c 0.08316,-0.04329 0.07345,0.150522 0,0 z m 1.490866,0.05116 c 2.379747,1.533365 0.851803,0.829633 1.584923,1.297108 1.309908,1.063251 -0.349096,-0.03529 -0.446483,-0.307465 -0.824897,-0.626352 -0.434913,-0.580089 -1.138474,-0.989567 z m -9.937377,0.298689 c 1.534833,1.65059 2.138669,2.841728 0,0 z m 10.881506,0.04289 c 0.321193,0.137059 0.400789,0.484889 0,0 z m -10.948686,0.0739 c 1.898647,2.231571 1.342703,1.758376 -0.07805,0.134309 l 0.07803,-0.134358 z m 9.184968,0.100254 c 1.985638,0.852343 1.066969,0.96017 1.95698,1.571471 1.487524,1.173099 4.391703,4.412263 1.133776,1.498619 -0.693115,-0.592976 -4.396725,-3.748739 -1.939403,-2.005585 -0.634789,-0.237603 -0.696637,-0.81874 -1.151353,-1.064505 z m -0.284221,0.05064 c 0.155769,0.0083 0.09325,0.10752 0,0 z m 2.43758,0.0026 c 0.133051,0.09699 0.01958,0.03512 0,0 z m -0.650092,0.0057 c 0.01557,0.01092 0.0051,-1.53e-4 0,0 z m 0.0078,0.0041 c 0.368861,0.244085 0.933883,0.580772 0,0 z m 1.89601,0.07906 c 0.0069,0.04187 0.03873,0.0033 0,0 z m -73.12887,0.209288 c -0.31358,2.548747 3.225434,9.069125 2.544624,8.753753 -1.141702,-1.377503 -2.723861,-8.353959 -1.47135,-2.808843 0.840322,4.307655 6.247864,8.384546 6.716423,8.253404 1.765213,1.067806 7.642196,1.28 11.086197,1.770496 4.31862,0.816322 8.434048,2.837284 11.563545,5.930165 -2.360194,-2.033303 -6.572848,-4.605642 -8.604126,-4.721674 2.155926,0.356085 8.414653,4.311003 7.589202,4.513418 C 38.178667,47.479316 32.10275,45.339238 26.090832,45.730672 20.404752,45.106211 15.40707,40.623187 14.258979,35.014153 13.673702,33.29507 13.378735,31.463605 13.402249,29.647882 Z m 71.791999,0.07441 c 0.01701,0.03651 0.04146,2.62e-4 0,0 z m -11.549166,0.0098 c 0.784742,0.879036 0.8298,1.216702 3.3e-5,-1.1e-5 z m 13.244153,0.01291 c 0.0359,-0.0089 0.06262,0.09379 0,0 z m -1.307412,0.0031 c 1.092672,0.820045 2.125839,2.109487 0.513623,0.448034 -0.111358,-0.157682 -0.409122,-0.274606 -0.513623,-0.448034 z m -0.260967,0.07751 c 0.102141,0.114412 0.06795,-0.0097 0,0 z m 1.793172,0.0832 c 0.621411,0.580596 -0.09121,0.03627 0,0 z m -1.826763,0.01963 c -0.0108,0.04315 0.105398,0.0266 0,0 z m 0.319363,0.0078 c 0.462775,0.225818 2.807336,2.725058 1.166378,1.101194 -0.384111,-0.36487 -0.815459,-0.726496 -1.166378,-1.101194 z m 1.761132,0.246497 c 0.807302,0.682981 0.371504,0.388216 0,0 z m -0.361735,0.01035 c 1.584247,1.558929 3.709841,3.878958 0.848583,0.774707 -0.283941,-0.257114 -0.543875,-0.540376 -0.848583,-0.774707 z m -13.63431,0.0062 c 1.968341,2.149631 0.890871,1.555941 0,0 z m 12.312425,0.06563 c 0.01464,0.02772 0.01242,0.0012 0,0 z m 0.148828,0.134361 c 0.01463,0.01596 0.0071,-0.0064 0,0 z m -0.248047,0.01188 c 0.01079,-0.0039 -1.16e-4,0.01054 0,0 z m -12.279868,0.0052 c 0.174112,0.09563 -0.106794,0.04625 0,0 z m 12.193569,0.07907 c 0.04582,0.02257 -0.02214,0.0089 0,0 z m -0.653706,0.01241 c 0.0022,0.01071 -0.01329,-0.0033 0,0 z m -24.242964,0.03049 c -0.309152,0.351866 -0.491838,0.258718 0,0 z m 25.031028,0.07545 c 0.06869,0.03057 -0.02589,0.01768 0,0 z m 0.05271,0.05529 c 0.171568,0.01586 0.388372,0.396965 0,0 z m -25.250653,0.03772 c -0.789778,0.83333 -0.632272,0.393532 0,0 z m 24.684797,0.0078 c 0.07353,0.02888 0.01451,0.06342 0,0 z m 2.551782,0.0021 c -0.006,0.0285 0.03793,0.0161 0,0 z m 0.04134,0.04238 c 0.0081,0.0371 0.05727,0.01827 0,0 z m -27.336832,0.05116 c 0.09584,0.04829 -0.274924,0.172037 0,0 z m 26.974064,0.02223 c 1.727813,1.953307 2.357175,2.384282 0,0 z m -14.371216,0.142111 c 1.627167,1.257914 -3.126926,3.630405 -0.383445,0.695059 l 0.300758,-0.550355 0.08268,-0.144695 z m 2.628781,0.01913 c 0.365674,0.247836 -0.205266,0.236478 0,0 z m 10.202478,0.07286 c -0.0203,0.031 0.07556,0.02458 0,0 z m -10.306395,0.04227 c 0.493027,0.240971 -0.27746,0.402352 0,0 z m -1.604553,0.0036 c 0.115908,0.01485 -0.0073,0.136011 0,0 z m 12.01012,0.03411 c -0.01563,0.0025 0.01215,0.0102 0,0 z m -26.065593,0.0553 c -0.178239,0.125166 -0.03256,0.01261 0,0 z m 0.873331,0.05633 c -0.271235,0.35172 -0.468368,0.336578 0,0 z m 26.527064,0.02894 0.319876,0.321945 z m -13.071554,0.159681 0.1788,0.223242 z m 1.604036,0.01085 c 1.200059,0.659257 -0.468333,0.52735 0,0 z m -16.326651,0.225309 c -0.08555,0.03117 -0.01524,0.06195 0,0 z m 15.183569,0.05684 c 0.145578,0.133443 -0.215173,0.146019 0,0 z m -0.994772,0.02997 c 0.07291,0.05278 -0.222271,0.121753 0,0 z m 13.90923,0.0088 c 0.05034,0.03154 -0.01098,0.02575 0,0 z m -12.865883,0.0217 c 0.205767,0.189797 -0.227765,0.149814 0,0 z m 13.060701,0.01034 c 0.02244,0.01129 -0.01994,0.02419 0,0 z m -11.50834,0.01291 c 1.046064,1.225981 5.164907,6.480404 2.035541,2.639624 -0.66079,-0.871843 -1.480468,-1.763576 -2.035541,-2.639624 z m -1.494483,0.04909 c 0.57093,0.332296 -0.190445,0.356485 0,0 z m 13.050885,5.29e-4 0.03152,0.03101 z m -14.058059,0.01188 c -1.261688,1.528369 -3.801241,3.250259 -0.845428,0.810806 l 0.427368,-0.401479 0.418058,-0.409324 z m -0.207222,0.01035 c 0.0064,0.01325 -0.01958,0.0036 0,0 z m 2.616894,0.03411 c 1.147638,1.415326 6.360373,8.153491 2.664147,3.652183 -1.437625,-1.862944 -1.494744,-1.88038 -2.664147,-3.652183 z m -2.346108,0.03307 c -0.770407,1.149429 -4.213938,3.601754 -1.267625,1.184432 0.431207,-0.384851 0.865226,-0.768897 1.267625,-1.184432 z m 0.08061,0.09818 c -1.202534,1.196616 -0.580443,0.670626 0,0 z m 1.085207,0.08527 c 0.06787,0.109065 -0.216842,0.07611 0,0 z m 13.103592,0.0217 0.07286,0.0801 z M 73.97421,32.17854 c -1.134912,1.109075 -0.27408,0.305831 0,0 z m 14.202751,0.114207 0.05943,0.05994 z m -14.104564,0.0067 c -1.327144,1.541645 -2.654732,2.285425 0,0 z m -1.062469,0.0925 c -0.07889,0.119025 -0.101024,0.02881 0,0 z m 15.263667,0.0031 c 0.0233,0.01055 -0.0068,0.01861 0,0 z m -14.123167,0.0021 c -0.793585,1.379491 -6.174318,4.962969 -1.948713,1.809187 0.53671,-0.483788 1.27687,-1.174528 1.948713,-1.809187 z m -0.146246,0.05064 c -0.213143,0.127613 0.05512,0.03915 0,0 z m 14.327291,5.29e-4 c 0.141239,0.09551 -0.05635,0.03209 0,0 z m -14.206368,0.02739 c -0.243251,0.184966 -0.02821,0.103733 0,0 z m 0.114204,0.03256 c -0.556595,1.071931 -5.479476,4.487636 -1.983853,1.811831 0.676779,-0.58598 1.355523,-1.173246 1.983853,-1.811831 z m 14.17433,0.05168 0.04496,0.03566 z m -14.128337,0.02739 c -0.06031,0.0444 -0.04171,0.05539 0,0 z m -0.545703,0.250629 c -0.610367,0.331822 0.125849,0.147429 0,0 z m -0.697632,0.0708 c -0.0028,0.034 -0.06544,0.03433 0,0 z m 2.353347,0.09767 c 0.02909,0.0016 0.01281,0.04182 0,0 z m -2.297536,0.0181 c -0.0015,0.01749 -0.01239,-0.003 0,0 z m 0.138493,0.111622 c -0.03303,0.0138 -0.01416,0.02276 0,0 z m -0.469738,0.0072 c 0.01877,0.05741 -0.114097,0.04414 0,0 z m 0.168465,0.02585 c -0.0045,0.04836 -0.0862,0.05303 0,0 z m -0.287321,0.07286 c -0.163309,0.284887 -0.858937,0.65685 0,0 z m 3.771863,0.0186 c 0.370074,0.248587 0.327817,0.701755 0,0 z m -0.778764,0.05323 c 0.07341,0.04647 -0.0034,0.06948 0,0 z m -2.190565,0.0615 c -0.917028,0.778992 -0.167055,0.183051 0,0 z m -0.517798,0.01757 c -0.03324,0.02363 0.0023,0.01197 0,0 z m -0.341579,0.0801 c -0.03585,0.0398 -0.04521,0.02371 0,0 z m -0.624253,0.05581 c -0.155455,0.06565 0.04176,0.04335 0,0 z m 5.331457,0.0186 0.255799,0.330213 z m -1.112594,0.03256 c 0.122237,0.08585 0.04349,0.139056 0,0 z m -4.408516,0.11317 c -0.01829,0.0038 -0.0032,0.02016 0,0 z m 4.17804,0.03049 c 0.20255,0.157818 -0.08164,0.04208 0,0 z m 12.602848,0.05168 c 0.206819,0.137739 -0.06538,0.02064 0,0 z m -11.737785,0.02016 c 1.562441,1.97705 3.204989,3.93777 4.767654,5.907638 -1.676162,-1.885547 -3.311514,-3.905387 -4.767654,-5.907638 z m 11.864909,0.133842 c 0.03314,0.01653 -3.31e-4,0.02252 0,0 z m -12.525848,0.06565 c 0.04503,0.03549 -0.03539,0.0079 0,0 z m 12.716536,0.158647 0.07183,0.07855 z m -11.093894,0.0052 0.186034,0.244946 z m -3.970819,0.03669 c -0.07056,0.02533 -0.02258,0.05166 0,0 z m -15.130341,0.111622 c -0.04473,0.02438 -0.02506,0.07378 0,0 z m 17.709513,0.0062 0.175183,0.239779 z m -17.762223,0.08785 c -0.02404,-7.9e-5 -0.01065,0.03036 0,0 z m 2.402954,0.112135 c -0.851174,1.164425 -1.80652,2.005687 -0.464057,0.349847 l 0.464055,-0.349851 z m 17.071308,0.05064 c 0.01754,0.07444 0.08722,0.07475 0,0 z m 11.863358,0.07855 c -0.0109,0.01563 0.02309,0.01675 0,0 z m -12.892235,0.252136 0.147796,0.193271 z m 1.380794,0.09819 c -0.02564,0.02192 0.04273,0.02908 0,0 z m -6.702949,0.05478 c -0.01229,0.04592 -0.09421,0.04045 0,0 z m 5.195549,0.01963 c 0.04355,0.03944 -0.01361,0.01591 0,0 z m 1.595249,0.06046 0.143661,0.188618 z m -1.461926,0.09973 c 0.368978,0.425825 0.258011,0.47087 0,0 z m 0.364321,0.155546 c 0.311638,0.697754 0.941433,1.043754 0,0 z m 0.369485,0.267684 c 0.03463,0.0034 0.01234,0.04592 0,0 z m -7.2347,0.0078 c -1.065844,1.111779 -0.223847,-0.157733 0,0 z m 7.013009,0.303339 c 0.06521,0.05147 0.0132,0.06267 0,0 z m 0.474906,0.03928 c 0.09304,0.03703 0.0059,0.130457 0,0 z m 1.212328,0.03411 c -0.03191,0.01358 0.04868,0.03155 0,0 z m -0.161747,0.02997 c 2.107464,2.414166 2.142725,2.79166 0.01246,0.048 l -0.01241,-0.04806 z m -7.978323,0.05891 c -0.04044,10e-4 -0.04464,0.05793 0,0 z m 6.603214,0.03204 c 0.176338,0.120612 -0.06477,0.06589 0,0 z m 1.656228,0.03049 c -0.02149,0.02142 0.04201,0.02724 0,0 z m -8.352977,0.0062 c -0.05887,0.0169 -0.07106,0.08312 0,0 z m 6.998022,0.01704 c -0.0039,0.01269 0.03231,0.03376 0,0 z m 8.595858,0.108006 c -0.03041,0.0091 0.07434,0.0439 0,0 z m -8.695592,0.11162 c 0.04444,0.003 -0.0091,0.04093 0,0 z m -18.490345,0.08113 c -0.138183,0.08077 -0.02643,0.07979 0,0 z m 18.788001,0.318845 0.153995,0.21704 z m 7.724076,0.147793 c 7.4e-4,0.0388 0.03779,0.0055 0,0 z m 0.07183,0.06098 c 0.926955,1.347324 2.244483,2.371854 1.275858,1.560606 2.078822,2.027105 0.222799,0.314348 1.466579,1.299108 -0.862141,-0.983636 -1.817724,-1.920944 -2.742437,-2.859714 z m -5.930386,0.02429 c 0.09828,0.173107 0.05299,-0.0093 0,0 z m -14.052889,0.03824 c 0.101986,0.424524 -0.687246,0.397887 0,0 z m 0.67386,0.154511 c -2.359415,1.439594 -2.566225,1.40385 0,0 z m 0.03979,0.07442 c -0.575939,0.444804 -1.305834,0.697538 0,0 z m 13.887524,0.380338 c 0.572136,0.664334 -0.189879,0.0902 0,0 z m 5.693712,0.0041 c 1.445226,1.52354 3.594098,3.583144 0.783467,0.751981 -0.262279,-0.249519 -0.511203,-0.512879 -0.783467,-0.751981 z m -6.74791,0.06253 c 1.709694,1.882953 3.300075,3.922973 0.82372,1.018545 l -0.58756,-0.684712 -0.236162,-0.33383 z m 1.127064,0.01035 c -0.0166,0.01515 0.03474,0.02053 0,0 z M 67.1059,37.940493 c -2.229124,1.607084 -5.788,2.606666 -1.424235,0.621151 -0.584763,0.405695 -4.160718,2.190307 -0.229495,0.304405 0.561484,-0.289834 1.110872,-0.602451 1.65373,-0.925556 z m -1.410766,0.01394 c -0.14861,0.140389 -0.22515,0.07869 0,0 z m 15.11949,0.144695 c 2.25e-4,0.0032 0.0014,-7.2e-4 0,0 z m 5.29e-4,0.0011 c 0.03195,0.167905 0.05781,0.03821 0,0 z m -15.465721,0.04031 c -0.04912,0.04438 -0.04055,0.0031 0,0 z m 21.615733,0.08526 c -0.0055,0.02763 0.03646,0.01457 0,0 z m 0.03876,0.04031 c 0.0046,0.03682 0.05524,0.01608 0,0 z m -0.356569,0.07545 c 1.650144,1.842072 2.291464,2.236402 0,0 z m -21.804884,0.06395 -0.181901,0.09509 z m 14.630115,0.02894 c 0.228175,0.412193 0.07904,-0.04315 0,0 z m 0.115755,0.140041 c -0.0011,0.0035 0.0065,0.0022 0,0 z m 0.02842,0.0016 c 0.188456,0.447025 0.445221,0.405423 0,0 z m -67.671836,0.286287 c 2.299327,5.087189 7.210703,9.869116 12.851517,10.184203 1.713679,0.56677 5.069616,0.592562 1.418865,0.450269 C 19.858038,49.13364 14.237715,44.735477 11.944926,38.862376 Z m 68.362235,0.06408 c 0.07288,0.01237 0.02266,0.08309 0,0 z m 6.461619,0.105421 c 0.162821,0.121484 0.0065,0.06119 0,0 z m -6.778397,0.01963 c 0.02314,0.06186 0.04336,0.03525 0,0 z m 5.960361,0.187584 c 1.325461,1.208317 2.654637,2.767358 0.43509,0.44802 l -0.392742,-0.404627 -0.04237,-0.04341 z m -22.068422,0.02119 c 0.438469,-0.0048 -0.743089,0.406891 0,0 z m 22.93297,0.0083 c 0.04684,0.02702 -0.0093,0.02768 0,0 z m 0.190685,0.02585 c 0.02186,0.01052 -0.01837,0.02477 0,0 z m 0.04702,0.05994 0.03152,0.02894 z m 0.272336,0.278535 0.07286,0.07545 z m 0.111104,0.11834 0.05943,0.05529 z m -6.467822,0.03411 c -0.0039,0.02166 0.05504,0.04809 0,0 z m 5.601208,0.03979 c -0.02215,0.0315 0.06125,0.03869 0,0 z m 0.963766,0.02119 c 0.02141,0.0089 -0.0061,0.01755 0,0 z m 0.05788,0.04858 c 0.13991,0.08521 -0.0532,0.03362 0,0 z m 0.08372,0.104386 0.04496,0.03256 z m -6.686415,0.255281 c -0.01073,0.04059 0.06429,0.04247 0,0 z m -61.521825,0.546221 c 4.270026,4.338555 10.662833,2.023888 15.808219,4.124968 5.309745,1.67358 10.03859,5.128742 13.212232,9.70778 C 43.455468,47.59769 34.789607,43.682997 26.216461,43.92994 23.682743,43.735849 21.24331,42.628461 19.466949,40.800804 Z m 63.485012,0.16278 c 0.09978,0.05757 -0.03551,0.01502 0,0 z m 4.927865,0.223758 c 0.203789,0.11782 -0.05297,0.02754 0,0 z m 0.137459,0.141594 c 0.03525,0.01275 8.2e-4,0.02256 0,0 z m -4.612121,0.04083 0.252182,0.236677 z m 1.136882,0.07286 c -0.03965,0.0053 0.05234,0.03644 0,0 z m 0.111104,0.02119 c 0.659047,0.54165 0.283575,0.344949 0,0 z m 3.571359,0.06821 0.077,0.07028 z m -4.395081,0.250629 0.590661,0.50333 z m 5.513875,0.09922 c -0.0087,0.01723 0.02366,0.01564 0,0 z m -29.502592,0.674893 c -0.03556,-0.0082 -0.01502,0.0705 0,0 z m -54.6922675,0.01654 c 1.1415494,3.064663 6.5064005,8.43418 6.6320895,8.767709 C 9.0691177,48.931309 6.540554,45.910461 5.1484435,42.573308 Z m 78.8778715,0.256834 c 0.100797,0.143529 0.04587,-0.01209 0,0 z m 6.745841,1.811774 c -1.38425,0.578339 -5.864126,3.400955 -2.043767,1.000156 0.663096,-0.369517 1.351601,-0.68979 2.043767,-1.000156 z m -37.425106,0.03204 c -0.0073,0.07439 0.0829,0.006 0,0 z m 37.184295,0.258381 c -1.834449,1.290113 -2.444651,1.055934 0,0 z m -3.005502,0.01704 c -2.372372,1.236196 -5.02666,3.721439 -6.612528,5.103548 1.569825,-0.878834 6.606384,-5.447617 2.648375,-1.944635 1.522646,-1.351109 5.473334,-4.035269 2.304774,-1.90067 0.210119,-0.3717 1.931223,-1.037318 1.659379,-1.258243 z m 0.189137,0.180351 c -2.115795,1.020786 -8.176481,6.620431 -3.35428,2.460812 1.062567,-0.893749 2.212674,-1.681336 3.35428,-2.460812 z m -33.594849,0.04754 0.127124,0.227893 z m 37.542411,0.332795 c -0.336252,0.528582 -0.296798,0.06286 0,0 z m 3.461287,0.443903 c -0.05007,0.0056 -0.01,0.04918 0,0 z m -8.028966,0.0036 c -1.304251,0.702218 -6.009443,4.840689 -2.031868,1.554445 0.599872,-0.529346 1.498252,-1.086097 2.031868,-1.554445 z m -32.279166,0.632521 0.251145,0.340029 z m 34.310049,0.0093 c -0.06372,0.08652 -0.267065,0.12899 0,0 z m -0.159681,0.189654 c -1.306208,0.763143 -6.946344,5.474154 -2.842206,2.035018 0.912561,-0.725191 1.839056,-1.437709 2.842206,-2.035018 z m -0.175699,0.02479 c -1.605783,0.858916 -8.387127,6.661524 -3.371378,2.405031 1.085118,-0.841121 2.157673,-1.762297 3.371378,-2.405031 z m -1.892909,0.01498 -0.08475,0.077 z m -0.216524,0.152961 c 0.0017,0.249963 -0.2567,-0.03326 0,0 z m -31.480765,0.129709 c 0.0725,0.0056 0.03258,0.106049 0,0 z m 31.269926,0.02839 c 0.03583,0.0032 -0.04545,0.02915 0,0 z m -0.104386,0.07958 -0.13126,0.104905 z m -0.229444,0.174149 -0.172601,0.13126 z m -0.74259,0.573609 -0.0677,0.05891 z m -0.185518,0.134876 c 0.04107,0.0236 -0.04329,0.02757 0,0 z m -1.818494,0.130225 c -0.136418,0.06666 -7.63e-4,0.04899 0,0 z m -0.101285,0.09095 c -0.07459,0.01189 -0.01828,0.06225 0,0 z m 4.358907,0.03772 c -1.376068,1.249546 -5.005676,4.322115 -1.428249,1.332726 2.804409,-2.434277 -1.806808,1.958401 -0.467129,0.988521 -1.649071,1.460404 -1.065052,1.153598 -3.268009,3.141381 0.648923,-1.028878 -2.663576,2.508742 -2.596766,2.437067 -2.096987,2.464909 -1.302785,0.879183 -0.169521,-0.172063 -1.611695,2.26101 1.250885,-1.401373 0.725612,-0.980326 0.630333,-0.766926 1.952028,-1.924629 2.901632,-2.513464 4.335072,-3.376793 -1.862764,0.791422 -1.887735,0.879012 0.955637,-0.931273 6.660308,-5.580648 4.052991,-3.366783 0.750643,-0.520678 1.399507,-1.199773 2.137174,-1.746071 z m -2.544032,0.06305 c -0.0331,0.06423 -0.08737,0.0087 0,0 z m -0.337963,0.01963 -0.698667,0.586529 z m 0.09198,0.184486 -0.126606,0.12454 z m -0.152445,0.116271 c -2.233768,2.009416 -2.033881,1.524261 0,0 z m -0.759642,0.387057 c -1.740243,1.663187 -2.79259,2.202352 -0.190156,0.149385 l 0.190169,-0.149347 z m -1.057302,0.466122 c 0.03333,0.04976 -0.115322,0.03931 0,0 z m -2.730582,0.459919 -0.221173,0.13126 z m 5.279782,0.123508 c -0.09801,0.04147 -0.002,0.04829 0,0 z m -18.363221,0.05116 c 1.46993,0.916211 4.734459,3.764106 1.181417,1.087555 0.236433,0.07565 -1.884765,-1.029645 -1.181417,-1.087555 z m 18.273821,0.02119 c -0.07505,0.0455 0.05346,0.0095 0,0 z m -5.566069,0.04547 c -0.09978,0.0044 -0.02732,0.09822 0,0 z m -0.252698,0.178284 c -0.03731,-0.0019 -0.01787,0.04764 0,0 z m -0.227894,0.209291 c -0.562064,0.29406 0.198423,0.08714 0,0 z m -9.043373,0.458885 c 0.0127,0.06334 0.07132,0.01378 0,0 z m 12.054043,0.01241 c -0.71918,0.646839 -2.534802,2.135742 -0.83199,0.660424 l 0.697632,-0.559655 z m -13.879256,0.208772 c 0.04615,0.05133 0.06176,0.02582 0,0 z m 16.681151,0.0093 c 0.02762,0.04984 -0.08961,0.02438 0,0 z m -2.499587,0.01188 c -0.786847,1.085902 -0.239514,-0.115272 0,0 z m -0.336931,0.06408 c -0.02045,0.03777 -0.05494,0.0217 0,0 z m -0.338998,0.280601 c -0.04274,0.07703 -0.07809,0.0402 0,0 z m 0.204124,0.07648 c 0.02767,0.07088 -0.120908,0.03329 0,0 z m -0.411345,0.106971 c 0.01207,0.0065 -0.02147,0.01234 0,0 z m -12.41888,0.08062 c 0.876608,0.696433 0.221459,0.126895 0,0 z m 12.531534,0.05736 c 0.0031,0.04264 -0.07095,0.027 0,0 z m -0.144177,0.12764 c -0.742429,0.487062 -5.020473,4.937118 -3.58071,2.959524 1.250554,-1.477578 3.703781,-3.419454 2.534222,-2.159047 0.412774,-0.172283 0.694344,-0.536634 1.046488,-0.800477 z m 1.849498,0.157613 c -0.528983,0.900085 -0.448551,-0.132777 0,0 z m 0.823722,0.01291 c -1.197246,1.799728 -2.612696,1.909 0,0 z m -2.28978,0.0057 c -0.20159,0.215454 -0.235237,0.149425 0,0 z m -0.225828,0.19482 c -0.269889,0.584422 -0.296255,-0.163194 0,0 z m 2.274798,0.03411 c -0.215752,0.194261 -0.638008,0.61248 0,0 z m -2.10013,0.10232 c -0.08735,0.13928 -0.154595,0.01822 0,0 z m 1.150315,0.01707 c -0.04463,0.0019 0.0077,0.04994 0,0 z m -1.8557,0.237194 c 0.143984,0.0076 -0.135084,0.172164 0,0 z M 71.259133,53.11317 c 0.04914,-0.008 0.05215,0.08402 0,0 z m 1.271241,0.08992 c -0.0024,0.04198 0.07837,0.03554 0,0 z m 8.542115,0.01654 c -0.01125,0.02417 -0.01251,-0.0076 0,0 z m -8.457366,0.05116 c 0.02199,0.05686 0.102608,0.03156 0,0 z m 8.315256,0.0036 c 0.269163,0.03906 -0.251956,0.22266 0,0 z m 2.663401,0.031 c -0.04036,0.275429 -1.113325,0.852289 0,0 z m -2.577618,0.03256 c -5.86e-4,0.246582 -0.294607,-0.02896 0,0 z m -0.02585,0.09354 c -0.07102,0.06422 -0.04726,-0.0067 0,0 z m 2.169377,0.07493 c -0.0469,0.02485 -0.02503,0.05551 0,0 z m -30.253966,0.01085 c -0.133567,0.361371 0.774369,0.355244 0,0 z m 27.756961,0.08165 c 0.04778,0.09666 -0.261509,0.05772 0,0 z m 0.488341,0.09612 c -1.906988,2.023563 -3.548949,3.297266 -0.742588,0.512631 0.196278,-0.331782 0.510155,-0.236029 0.742588,-0.512631 z m -0.725537,0.0646 c 0.399393,-0.0057 -0.527638,0.38675 0,0 z m 2.118735,0.09922 c -0.344739,0.575165 -1.174818,1.107917 0,0 z m -28.110428,0.05478 c 0.394133,0.320645 0.258308,0.553625 0,0 z m 27.210742,0.09095 c -0.06136,0.03013 0.03562,0.03768 0,0 z m -0.179319,0.159165 c -0.116173,0.03878 0.06476,0.02021 0,0 z m -1.446421,0.02945 c 0.116541,0.0039 -0.106535,0.09109 0,0 z m 1.183904,0.205673 c -0.08671,-0.01873 0.01646,0.07931 0,0 z m -0.202054,0.142111 c -0.195658,0.100371 0.04604,0.156561 0,0 z m -1.37976,0.05529 c 0.0051,0.06366 -0.10613,0.04619 0,0 z m 1.070219,0.146246 c 0.09576,0.04555 -0.08591,0.0766 0,0 z m -25.317834,0.04651 c 1.908459,1.448885 1.340684,1.321518 0,0 z m 25.471829,0.09353 c -0.0064,-7.56e-4 2.7e-5,0.0058 0,0 z m -0.0021,0.0021 c -0.137958,0.09938 -0.110242,0.196725 0,0 z m -28.2298,0.166399 c -0.694822,-0.253361 0.394713,2.331747 0.554062,1.269223 -1.149521,-2.114883 1.060628,0.971022 -0.554062,-1.269223 z m 27.714585,0.0553 c -0.06902,0.461828 -0.912213,1.09828 0,0 z M 54.61779,55.209639 c 1.669722,1.337076 1.247494,1.710817 0,0 z m 26.183931,0.214458 c -0.589621,0.904197 -1.072134,1.055271 0,0 z m -0.286803,0.0021 c -0.01614,0.01057 0.01325,0.0078 0,0 z m -51.395312,0.03927 c 2.611126,-0.107047 7.637915,2.674201 2.496147,0.560765 0.01421,-0.280098 -4.135339,-0.639122 -2.496147,-0.560765 z m 51.381358,0.148309 c -0.02988,0.0039 -0.01125,0.04837 0,0 z m 0.752409,0.209807 c -0.712573,1.010415 -0.139925,0.05038 0,0 z m -24.405228,0.174151 0.389123,0.336929 z m 23.292118,0.0956 c -1.827878,2.249381 -1.465385,1.456761 0,0 z m -0.297141,0.04806 c -0.03707,0.0039 0.01816,0.02849 0,0 z m -23.055439,0.153999 c 2.171808,1.439625 3.045471,2.680888 0.657262,0.599973 l -0.654225,-0.596863 -0.0036,-0.0026 z m -2.039152,0.257347 c 1.340686,0.646487 1.55198,2.009273 0,0 z m 24.155114,0.02739 c -0.500762,1.325178 -1.450429,1.066119 0,0 z m -0.803569,0.05426 c 0.02082,-0.0082 0.0061,0.04404 0,0 z m -1.098124,0.0217 c 0.008,0.210529 -0.301736,-0.03449 0,0 z m -21.9599,0.364318 c 2.434031,2.592344 0.88971,1.043891 0.656698,1.173619 0.03483,-0.06644 -0.479046,-0.134266 -0.656698,-1.173619 z m 24.835178,0.210838 c -0.545566,0.593684 -0.208546,0.228186 0,0 z m -24.778332,0.01344 c -0.0018,0.0029 0.0068,0.0042 0,0 z m 0.0083,0.01241 c 0.02374,0.03722 0.01062,0.0067 0,0 z m 0.01291,0.01654 c 0.363548,0.569862 0.936526,1.308139 0,0 z m 0.766361,0.181901 c 0.308245,0.325418 3.563931,2.711306 1.916642,1.895475 -0.639363,-0.626161 -1.513957,-1.064218 -1.916642,-1.895475 z m 22.666317,0.06408 c -0.04297,0.02608 0.03025,0.02132 0,0 z m -0.119891,0.128675 c -0.03958,0.01789 0.02476,0.0366 0,0 z m -23.252327,0.03721 c 0.428524,0.400146 0.111624,0.402439 0,0 z m 0.506947,0.402042 c 0.01023,0.05996 0.05569,0.02253 0,0 z m 0.341064,0.02066 c 0.01766,0.0512 0.04384,0.03469 0,0 z m -19.98586,0.08216 c 2.167364,0.536586 5.439908,6.140154 4.587833,5.516977 0.08006,0.407566 -2.980048,-4.847837 -4.587833,-5.516977 z m 20.501591,0.197921 c 1.979742,1.416886 1.688615,1.895737 1.066661,1.359632 -1.062331,-1.172446 1.945977,1.576329 -0.484733,-0.604171 -0.221494,-0.224639 -0.383347,-0.51452 -0.581928,-0.755461 z m -0.574124,0.528135 c 0.803634,0.612223 0.864147,1.334072 -4.4e-5,2.2e-5 z m -1.130165,0.111104 c 0.018,-0.0096 -6.59e-4,0.01702 0,0 z m 1.131715,0.226859 c 0.01626,3.9e-4 -0.0048,0.01384 0,0 z m 0.363802,0.08268 c 0.01221,0.02832 0.01298,-0.0086 0,0 z m -0.518316,0.0031 c 0.06023,0.05332 -0.03545,0.0044 0,0 z m 0.264583,0.04599 c 0.07245,0.07903 -0.02365,0.01887 0,0 z m -0.896069,0.101285 c 0.103242,0.08283 -9.27e-4,0.09972 0,0 z m 1.450041,0.01291 c 0.113459,-0.02426 0.03113,0.188351 0,0 z m -0.658358,0.0708 c 0.09077,0.07475 -0.04659,0.0091 0,0 z m 0.310576,0.101285 c 0.0309,0.02989 -8.68e-4,0.03601 0,0 z m -0.250632,0.0016 c 0.251633,0.08474 0.454304,0.731972 0,0 z m 0.876433,0.06925 c 0.839384,0.768463 2.200578,3.036137 0,0 z m -0.799434,0.565856 c -0.03907,0.03666 0.107673,0.0647 0,0 z m 1.566828,0.107487 c 0.293845,0.239185 0.444227,0.63496 0,0 z m -1.439703,0.04702 c -0.02088,0.0029 0.01531,0.01641 0,0 z m 31.497817,1.791105 c -0.175601,0.02107 -0.08515,0.200337 0,0 z m -29.498972,0.739492 c 0.323206,0.103614 0.273176,0.501132 0,0 z m 0.218591,0.06976 c 0.123084,-0.04667 0.01256,0.146914 0,0 z m 27.543537,0.633034 c 1.688853,0.625328 -0.515322,0.424926 0,0 z m 0.619083,0.420132 c 0.382173,0.171873 -0.314708,0.158861 0,0 z M 57.48792,65.044761 c -0.0268,0.02541 0.05909,0.0014 0,0 z m -16.270324,0.03721 c 1.260618,1.965342 0.762411,7.526786 0.249603,7.745314 0.422351,-3.12222 0.301253,-4.514918 -0.249603,-7.745314 z m 42.368991,0.491442 c 0.563376,0.263853 -0.49803,0.210926 0,0 z m 0.329694,0.227378 c 0.365979,0.237531 -0.545547,0.163549 0,0 z m -1.132229,1.401463 c 1.603746,0.941068 6.205571,4.348875 2.178174,1.767261 -0.402092,-0.55006 -2.462563,-1.277782 -2.178174,-1.767261 z m -0.292489,0.160197 c 1.773481,0.821006 -0.263594,0.30296 0,0 z M 63.5123,67.402731 c -0.724396,1.804198 -0.917058,1.637767 0,0 z m 0.130741,0.04806 c -0.406499,1.234731 -0.935659,1.681511 0,0 z m 0.450101,0.168984 c 0.852157,-0.02765 -0.869966,0.859396 0,0 z m 19.038631,0.173114 c 2.114232,1.295174 4.470586,3.312983 0,0 z m 1.005623,0.470257 c 0.230107,0.200548 0.103662,-0.01296 0,0 z m 0.375687,0.256831 c 0.06338,0.06276 0.02527,-0.01087 0,0 z m -21.994005,0.465088 c -0.0057,0.03037 -0.09169,0.04401 0,0 z m 23.100916,0.304374 c -0.01466,0.03121 0.07212,0.02378 0,0 z m 2.200899,0.06511 c 0.154642,0.05054 0.09611,0.142734 0,0 z m 5.478735,0.381889 c -0.440863,0.116782 1.158234,0.671608 0,0 z m -32.875513,0.216527 c 0.01441,0.01513 -0.02059,0.0068 0,0 z m 28.358475,0.122989 c 0.207028,0.08552 -0.04048,0.13139 3e-5,5.4e-4 z m -36.095987,0.197403 c 0.85742,2.397884 -2.047653,10.191352 -0.447741,3.84385 0.246236,-1.267484 0.396438,-2.553662 0.447741,-3.84385 z m 41.364916,0.108005 c 0.0293,0.0572 0.07524,0.03425 0,0 z m -34.088358,0.201539 c -0.05392,0.151715 -0.117797,0.04045 0,0 z m 29.50311,0.0093 c 0.45535,-0.163506 0.613366,1.175604 0,0 z m 4.984708,0.172601 c 0.08383,0.154261 0.161129,0.06214 0,0 z m -6.0017,0.142107 c 0.159982,0.02759 -0.01125,0.150273 0,0 z m -0.28112,0.04651 c 0.471116,0.405206 0.18051,0.09146 0,0 z m 0.244946,0.1788 c 0.01062,0.02417 0.01155,-0.0057 0,0 z m 3.916556,-0.06356 c 0.183583,0.135341 0.449509,0.450783 0,0 z m -2.22622,0.01654 c 0.4523,0.200237 -0.05081,0.205916 0,0 z m 4.71289,0.02376 0.349851,0.366903 z m -5.95726,0.212389 c 0.08075,0.28989 0.442221,0.141924 0,0 z m 3.905705,0.175183 0.532786,0.464056 z m -5.331458,0.09818 c 0.257171,0.06943 -0.113118,0.104052 0,0 z m 1.955438,0.159681 c 0.02321,0.121603 0.09684,-6.48e-4 0,0 z m -2.491838,0.132292 c 0.29725,-0.03931 0.406446,0.293995 0,0 z m 0.826307,0.109037 c 0.645814,0.04092 0.371577,0.357153 0,0 z m 0.208254,0.165881 c 2.353235,1.404728 1.361442,1.245625 0,0 z m 2.052589,0.08268 c -0.07126,-0.0031 0.100806,0.08148 0,0 z m -2.121833,0.299207 c 0.648849,0.233946 -0.395031,0.003 0,0 z m 2.487702,0.0083 c -0.0092,0.06474 0.12068,0.04021 0,0 z m -1.806609,0.02066 c -6.99e-4,0.01603 0.01815,-0.0066 0,0 z m -0.465604,0.555003 c 0.760291,0.180102 -0.466437,0.04765 0,0 z m 2.383317,0.07855 c 1.495885,1.424676 1.819739,1.480065 0,0 z m -2.480469,0.03256 c 1.205086,0.442171 0.413939,0.22993 0,0 z m -1.503267,0.0093 c 0.119824,-0.0615 0.108185,0.218261 0,0 z m 2.176095,0.07441 c 1.726648,0.943857 3.446012,2.758475 1.620068,1.391676 2.087019,1.45739 1.586823,1.599065 -0.149897,-0.05941 C 89.431219,74.1046 89.839573,74.096001 88.6534,73.322272 Z m -47.80535,0.378272 c -0.979836,4.534954 -5.131343,8.558779 -9.60923,9.166881 4.480888,-1.099366 7.948138,-4.709204 9.418309,-9.003203 l 0.190924,-0.163678 z m 33.293057,0.05839 c 1.168509,1.128413 3.170868,4.067063 0.683437,0.874105 l -0.573373,-0.709767 -0.120407,-0.147277 0.0093,-0.01551 0.0011,-0.0016 z m 15.892052,0.06253 c 0.466581,0.198604 0.58738,0.710203 0,0 z m -15.990236,0.108003 c 1.598229,1.885798 2.881258,3.55137 0.541067,0.948265 l -0.654741,-0.752409 0.113689,-0.195855 z m 13.41365,0.146245 c 2.898264,1.243027 1.560278,1.403468 2.858741,2.295467 1.566625,1.163272 6.327769,6.247396 2.409932,2.803203 -1.14541,-0.990749 -4.724864,-3.859226 -4.680577,-4.248542 2.910248,2.409273 -0.03563,-0.454556 -0.588096,-0.850128 z m -0.414444,0.07441 c 0.22648,0.01211 0.136152,0.15579 0,0 z m 3.558956,0.0021 c 0.198464,0.142249 0.02694,0.05312 0,0 z m -0.948264,0.0098 c 0.02351,0.01422 0.0066,8.1e-4 0,0 z m 0.01138,0.0057 c 0.539662,0.356511 1.361975,0.849267 0,0 z m 2.768825,0.115755 c 0.0079,0.05945 0.05724,0.0076 0,0 z m -1.952853,0.41393 c 0.0261,0.05374 0.06084,0.0016 0,0 z m -16.866155,0.01498 c 1.147124,1.284947 1.209999,1.774843 2e-6,-6e-6 z m 19.341972,0.0186 c 0.05209,-0.01248 0.0915,0.136096 0,0 z m -1.909444,0.0047 c 1.455159,1.056676 3.182272,3.160712 0.862945,0.752407 -0.244314,-0.274487 -0.598926,-0.463037 -0.862945,-0.752407 z m -0.365353,0.112655 c -0.112991,-0.0031 0.27956,0.146075 0,0 z m -84.5007835,0.05581 c 0.852986,4.491867 3.9459925,8.843808 8.1973365,10.461106 1.682071,1.721866 7.054549,2.837879 10.414445,2.773216 1.776702,0.383613 -4.325706,-0.12654 0.433705,0.385986 6.048101,0.298114 -3.288672,0.385731 -5.244451,-0.577049 C 13.6207,86.458457 7.0359984,81.810914 6.1804095,74.904152 Z m 87.1037255,0.06615 c 0.90687,0.847522 -0.13326,0.05204 0,0 z m -2.667537,0.02842 c -0.02348,0.06153 0.161655,0.04071 0,0 z m 0.466121,0.01138 c 0.96441,0.612551 4.167474,4.045573 1.266151,1.206646 -0.384613,-0.411775 -0.968665,-0.779859 -1.266151,-1.206646 z m 2.571936,0.360185 c 1.177719,0.997674 0.543418,0.566254 0,0 z m -0.532784,0.01035 c 1.592776,1.483464 5.534771,5.835798 1.756513,1.665599 -0.549158,-0.591988 -1.140748,-1.14376 -1.756513,-1.665599 z m -19.907311,0.01344 c 2.955138,3.317331 1.404935,2.381912 0,0 z m 17.981848,0.09612 c 0.01608,0.03672 0.02092,0.0051 0,0 z m 0.217041,0.196371 c 0.02053,0.02384 0.0106,-0.0096 0,0 z m -0.362252,0.01704 c 0.01478,-0.0037 -0.0012,0.01493 0,0 z m -17.933789,0.0078 c 0.255962,0.140083 -0.154437,0.0668 0,0 z m 17.80718,0.115239 c 0.06805,0.03411 -0.03112,0.01276 0,0 z m -0.954463,0.0181 c 0.0041,0.01551 -0.01781,-0.0032 0,0 z m -35.405075,0.04484 c -0.451306,0.513666 -0.717584,0.376842 0,0 z m 36.556425,0.11007 c 0.09994,0.04437 -0.0392,0.02545 0,0 z m 0.077,0.08113 c 0.249336,0.01946 0.567517,0.581071 0,0 z m -36.877334,0.05478 c -0.587452,0.994175 -0.390328,-0.02311 0,0 z m 36.050511,0.01085 c 0.108139,0.04171 0.02135,0.09339 0,0 z m 3.726905,0.0031 c -0.0071,0.04145 0.05466,0.02425 0,0 z m 0.06098,0.06201 c 0.0096,0.0541 0.08411,0.02631 0,0 z m -39.924177,0.07441 c 0.139957,0.06892 -0.40076,0.25303 0,0 z m 39.393976,0.03256 c 1.304138,1.499272 3.746805,3.938729 0.774642,0.759703 l -0.703318,-0.69918 -0.0708,-0.05995 z m -20.988898,0.207222 c 2.628753,1.294108 -4.228979,5.277795 -0.947586,1.723825 0.322117,-0.571144 0.621039,-1.155165 0.947586,-1.723825 z m 3.839559,0.02842 c 0.534911,0.359401 -0.298558,0.347359 0,0 z m -22.184693,0.03669 c -0.668032,0.777719 -0.670115,0.389136 0,0 z m 37.085074,0.06976 c -0.02938,0.04516 0.109754,0.03619 0,0 z m -15.051794,0.06201 c 0.719199,0.350685 -0.404641,0.589814 0,0 z m -2.343526,0.0052 c 0.171866,0.02201 -0.01294,0.197798 0,0 z m 17.540531,0.04961 c -0.02184,0.0011 0.01536,0.01831 0,0 z M 54.73352,76.940705 c -0.395715,0.512794 -0.684804,0.492086 0,0 z m 38.741305,0.04238 0.466637,0.469739 z m -16.597437,0.07855 c 0.929461,0.690329 0.112762,1.163653 0,0 z m -23.122104,0.102838 c -0.0027,0.0045 -0.0015,-4.85e-4 0,0 z m 20.628716,0.05168 0.261482,0.325562 z m 2.343009,0.01601 c 1.69373,1.052752 -0.618792,0.677432 0,0 z m 16.950904,0.254764 0.09973,0.08165 z m -18.62057,0.156578 c 0.213057,0.194782 -0.313928,0.21435 0,0 z m -1.452623,0.04393 c 0.106308,0.07762 -0.325878,0.177564 0,0 z m 20.314004,0.01344 c 0.0733,0.04693 -0.01582,0.03599 0,0 z m -18.789549,0.03101 c 0.30316,0.314753 -0.329397,0.194575 0,0 z m 19.07377,0.01551 c 0.03125,0.01683 -0.02793,0.034 0,0 z m -42.909008,0.0067 c -2.238152,7.441661 -8.804412,13.475456 -16.280143,15.461585 7.437969,-2.300689 13.57947,-8.177453 16.280143,-15.461585 z m 26.101248,0.01188 c 1.147347,1.48506 5.346673,6.443037 4.468455,5.738154 -1.462446,-1.913972 -3.158973,-3.81904 -4.468455,-5.738154 z m -2.182296,0.07235 c 0.837404,0.485947 -0.282663,0.517501 0,0 z m 19.059818,5.29e-4 0.04599,0.04548 z m -20.530528,0.01707 c -1.02587,1.541489 -5.720866,4.909079 -1.835029,1.730121 0.625622,-0.561632 1.24115,-1.134887 1.835029,-1.730121 z m -0.302824,0.01497 c 0.0098,0.01936 -0.02903,0.0054 0,0 z m 3.821472,0.04961 c 1.972245,2.78004 4.425017,5.235701 6.195524,8.145733 -2.823301,-3.293184 -4.47262,-5.71292 -6.265265,-8.064114 l 0.07028,-0.08113 -5.29e-4,-5.29e-4 z m -3.426147,0.04857 c -1.162441,1.710655 -6.083498,5.20079 -1.851077,1.730136 0.629333,-0.563145 1.262165,-1.12413 1.851077,-1.730136 z m 0.118337,0.143661 c -1.399361,1.510792 -1.243867,1.270931 0,0 z m 1.584402,0.124539 c 0.111463,0.201138 -0.327198,0.07338 0,0 z m 19.137331,0.03152 0.105936,0.11679 z m -20.580138,0.01603 c -0.933109,1.005781 -1.106593,1.086706 0,0 z m 20.742401,0.166915 0.08682,0.08785 z m -20.599257,0.0098 c -2.408202,2.657715 -3.191742,2.710999 0,-1.2e-5 z m -1.552879,0.135392 c -0.113034,0.172826 -0.145618,0.04179 0,0 z m 22.293215,0.0041 c 0.03276,0.01488 -0.0088,0.02583 0,0 z m -20.626131,0.0031 c -0.164877,1.16138 -7.967671,6.526264 -4.161504,3.692798 1.575365,-1.178239 2.644182,-2.292502 4.161504,-3.692798 z m -0.213423,0.0739 c -0.314321,0.177214 0.08099,0.06606 0,0 z m 20.923787,5.29e-4 c 0.205368,0.139647 -0.08111,0.04634 0,0 z m -20.747572,0.04031 c -0.356468,0.27371 -0.03952,0.146408 0,0 z m 0.166915,0.04754 c -0.10894,1.013539 -6.62538,5.455842 -4.172875,3.692332 1.440311,-1.172828 2.864038,-2.371621 4.172875,-3.692332 z m 20.701063,0.07545 0.06511,0.05168 z m -20.633883,0.04031 c -0.08626,0.06179 -0.06248,0.08294 0,0 z m -0.796851,0.365871 c -0.901415,0.486232 0.191726,0.214311 0,0 z m -1.019058,0.103351 c -0.006,0.05177 -0.09327,0.04786 0,0 z m 3.436998,0.142111 c 0.04205,0.0023 0.01817,0.0618 0,0 z m -3.354316,0.02635 c -0.0019,0.02779 -0.02164,-0.0053 0,0 z m -20.503142,0.08372 c -0.03723,0.1385 -0.109577,0.105534 0,0 z m 20.704162,0.07958 c -0.04758,0.02138 -0.02145,0.03313 0,0 z m -0.686263,0.01085 c 0.03439,0.07893 -0.172775,0.06823 0,0 z m 0.246496,0.03824 c 0.0056,0.0706 -0.130534,0.07593 0,0 z m -0.419613,0.105937 c -0.240449,0.41805 -1.251251,0.956157 0,0 z m 5.508191,0.02687 c 0.517386,0.33867 0.496284,1.05436 0,0 z m -1.137396,0.07803 c 0.106678,0.06698 -0.0036,0.102063 0,0 z m -3.198773,0.0894 c -1.339366,1.138142 -0.244419,0.268008 0,0 z m -0.756026,0.02635 c -0.04871,0.03255 0.0046,0.0181 0,0 z m -1.410766,0.197922 c -0.229859,0.100507 0.06446,0.05889 0,0 z m 7.786087,0.02739 0.373621,0.482142 z m -1.624706,0.04754 c 0.178785,0.125115 0.06202,0.202267 0,0 z m -6.438368,0.165364 c -0.02609,0.0056 -0.0057,0.03015 0,0 z m 6.101953,0.04444 c 0.296746,0.225814 -0.12041,0.0668 0,0 z m 18.405597,0.07545 c 0.302062,0.19738 -0.09474,0.03386 0,0 z m -17.142624,0.02946 c 2.276375,2.892161 4.670106,5.758216 6.963418,8.627889 -2.435637,-2.763845 -4.837596,-5.699132 -6.963418,-8.627889 z m 17.328142,0.195337 c 0.07432,0.0589 -0.01661,0.01341 0,0 z m -18.29294,0.0956 c 0.06538,0.05135 -0.05152,0.01342 0,0 z m -25.007776,0.139009 c -0.774392,1.722706 -0.576873,0.434841 0,0 z m 43.579769,0.09302 0.103867,0.114724 z m -16.202112,0.0078 0.271817,0.357601 z m -5.79913,0.05375 c -0.09938,0.0321 -0.03803,0.07805 0,0 z m 3.766696,0.171564 0.255281,0.350885 z m -22.431705,0.292489 c -1.285156,1.892958 -3.537204,3.50917 0,0 z m 24.931811,0.07338 c 0.02454,0.108901 0.127856,0.110543 0,0 z m 17.325041,0.114205 c -0.01569,0.02519 0.03428,0.02464 0,0 z m -18.827792,0.368969 0.216006,0.282152 z m 2.016413,0.143661 c -0.03776,0.03321 0.06305,0.04125 0,0 z m -9.789064,0.0801 c -0.0206,0.06535 -0.133849,0.0603 0,0 z m 7.588165,0.02894 c 0.06471,0.05562 -0.02193,0.02247 0,0 z m 2.329574,0.08785 0.209291,0.275434 z m -2.13527,0.145211 c 0.537041,0.623072 0.378423,0.687781 0,0 z m 0.531749,0.227891 c 0.718885,1.173927 1.176216,1.428363 0,0 z m 0.540536,0.390158 c -0.0078,-0.145009 0.09269,0.254227 0,0 z m -0.324527,0.454236 c 0.150521,0.149527 -0.007,0.06286 0,0 z m 0.694015,0.05839 c 0.134942,0.05206 0.009,0.19013 0,0 z m 1.770433,0.04961 c -0.04737,0.01767 0.07193,0.04713 0,0 z m -0.236159,0.04341 c 1.670932,1.912428 4.179024,5.135577 0.909029,1.238667 -0.189888,-0.478903 -0.803831,-0.72895 -0.909029,-1.238667 z m -11.652004,0.08578 c -0.0032,2.25e-4 7.2e-4,0.0014 0,0 z m -0.0011,5.29e-4 c -0.05795,-6.3e-5 -0.06321,0.08364 0,0 z m 9.644372,0.04702 c 0.259215,0.176383 -0.09523,0.09535 0,0 z m 2.418974,0.04341 c -0.03299,0.04104 0.06132,0.03386 0,0 z m -12.198739,0.0098 c -0.0866,0.0235 -0.103242,0.121734 0,0 z m 10.220047,0.02479 c -0.0059,0.0187 0.04784,0.04973 0,0 z m 12.553238,0.158131 c -0.04337,0.0121 0.109658,0.06468 0,0 z m -12.698965,0.16278 c 0.0634,0.0021 -0.01139,0.06162 0,0 z m -27.00348,0.118253 c -0.202911,0.119431 -0.03808,0.113965 0,0 z m 27.438119,0.466122 0.224793,0.316775 z m 11.280447,0.215489 c 6.27e-4,0.0554 0.05595,0.0095 0,0 z m 0.104905,0.08889 c 0.593991,1.185911 4.258866,4.453848 1.535896,1.939434 1.962512,2.043568 2.143481,2.104705 1.835035,1.771479 1.842515,1.649095 -0.997134,-1.31991 -1.441212,-1.754451 -0.615999,-0.678834 -1.306886,-1.283488 -1.929719,-1.956462 z m -8.660972,0.03566 c -0.0021,7.45e-4 0.0026,0.002 0,0 z m 5.29e-4,0.0011 c 0.134116,0.233889 0.0805,-0.01287 0,0 z m -20.523295,0.0553 c 0.147867,0.620766 -1.004222,0.5788 0,0 z m 0.983401,0.225309 c -1.87774,1.300734 -4.180656,2.239197 -0.639229,0.375181 0.236962,0.105691 0.41826,-0.288641 0.639229,-0.375181 z m 0.05891,0.109037 c -0.901827,0.715477 -1.80812,0.928187 0,0 z m 20.292301,0.549836 c 0.623444,1.128688 0.08539,0.139466 0,0 z m 8.304403,0.01138 c 1.39765,1.510501 5.368397,5.369725 1.628877,1.59634 -0.522209,-0.552809 -1.070864,-1.080006 -1.628877,-1.59634 z m -9.854695,0.09095 c 1.633218,1.905381 5.360361,6.077251 1.725991,2.197282 -0.45445,-0.80602 -1.256321,-1.389916 -1.725991,-2.197282 z m 1.645378,0.01498 c -0.02362,0.02274 0.0513,0.02968 0,0 z M 34.33685,86.629419 c -3.183688,1.653043 -6.93228,1.142621 -10.104919,1.148049 0.231255,0.360301 -1.337226,-0.08079 -1.226491,-0.327031 1.320936,0.200571 8.240743,0.529508 11.33141,-0.821018 z m 29.727384,0.06976 c -1.618274,1.435163 -8.474585,4.070269 -3.539374,1.648693 5.256495,-2.595649 -5.801447,3.02265 0.271364,0.13516 1.114809,-0.546667 2.202692,-1.146514 3.26801,-1.783853 z m -2.060855,0.02016 c -0.199362,0.20408 -0.343788,0.118197 0,0 z m 22.081338,0.211873 c 0.03995,0.225742 0.09396,0.07367 0,0 z m -22.5857,0.06098 c -0.07389,0.06503 -0.05737,0.0018 0,0 z m 20.362571,0.09971 c -0.01346,0.0065 0.03043,0.01999 0,0 z m 11.205001,0.02429 c -0.0073,0.03993 0.0525,0.02205 0,0 z m 0.05633,0.05891 c 0.0057,0.05278 0.08245,0.02541 0,0 z m -0.520383,0.110072 c 1.20926,1.456701 3.667413,3.659189 0.730704,0.728691 l -0.663525,-0.669729 -0.06666,-0.05891 z m -31.844567,0.09405 -0.265099,0.138494 z m 21.366139,0.04186 c 0.386387,0.579166 0.06411,-0.0392 0,0 z m 0.169497,0.20464 c -0.0018,0.0052 0.0096,0.0033 0,0 z m 0.04186,0.0026 c 0.254082,0.633547 0.667387,0.609801 0,0 z m 1.008208,0.51108 c 0.105451,0.01921 0.03347,0.121355 0,0 z m 9.436635,0.15503 c 0.238428,0.175519 0.0086,0.08958 0,0 z m -9.900172,0.02791 c 0.0349,0.09119 0.06418,0.04924 0,0 z m 8.705411,0.273886 c 0.992629,0.811653 4.235728,4.36355 1.297591,1.328584 -0.437679,-0.437499 -0.865268,-0.885912 -1.297591,-1.328584 z m -32.229557,0.031 c 0.663411,-0.02527 -1.11091,0.609368 0,0 z m 33.492014,0.01188 c 0.06909,0.04123 -0.01366,0.03954 0,0 z m 0.279051,0.03772 c 0.03245,0.01599 -0.02858,0.03522 0,0 z m 0.06873,0.08785 0.04599,0.04237 z m 0.397391,0.406694 0.106455,0.109553 z m 0.162264,0.172598 0.08682,0.08062 z m -9.445934,0.05013 c -0.0073,0.03243 0.0823,0.06872 0,0 z m 8.179344,0.05684 c 0.0013,0.0046 0.0017,-7.27e-4 0,0 z m 0.0011,0.0016 c -0.03062,0.04359 0.08755,0.05784 0,0 z m 1.407149,0.03049 c 0.03189,0.01247 -0.009,0.02477 0,0 z m 0.08475,0.07131 c 0.203159,0.126056 -0.07618,0.04723 0,0 z m 0.122473,0.152445 0.06563,0.04703 z m -9.765295,0.373105 c -0.01542,0.06062 0.09358,0.05906 0,0 z m 2.867009,1.03456 c 0.145152,0.08421 -0.05203,0.02273 0,0 z m 7.196977,0.327113 c 0.293865,0.17332 -0.07373,0.03832 0,0 z m 0.201022,0.206189 c 0.0486,0.02058 0.0023,0.03257 0,0 z m -6.73654,0.06046 0.368969,0.345197 z m 1.660363,0.105418 c -0.06143,0.01288 0.08056,0.05156 0,0 z m 0.16278,0.03101 c 0.957283,0.786487 0.419027,0.511431 0,0 z m 5.215702,0.09974 0.112654,0.102838 z m -6.418728,0.366387 c 1.211275,0.881056 1.076537,1.060632 0,0 z m 8.052221,0.145211 c -0.01053,0.02573 0.03371,0.01984 0,0 z M 53.454607,93.4399 c -0.0059,0.0041 0.0026,0.0013 0,0 z m -0.0016,0.0021 c -0.05151,-0.01232 -0.02181,0.101506 0,0 z M 88.7723,93.838359 c 0.153625,0.216442 0.06848,-0.01848 0,0 z" />
  </g>
</svg>
